<svg width="64" height="64" viewBox="0 0 64 64" xmlns="http://www.w3.org/2000/svg">
<path d="M33.2715 10.85L33.2716 10.8502L40.3429 23.7565L40.343 23.7567C40.7279 24.4586 40.4707 25.3393 39.7678 25.7248L39.7667 25.7254C39.547 25.8465 39.3089 25.9031 39.0733 25.9031C38.5586 25.9031 38.0626 25.6303 37.7999 25.1501L37.7998 25.1498L36.1925 22.2162L36.0359 21.9305H35.7101H28.2899H27.9641L27.8076 22.2162L26.2003 25.1498L26.2 25.1504C25.8163 25.8526 24.9361 26.1114 24.2326 25.725L24.2323 25.7248C23.5294 25.3393 23.2722 24.4586 23.6571 23.7567L23.6572 23.7565L30.7285 10.8502L30.7286 10.85C30.9616 10.4243 31.4512 10.175 32 10.175C32.5489 10.175 33.0385 10.4243 33.2715 10.85ZM29.9993 18.2162L29.5531 19.0305H30.4816H33.5185H34.447L34.0008 18.2162L32.4824 15.4447L32.0001 14.5643L31.5177 15.4447L29.9993 18.2162Z" stroke="#F0F7EF" stroke-width="1.1"/>
<path d="M21.7819 44.4564L21.5866 44.8493L21.9263 45.127C23.0312 46.0303 23.7429 47.3976 23.7596 48.9228C23.758 51.6854 21.5339 53.911 18.8096 53.911H13.6904C12.8895 53.911 12.2404 53.2625 12.2404 52.4609V39.5391C12.2404 38.7375 12.8895 38.0891 13.6904 38.0891H17.8301C20.2616 38.0891 22.24 40.0674 22.24 42.5C22.24 43.2039 22.0751 43.8664 21.7819 44.4564ZM15.6904 40.9891H15.1404V41.5391V43.461V44.011H15.6904H17.8301C18.6723 44.011 19.34 43.3425 19.34 42.5C19.34 41.6751 18.6547 40.9891 17.8301 40.9891H15.6904ZM15.6904 46.911H15.1404V47.461V50.461V51.011H15.6904H18.8096C19.9476 51.011 20.8596 50.0759 20.8596 48.9395H20.8596L20.8595 48.9335C20.8475 47.8257 19.9296 46.911 18.8096 46.911H15.6904Z" stroke="#F0F7EF" stroke-width="1.1"/>
<path d="M47.1134 29.8153L46.8515 30.55H47.6315H56C59.0048 30.55 61.45 32.9952 61.45 36V56C61.45 59.0048 59.0048 61.45 56 61.45H36C34.6048 61.45 33.3397 60.907 32.3683 60.031L32 59.6989L31.6317 60.031C30.6603 60.907 29.3952 61.45 28 61.45H8C4.99516 61.45 2.55 59.0048 2.55 56V36C2.55 32.9952 4.99516 30.55 8 30.55H16.3687H17.1486L16.8867 29.8153C16.6788 29.232 16.55 28.6285 16.55 28V8C16.55 4.99516 18.9952 2.55 22 2.55H42C45.0048 2.55 47.45 4.99516 47.45 8V28C47.45 28.6286 47.3214 29.232 47.1134 29.8153ZM30.55 34V33.45H30H8C6.59388 33.45 5.45 34.5925 5.45 36V56C5.45 57.4075 6.59388 58.55 8 58.55H28C29.4061 58.55 30.55 57.4075 30.55 56V34ZM34 33.45H33.45V34V56C33.45 57.4075 34.5939 58.55 36 58.55H56C57.4061 58.55 58.55 57.4075 58.55 56V36C58.55 34.5925 57.4061 33.45 56 33.45H34ZM19.45 28C19.45 29.4075 20.5939 30.55 22 30.55H42C43.4061 30.55 44.55 29.4075 44.55 28V8C44.55 6.59255 43.4061 5.45 42 5.45H22C20.5939 5.45 19.45 6.59255 19.45 8V28Z" stroke="#F0F7EF" stroke-width="1.1"/>
<path d="M50.4763 42.4563L50.4761 42.4561C49.545 41.5095 48.2897 40.989 46.9502 40.989C44.1873 40.989 41.9403 43.2374 41.9403 46C41.9403 48.7626 44.1873 51.011 46.9502 51.011C48.2896 51.011 49.5447 50.4906 50.4758 49.5442C51.0376 48.9739 51.9564 48.9677 52.5266 49.5271C53.0969 50.0875 53.1049 51.0066 52.5435 51.5772L52.5433 51.5773C51.0637 53.0825 49.0794 53.9109 46.9502 53.9109C42.589 53.9109 39.0402 50.3623 39.0402 46C39.0402 41.6377 42.589 38.0891 46.9502 38.0891C49.0794 38.0891 51.0637 38.9175 52.5433 40.4227L52.5435 40.4228C53.1048 40.9933 53.0969 41.9123 52.5269 42.4727C51.9536 43.0344 51.036 43.0259 50.4763 42.4563Z" stroke="#F0F7EF" stroke-width="1.1"/>
</svg>
