<svg width="16" height="14" viewBox="0 0 16 14" fill="none" xmlns="http://www.w3.org/2000/svg">
<path fill-rule="evenodd" clip-rule="evenodd" d="M0.5 1C0.5 0.723858 0.723858 0.5 1 0.5H15C15.2761 0.5 15.5 0.723858 15.5 1C15.5 1.27614 15.2761 1.5 15 1.5H1C0.723858 1.5 0.5 1.27614 0.5 1Z" fill="black"/>
<path fill-rule="evenodd" clip-rule="evenodd" d="M0.5 5C0.5 4.72386 0.723858 4.5 1 4.5H9C9.27614 4.5 9.5 4.72386 9.5 5C9.5 5.27614 9.27614 5.5 9 5.5H1C0.723858 5.5 0.5 5.27614 0.5 5Z" fill="black"/>
<path fill-rule="evenodd" clip-rule="evenodd" d="M0.5 9C0.5 8.72386 0.723858 8.5 1 8.5H15C15.2761 8.5 15.5 8.72386 15.5 9C15.5 9.27614 15.2761 9.5 15 9.5H1C0.723858 9.5 0.5 9.27614 0.5 9Z" fill="black"/>
<path fill-rule="evenodd" clip-rule="evenodd" d="M0.5 13C0.5 12.7239 0.723858 12.5 1 12.5H9C9.27614 12.5 9.5 12.7239 9.5 13C9.5 13.2761 9.27614 13.5 9 13.5H1C0.723858 13.5 0.5 13.2761 0.5 13Z" fill="black"/>
</svg>
