<svg width="128" height="40" viewBox="0 0 128 40" fill="none" xmlns="http://www.w3.org/2000/svg">
<g clip-path="url(#clip0_233_4431)">
<path d="M121.831 0.769226H6.16871C3.1877 0.769226 0.771118 3.18 0.771118 6.15384V33.8461C0.771118 36.82 3.1877 39.2308 6.16871 39.2308H121.831C124.812 39.2308 127.229 36.82 127.229 33.8461V6.15384C127.229 3.18 124.812 0.769226 121.831 0.769226Z" fill="black"/>
<path fill-rule="evenodd" clip-rule="evenodd" d="M27.7099 20.2899C27.7369 23.4666 30.4912 24.5155 30.5249 24.5271C30.5085 24.6003 30.0938 26.0422 29.061 27.5054C28.1978 28.7942 27.2933 30.054 25.8582 30.0772C24.4637 30.1089 23.9949 29.2565 22.395 29.2565C20.7806 29.2565 20.2811 30.054 18.9435 30.1089C17.576 30.1599 16.5315 28.7335 15.6375 27.4562C13.8514 24.8498 12.4598 20.1099 14.3249 16.885C15.2286 15.3034 16.8777 14.2843 18.6387 14.2573C20.0072 14.2285 21.2773 15.1801 22.1183 15.1801C22.9438 15.1801 24.5138 14.0416 26.1331 14.2121C26.81 14.2313 28.7389 14.4789 29.983 16.2897C29.8816 16.3504 27.6857 17.6402 27.7099 20.2899ZM25.0751 12.4975C24.3248 13.3818 23.1232 14.0589 21.9533 13.9713C21.801 12.7779 22.3931 11.5083 23.0566 10.7339C23.807 9.85455 25.1088 9.18124 26.1504 9.13501C26.2864 10.3765 25.7946 11.5989 25.0751 12.4975Z" fill="#FFFFFE"/>
<path fill-rule="evenodd" clip-rule="evenodd" d="M40.5268 25.3852H44.1452L42.361 20.1387H42.3118L40.5268 25.3852ZM44.6187 26.8773H40.0542L38.9577 30.1098H37.024L41.3484 18.1487H43.3573L47.6807 30.1098H45.7142L44.6187 26.8773Z" fill="#FFFFFE"/>
<path fill-rule="evenodd" clip-rule="evenodd" d="M55.177 25.7504C55.177 23.9848 54.2628 22.8242 52.8693 22.8242C51.4998 22.8242 50.5788 24.0089 50.5788 25.7504C50.5788 27.5073 51.4998 28.6844 52.8693 28.6844C54.2628 28.6844 55.177 27.5314 55.177 25.7504ZM57.0191 25.7504C57.0191 28.4599 55.5667 30.2014 53.3746 30.2014C52.1305 30.2014 51.143 29.6456 50.628 28.6757H50.5865V32.9947H48.7937V21.389H50.5286V22.8396H50.5614C51.0601 21.9043 52.1228 21.2985 53.3418 21.2985C55.558 21.2985 57.0191 23.0476 57.0191 25.7504Z" fill="#FFFFFE"/>
<path fill-rule="evenodd" clip-rule="evenodd" d="M64.7864 25.7504C64.7864 23.9848 63.8731 22.8242 62.4796 22.8242C61.1102 22.8242 60.1891 24.0089 60.1891 25.7504C60.1891 27.5073 61.1102 28.6844 62.4796 28.6844C63.8731 28.6844 64.7864 27.5314 64.7864 25.7504ZM66.6284 25.7504C66.6284 28.4599 65.177 30.2014 62.9849 30.2014C61.7408 30.2014 60.7533 29.6456 60.2383 28.6757H60.1968V32.9947H58.4041V21.389H60.139V22.8396H60.1718C60.6703 21.9043 61.7322 21.2985 62.9521 21.2985C65.1683 21.2985 66.6284 23.0476 66.6284 25.7504Z" fill="#FFFFFE"/>
<path fill-rule="evenodd" clip-rule="evenodd" d="M72.9805 26.7771C73.1126 27.9637 74.267 28.742 75.8429 28.742C77.3543 28.742 78.4408 27.9637 78.4408 26.8936C78.4408 25.9651 77.7854 25.4093 76.2334 25.0288L74.6808 24.6551C72.4819 24.1244 71.4606 23.0976 71.4606 21.4302C71.4606 19.3671 73.2621 17.9492 75.8187 17.9492C78.349 17.9492 80.084 19.3671 80.1418 21.4302H78.3328C78.2249 20.2368 77.2364 19.5164 75.7937 19.5164C74.349 19.5164 73.3614 20.2455 73.3614 21.306C73.3614 22.1517 73.9922 22.6497 75.5362 23.0311L76.8554 23.3538C79.3129 23.9346 80.3338 24.92 80.3338 26.6701C80.3338 28.9077 78.5488 30.3091 75.7107 30.3091C73.0548 30.3091 71.261 28.9404 71.1453 26.7771H72.9805Z" fill="#FFFFFE"/>
<path fill-rule="evenodd" clip-rule="evenodd" d="M84.2016 19.3257V21.389H85.8618V22.8068H84.2016V27.6142C84.2016 28.3617 84.534 28.7094 85.2642 28.7094C85.4462 28.7094 85.7376 28.6844 85.8533 28.668V30.0771C85.6551 30.1272 85.2565 30.16 84.8578 30.16C83.0905 30.16 82.4012 29.4963 82.4012 27.8059V22.8068H81.132V21.389H82.4012V19.3257H84.2016Z" fill="#FFFFFE"/>
<path fill-rule="evenodd" clip-rule="evenodd" d="M93.2804 25.7502C93.2804 23.8682 92.4175 22.7566 90.9648 22.7566C89.5129 22.7566 88.65 23.8758 88.65 25.7502C88.65 27.6401 89.5129 28.742 90.9648 28.742C92.4175 28.742 93.2804 27.6401 93.2804 25.7502ZM86.8241 25.7502C86.8241 23.0061 88.4418 21.2819 90.9648 21.2819C93.4963 21.2819 95.1071 23.0061 95.1071 25.7502C95.1071 28.5012 93.5048 30.2176 90.9648 30.2176C88.4256 30.2176 86.8241 28.5012 86.8241 25.7502Z" fill="#FFFFFE"/>
<path fill-rule="evenodd" clip-rule="evenodd" d="M96.5845 21.389H98.294V22.8733H98.3356C98.6093 21.887 99.4059 21.2985 100.435 21.2985C100.693 21.2985 100.908 21.3322 101.05 21.3649V23.039C100.908 22.9812 100.593 22.9311 100.244 22.9311C99.0905 22.9311 98.3772 23.7113 98.3772 24.9375V30.1099H96.5845V21.389Z" fill="#FFFFFE"/>
<path fill-rule="evenodd" clip-rule="evenodd" d="M103.254 24.946H107.619C107.578 23.611 106.723 22.7325 105.478 22.7325C104.242 22.7325 103.346 23.6283 103.254 24.946ZM109.313 27.5485C109.071 29.1321 107.528 30.2176 105.554 30.2176C103.013 30.2176 101.436 28.5185 101.436 25.7917C101.436 23.0562 103.022 21.2819 105.478 21.2819C107.894 21.2819 109.413 22.9396 109.413 25.5836V26.1972H103.246V26.3051C103.246 27.7971 104.184 28.7748 105.595 28.7748C106.59 28.7748 107.371 28.3028 107.612 27.5485H109.313Z" fill="#FFFFFE"/>
<path fill-rule="evenodd" clip-rule="evenodd" d="M39.1176 14.08H40.2025C41.4061 14.08 42.0996 13.3316 42.0996 12.013C42.0996 10.7146 41.3946 9.95743 40.2025 9.95743H39.1176V14.08ZM40.3019 9.14551C42.0089 9.14551 43.0099 10.1925 43.0099 12.0014C43.0099 13.8373 42.0166 14.893 40.3019 14.893H38.2236V9.14551H40.3019Z" fill="#FFFFFE"/>
<path fill-rule="evenodd" clip-rule="evenodd" d="M47.2344 12.7218C47.2344 11.7817 46.811 11.2327 46.0693 11.2327C45.3238 11.2327 44.9053 11.7817 44.9053 12.7218C44.9053 13.6696 45.3238 14.2157 46.0693 14.2157C46.811 14.2157 47.2344 13.6657 47.2344 12.7218ZM44.02 12.7218C44.02 11.3242 44.8011 10.4717 46.0693 10.4717C47.3337 10.4717 48.1158 11.3242 48.1158 12.7218C48.1158 14.128 47.3375 14.9767 46.0693 14.9767C44.7973 14.9767 44.02 14.128 44.02 12.7218Z" fill="#FFFFFE"/>
<path fill-rule="evenodd" clip-rule="evenodd" d="M53.5597 14.8928H52.6705L51.7737 11.6978H51.7052L50.8121 14.8928H49.9316L48.7339 10.5555H49.6038L50.3811 13.8651H50.4457L51.3387 10.5555H52.1604L53.0534 13.8651H53.1209L53.8953 10.5555H54.7527L53.5597 14.8928Z" fill="#FFFFFE"/>
<path fill-rule="evenodd" clip-rule="evenodd" d="M55.7594 10.5555H56.5839V11.2442H56.6476C56.8588 10.7626 57.2899 10.4717 57.9437 10.4717C58.913 10.4717 59.4473 11.0525 59.4473 12.0851V14.8929H58.5899V12.2999C58.5899 11.6025 58.2871 11.2558 57.6525 11.2558C57.0189 11.2558 56.6158 11.6787 56.6158 12.3548V14.8929H55.7594V10.5555Z" fill="#FFFFFE"/>
<path fill-rule="evenodd" clip-rule="evenodd" d="M60.8129 14.893H61.6702V8.8623H60.8129V14.893Z" fill="#FFFFFE"/>
<path fill-rule="evenodd" clip-rule="evenodd" d="M66.0758 12.7218C66.0758 11.7817 65.6525 11.2327 64.9108 11.2327C64.1654 11.2327 63.7468 11.7817 63.7468 12.7218C63.7468 13.6696 64.1654 14.2157 64.9108 14.2157C65.6525 14.2157 66.0758 13.6657 66.0758 12.7218ZM62.8615 12.7218C62.8615 11.3242 63.6426 10.4717 64.9108 10.4717C66.1752 10.4717 66.9573 11.3242 66.9573 12.7218C66.9573 14.128 66.179 14.9767 64.9108 14.9767C63.6388 14.9767 62.8615 14.128 62.8615 12.7218Z" fill="#FFFFFE"/>
<path fill-rule="evenodd" clip-rule="evenodd" d="M70.6509 13.2959V12.9327L69.5911 13.0001C68.9931 13.0406 68.7221 13.2438 68.7221 13.6263C68.7221 14.0164 69.0606 14.2437 69.5265 14.2437C70.1725 14.2437 70.6509 13.8334 70.6509 13.2959ZM67.86 13.6657C67.86 12.8855 68.4415 12.4347 69.4753 12.3712L70.6509 12.3037V11.929C70.6509 11.4715 70.3481 11.2124 69.7627 11.2124C69.2844 11.2124 68.9526 11.3877 68.8572 11.694H68.0278C68.1155 10.9495 68.8167 10.4717 69.8023 10.4717C70.891 10.4717 71.5044 11.013 71.5044 11.929V14.8929H70.6798V14.2831H70.6114C70.3529 14.7176 69.8785 14.9641 69.3075 14.9641C68.4705 14.9641 67.86 14.4584 67.86 13.6657Z" fill="#FFFFFE"/>
<path fill-rule="evenodd" clip-rule="evenodd" d="M73.5159 12.7219C73.5159 13.6418 73.9499 14.1956 74.6761 14.1956C75.3984 14.1956 75.845 13.6341 75.845 12.7258C75.845 11.8222 75.3936 11.252 74.6761 11.252C73.9547 11.252 73.5159 11.8097 73.5159 12.7219ZM72.6306 12.7219C72.6306 11.3512 73.3365 10.4834 74.433 10.4834C75.0281 10.4834 75.5296 10.7665 75.7649 11.2443H75.8295V8.8623H76.6859V14.893H75.8652V14.2071H75.7967C75.5382 14.682 75.031 14.9642 74.433 14.9642C73.3288 14.9642 72.6306 14.0964 72.6306 12.7219Z" fill="#FFFFFE"/>
<path fill-rule="evenodd" clip-rule="evenodd" d="M83.4461 12.7218C83.4461 11.7817 83.0227 11.2327 82.2817 11.2327C81.5361 11.2327 81.1174 11.7817 81.1174 12.7218C81.1174 13.6696 81.5361 14.2157 82.2817 14.2157C83.0227 14.2157 83.4461 13.6657 83.4461 12.7218ZM80.2322 12.7218C80.2322 11.3242 81.0141 10.4717 82.2817 10.4717C83.5455 10.4717 84.3282 11.3242 84.3282 12.7218C84.3282 14.128 83.5494 14.9767 82.2817 14.9767C81.0102 14.9767 80.2322 14.128 80.2322 12.7218Z" fill="#FFFFFE"/>
<path fill-rule="evenodd" clip-rule="evenodd" d="M85.4785 10.5555H86.3028V11.2442H86.3668C86.5781 10.7626 87.0091 10.4717 87.663 10.4717C88.6323 10.4717 89.1666 11.0525 89.1666 12.0851V14.8929H88.3092V12.2999C88.3092 11.6025 88.0061 11.2558 87.3715 11.2558C86.7377 11.2558 86.3352 11.6787 86.3352 12.3548V14.8929H85.4785V10.5555Z" fill="#FFFFFE"/>
<path fill-rule="evenodd" clip-rule="evenodd" d="M94.0083 9.47601V10.5751H94.9498V11.2966H94.0083V13.5263C94.0083 13.981 94.1965 14.1804 94.6229 14.1804C94.7547 14.1804 94.8303 14.1717 94.9498 14.1602V14.8729C94.8103 14.897 94.6499 14.9172 94.4833 14.9172C93.5303 14.9172 93.1509 14.582 93.1509 13.7459V11.2966H92.4615V10.5751H93.1509V9.47601H94.0083Z" fill="#FFFFFE"/>
<path fill-rule="evenodd" clip-rule="evenodd" d="M96.1202 8.8623H96.97V11.252H97.0378C97.2476 10.7665 97.7071 10.4757 98.3618 10.4757C99.2863 10.4757 99.8577 11.0613 99.8577 12.0929V14.893H98.9995V12.3038C98.9995 11.6113 98.6764 11.2598 98.0703 11.2598C97.3686 11.2598 96.9769 11.7028 96.9769 12.3597V14.893H96.1202V8.8623Z" fill="#FFFFFE"/>
<path fill-rule="evenodd" clip-rule="evenodd" d="M101.839 12.324H104.033C104.013 11.643 103.598 11.1999 102.964 11.1999C102.33 11.1999 101.887 11.6468 101.839 12.324ZM104.854 13.7216C104.659 14.4989 103.965 14.9767 102.972 14.9767C101.728 14.9767 100.967 14.1242 100.967 12.7372C100.967 11.3511 101.745 10.4717 102.968 10.4717C104.177 10.4717 104.906 11.2962 104.906 12.6582V12.9568H101.839V13.005C101.868 13.765 102.311 14.2475 102.995 14.2475C103.516 14.2475 103.87 14.0597 104.029 13.7216H104.854Z" fill="#FFFFFE"/>
</g>
<defs>
<clipPath id="clip0_233_4431">
<rect width="128" height="40" fill="white"/>
</clipPath>
</defs>
</svg>
