<svg width="23" height="23" viewBox="0 0 23 23" fill="none" xmlns="http://www.w3.org/2000/svg">
<path fill-rule="evenodd" clip-rule="evenodd" d="M5.13607 10.8965C3.28108 12.7515 3.28108 15.759 5.13607 17.614C6.99106 19.469 9.99859 19.469 11.8536 17.614L18.0408 11.4268C18.236 11.2316 18.5526 11.2316 18.7479 11.4268C18.9431 11.6221 18.9431 11.9387 18.7479 12.1339L12.5607 18.3211C10.3152 20.5666 6.67448 20.5666 4.42896 18.3211C2.18345 16.0756 2.18345 12.4349 4.42896 10.1894L11.6768 2.94154C13.2389 1.37944 15.7716 1.37944 17.3337 2.94154C18.8958 4.50364 18.8958 7.0363 17.3337 8.59839L10.0858 15.8462C9.20714 16.7249 7.78252 16.7249 6.90384 15.8462C6.02516 14.9676 6.02516 13.5429 6.90384 12.6643L14.1517 5.41641C14.3469 5.22115 14.6635 5.22115 14.8588 5.41641C15.054 5.61168 15.054 5.92826 14.8588 6.12352L7.61094 13.3714C7.12279 13.8595 7.12279 14.651 7.61094 15.1391C8.0991 15.6273 8.89055 15.6273 9.37871 15.1391L16.6266 7.89129C17.7981 6.71971 17.7981 4.82022 16.6266 3.64865C15.455 2.47707 13.5555 2.47707 12.3839 3.64865L5.13607 10.8965Z" fill="black"/>
</svg>
