<svg width="18" height="20" viewBox="0 0 18 20" fill="none" xmlns="http://www.w3.org/2000/svg">
<path fill-rule="evenodd" clip-rule="evenodd" d="M9 3.5C5.96243 3.5 3.5 5.96243 3.5 9V15.5H14.5V9C14.5 5.96243 12.0376 3.5 9 3.5ZM2.5 9C2.5 5.41015 5.41015 2.5 9 2.5C12.5899 2.5 15.5 5.41015 15.5 9V16.5H2.5V9Z" fill="black"/>
<path fill-rule="evenodd" clip-rule="evenodd" d="M9 1.5C8.72386 1.5 8.5 1.72386 8.5 2V2.5H9.5V2C9.5 1.72386 9.27614 1.5 9 1.5ZM7.5 2C7.5 1.17157 8.17157 0.5 9 0.5C9.82843 0.5 10.5 1.17157 10.5 2V3.5H7.5V2Z" fill="black"/>
<path fill-rule="evenodd" clip-rule="evenodd" d="M0.5 16C0.5 15.7239 0.723858 15.5 1 15.5H17C17.2761 15.5 17.5 15.7239 17.5 16C17.5 16.2761 17.2761 16.5 17 16.5H1C0.723858 16.5 0.5 16.2761 0.5 16Z" fill="black"/>
<path fill-rule="evenodd" clip-rule="evenodd" d="M7.5 19C7.5 18.7239 7.72386 18.5 8 18.5H10C10.2761 18.5 10.5 18.7239 10.5 19C10.5 19.2761 10.2761 19.5 10 19.5H8C7.72386 19.5 7.5 19.2761 7.5 19Z" fill="black"/>
</svg>
