<svg width="64" height="64" viewBox="0 0 64 64" fill="none" xmlns="http://www.w3.org/2000/svg">
<path d="M8.05874 54.5902L8.05894 54.5902V54.5857V8.65126C8.05894 5.56291 10.5805 3.05 13.6808 3.05H55.0604C55.5529 3.05 55.95 3.44626 55.95 3.93559V50.6349C55.95 51.1245 55.5527 51.5204 55.0604 51.5204C52.9405 51.5204 51.2151 53.2371 51.2151 55.349C51.2151 57.4614 52.9407 59.179 55.0604 59.179C55.5529 59.179 55.95 59.575 55.95 60.0645C55.95 60.5541 55.5527 60.95 55.0604 60.95H13.6808C12.4741 60.95 11.2965 60.5024 10.3516 59.8185C9.4063 59.1344 8.69807 58.2169 8.42568 57.2818C8.19244 56.4812 8.1008 55.8072 8.06742 55.3338C8.05073 55.0972 8.04861 54.9107 8.05064 54.7837C8.05165 54.7201 8.0537 54.6715 8.05548 54.6389C8.05638 54.6225 8.0572 54.6102 8.0578 54.6021L8.0585 54.593L8.05868 54.5908L8.05873 54.5903L8.05874 54.5902ZM12.7917 5.0027V4.93827L12.7293 4.95426C11.0722 5.37893 9.8374 6.86804 9.8374 8.65126V51.1787V51.2913L9.92093 51.2158C10.699 50.5125 11.6698 50.0235 12.75 49.8431L12.7917 49.8361V49.7938V5.0027ZM50.8822 51.6039L50.9578 51.5204H50.8451H13.6808C11.5621 51.5204 9.8374 53.2371 9.8374 55.349C9.8374 57.4614 11.5621 59.179 13.6808 59.179H50.8467H50.9595L50.8838 59.0955C49.9838 58.102 49.4366 56.7883 49.4366 55.349C49.4366 53.9099 49.9838 52.5965 50.8822 51.6039ZM14.5701 49.6994V49.7494H14.6201H54.1215H54.1715V49.6994V4.87107V4.82107H54.1215H14.6201H14.5701V4.87107V49.6994Z" fill="black" stroke="#F0F7EF" stroke-width="0.1"/>
<path fill-rule="evenodd" clip-rule="evenodd" d="M33.5516 18.9085C33.735 18.5369 34.265 18.5369 34.4484 18.9085L36.8226 23.7192C36.8954 23.8668 37.0362 23.969 37.1991 23.9927L42.508 24.7641C42.9181 24.8237 43.0818 25.3277 42.7851 25.617L38.9435 29.3616C38.8257 29.4765 38.7719 29.642 38.7997 29.8042L39.7066 35.0916C39.7766 35.5001 39.3479 35.8116 38.9811 35.6187L34.2327 33.1223C34.087 33.0457 33.913 33.0457 33.7673 33.1223L29.0189 35.6187C28.6521 35.8116 28.2233 35.5001 28.2934 35.0916L29.2003 29.8042C29.2281 29.642 29.1743 29.4765 29.0565 29.3616L25.2149 25.617C24.9181 25.3277 25.0819 24.8237 25.492 24.7641L30.8009 23.9927C30.9638 23.969 31.1046 23.8668 31.1774 23.7192L33.5516 18.9085Z" stroke="#0C0310" stroke-width="1.5" stroke-linecap="round"/>
</svg>
