<svg width="64" height="64" viewBox="0 0 64 64" fill="none" xmlns="http://www.w3.org/2000/svg">
<path d="M8.05874 54.5902L8.05894 54.5902V54.5857V8.65126C8.05894 5.56291 10.5805 3.05 13.6808 3.05H55.0604C55.5529 3.05 55.95 3.44626 55.95 3.93559V50.6349C55.95 51.1245 55.5527 51.5204 55.0604 51.5204C52.9405 51.5204 51.2151 53.2371 51.2151 55.349C51.2151 57.4614 52.9407 59.179 55.0604 59.179C55.5529 59.179 55.95 59.575 55.95 60.0645C55.95 60.5541 55.5527 60.95 55.0604 60.95H13.6808C12.4741 60.95 11.2965 60.5024 10.3516 59.8185C9.4063 59.1344 8.69807 58.2169 8.42568 57.2818C8.19244 56.4812 8.1008 55.8072 8.06742 55.3338C8.05073 55.0972 8.04861 54.9107 8.05064 54.7837C8.05165 54.7201 8.0537 54.6715 8.05548 54.6389C8.05638 54.6225 8.0572 54.6102 8.0578 54.6021L8.0585 54.593L8.05868 54.5908L8.05873 54.5903L8.05874 54.5902ZM12.7917 5.0027V4.93827L12.7293 4.95426C11.0722 5.37893 9.8374 6.86804 9.8374 8.65126V51.1787V51.2913L9.92093 51.2158C10.699 50.5125 11.6698 50.0235 12.75 49.8431L12.7917 49.8361V49.7938V5.0027ZM50.8822 51.6039L50.9578 51.5204H50.8451H13.6808C11.5621 51.5204 9.8374 53.2371 9.8374 55.349C9.8374 57.4614 11.5621 59.179 13.6808 59.179H50.8467H50.9595L50.8838 59.0955C49.9838 58.102 49.4366 56.7883 49.4366 55.349C49.4366 53.9099 49.9838 52.5965 50.8822 51.6039ZM14.5701 49.6994V49.7494H14.6201H54.1215H54.1715V49.6994V4.87107V4.82107H54.1215H14.6201H14.5701V4.87107V49.6994Z" fill="black" stroke="#F0F7EF" stroke-width="0.1"/>
<g clip-path="url(#clip0_342_50110)">
<path d="M41 23H27M42 33H27" stroke="#0C0310" stroke-width="1.5" stroke-linecap="round"/>
<path d="M38 19L41.2929 22.2929C41.6834 22.6834 41.6834 23.3166 41.2929 23.7071L38 27" stroke="#0C0310" stroke-width="1.5" stroke-linecap="round"/>
<path d="M30 29L26.7071 32.2929C26.3166 32.6834 26.3166 33.3166 26.7071 33.7071L30 37" stroke="#0C0310" stroke-width="1.5" stroke-linecap="round"/>
</g>
<defs>
<clipPath id="clip0_342_50110">
<rect width="24" height="24" fill="white" transform="translate(22 16)"/>
</clipPath>
</defs>
</svg>
