<svg width="26" height="26" viewBox="0 0 26 26" fill="none" xmlns="http://www.w3.org/2000/svg">
<path d="M21.5958 14.1583L22.8709 14.92C22.9496 14.9669 23.0147 15.0333 23.0599 15.1127C23.1051 15.1922 23.1289 15.2819 23.1289 15.3732C23.1289 15.4645 23.1051 15.5543 23.0599 15.6337C23.0147 15.7132 22.9496 15.7796 22.8709 15.8265L13.0209 21.7121L3.17082 15.8265C3.09215 15.7796 3.02703 15.7132 2.98182 15.6337C2.93661 15.5543 2.91284 15.4645 2.91284 15.3732V10.4606C2.91284 10.3693 2.93661 10.2796 2.98182 10.2001C3.02703 10.1207 3.09215 10.0543 3.17082 10.0074L12.4745 4.44824C12.6395 4.34952 12.8284 4.29736 13.0209 4.29736C13.2134 4.29736 13.4022 4.34952 13.5672 4.44824H13.5662L22.8709 10.0074C22.9496 10.0543 23.0147 10.1207 23.0599 10.2001C23.1051 10.2796 23.1289 10.3693 23.1289 10.4606C23.1289 10.5519 23.1051 10.6417 23.0599 10.7211C23.0147 10.8006 22.9496 10.867 22.8709 10.9139L13.0209 16.7995L4.76778 11.8681V14.3506L13.0209 19.2822L21.5958 14.1583Z" fill="white"/>
</svg>
