<svg width="18" height="20" viewBox="0 0 18 20" fill="none" xmlns="http://www.w3.org/2000/svg">
<path fill-rule="evenodd" clip-rule="evenodd" d="M3 3.5C2.17157 3.5 1.5 4.17157 1.5 5V17C1.5 17.8284 2.17157 18.5 3 18.5H15C15.8284 18.5 16.5 17.8284 16.5 17V5C16.5 4.17157 15.8284 3.5 15 3.5H3ZM0.5 5C0.5 3.61929 1.61929 2.5 3 2.5H15C16.3807 2.5 17.5 3.61929 17.5 5V17C17.5 18.3807 16.3807 19.5 15 19.5H3C1.61929 19.5 0.5 18.3807 0.5 17V5Z" fill="black"/>
<path fill-rule="evenodd" clip-rule="evenodd" d="M5 0.5C5.27614 0.5 5.5 0.723858 5.5 1V5C5.5 5.27614 5.27614 5.5 5 5.5C4.72386 5.5 4.5 5.27614 4.5 5V1C4.5 0.723858 4.72386 0.5 5 0.5Z" fill="black"/>
<path fill-rule="evenodd" clip-rule="evenodd" d="M13 0.5C13.2761 0.5 13.5 0.723858 13.5 1V5C13.5 5.27614 13.2761 5.5 13 5.5C12.7239 5.5 12.5 5.27614 12.5 5V1C12.5 0.723858 12.7239 0.5 13 0.5Z" fill="black"/>
<path fill-rule="evenodd" clip-rule="evenodd" d="M0.5 9C0.5 8.72386 0.723858 8.5 1 8.5H17C17.2761 8.5 17.5 8.72386 17.5 9C17.5 9.27614 17.2761 9.5 17 9.5H1C0.723858 9.5 0.5 9.27614 0.5 9Z" fill="black"/>
</svg>
