<svg width="64" height="64" viewBox="0 0 64 64" xmlns="http://www.w3.org/2000/svg">
<g clip-path="url(#clip0_342_50057)">
<path d="M50.7414 8.38518H44.9514V5.79495C44.9514 4.95691 44.0373 4.57602 43.1992 4.57602H38.7044C37.6379 1.52863 34.9713 0.00493283 31.924 0.00493283C28.9101 -0.108371 26.1688 1.73963 25.1435 4.57602H20.7248C19.8868 4.57602 19.0487 4.95691 19.0487 5.79495V8.38518H13.2586C9.82739 8.42178 7.02032 11.1285 6.85904 14.5561V58.2098C6.85904 61.562 9.90643 63.9998 13.2586 63.9998H50.7414C54.0936 63.9998 57.141 61.562 57.141 58.2098V14.5562C56.9797 11.1285 54.1726 8.42178 50.7414 8.38518ZM22.096 7.62341H26.2862C27.0176 7.53416 27.6051 6.97771 27.7338 6.2521C28.1849 4.28729 29.9087 2.8769 31.924 2.82382C33.9206 2.88434 35.6184 4.2991 36.0379 6.2521C36.1745 7.00279 36.8008 7.56639 37.5616 7.62341H41.9042V13.7182H22.096V7.62341ZM54.0936 58.21C54.0936 59.886 52.4175 60.9526 50.7414 60.9526H13.2586C11.5825 60.9526 9.90643 59.886 9.90643 58.21V14.5562C10.0619 12.8116 11.5073 11.4647 13.2586 11.4327H19.0486V15.3181C19.1291 16.1718 19.8684 16.8103 20.7247 16.7657H43.1991C44.0711 16.8134 44.8336 16.1836 44.9513 15.3181V11.4326H50.7413C52.4925 11.4647 53.938 12.8115 54.0934 14.5561V58.21H54.0936Z" stroke="#F4F8FE" />
<path d="M41.0461 37.3354H23.5237C22.6822 37.3354 22 38.0176 22 38.8591C22 39.7007 22.6822 40.3828 23.5237 40.3828H41.0461C41.8877 40.3828 42.5698 39.7007 42.5698 38.8591C42.5698 38.0176 41.8877 37.3354 41.0461 37.3354Z" stroke="#F4F8FE" />
<path d="M41.0461 25.1458H23.5237C22.6822 25.1458 22 25.8279 22 26.6694C22 27.511 22.6822 28.1931 23.5237 28.1931H41.0461C41.8877 28.1931 42.5698 27.511 42.5698 26.6694C42.5698 25.8279 41.8877 25.1458 41.0461 25.1458Z" stroke="#F4F8FE"/>
<path d="M41.0461 49.5249H23.5237C22.6822 49.5249 22 50.2071 22 51.0486C22 51.8901 22.6822 52.5723 23.5237 52.5723H41.0461C41.8877 52.5723 42.5698 51.8901 42.5698 51.0486C42.5698 50.2071 41.8877 49.5249 41.0461 49.5249Z" stroke="#F4F8FE"/>
</g>
<defs>
<clipPath id="clip0_342_50057">
<rect width="64" height="64"/>
</clipPath>
</defs>
</svg>
