<svg width="64" height="71" viewBox="0 0 64 71" fill="none" xmlns="http://www.w3.org/2000/svg">
<g filter="url(#filter0_d_342_49960)">
<path fill-rule="evenodd" clip-rule="evenodd" d="M29.6 34.0796H20.6C19.7163 34.0796 19 33.3633 19 32.4796C19 31.596 19.7163 30.8796 20.6 30.8796H29.6H34.2H43.2C44.0836 30.8796 44.8 31.596 44.8 32.4796C44.8 33.3633 44.0836 34.0796 43.2 34.0796H34.2H29.6ZM34.2 42.2H43.2C44.0836 42.2 44.8 41.4837 44.8 40.6C44.8 39.7163 44.0836 39 43.2 39H34.2H29.6H20.6C19.7163 39 19 39.7163 19 40.6C19 41.4837 19.7163 42.2 20.6 42.2H29.6H34.2ZM34.2 50.2H43.2C44.0836 50.2 44.8 49.4837 44.8 48.6C44.8 47.7163 44.0836 47 43.2 47H34.2H29.6H20.6C19.7163 47 19 47.7163 19 48.6C19 49.4837 19.7163 50.2 20.6 50.2H29.6H34.2Z" fill="black"/>
<path d="M20.6 34.7296H29.6V33.4296H20.6V34.7296ZM18.35 32.4796C18.35 33.7223 19.3573 34.7296 20.6 34.7296V33.4296C20.0753 33.4296 19.65 33.0043 19.65 32.4796H18.35ZM20.6 30.2296C19.3573 30.2296 18.35 31.237 18.35 32.4796H19.65C19.65 31.9549 20.0753 31.5296 20.6 31.5296V30.2296ZM29.6 30.2296H20.6V31.5296H29.6V30.2296ZM34.2 30.2296H29.6V31.5296H34.2V30.2296ZM43.2 30.2296H34.2V31.5296H43.2V30.2296ZM45.45 32.4796C45.45 31.237 44.4426 30.2296 43.2 30.2296V31.5296C43.7247 31.5296 44.15 31.9549 44.15 32.4796H45.45ZM43.2 34.7296C44.4426 34.7296 45.45 33.7223 45.45 32.4796H44.15C44.15 33.0043 43.7247 33.4296 43.2 33.4296V34.7296ZM34.2 34.7296H43.2V33.4296H34.2V34.7296ZM29.6 34.7296H34.2V33.4296H29.6V34.7296ZM43.2 41.55H34.2V42.85H43.2V41.55ZM44.15 40.6C44.15 41.1247 43.7247 41.55 43.2 41.55V42.85C44.4426 42.85 45.45 41.8427 45.45 40.6H44.15ZM43.2 39.65C43.7247 39.65 44.15 40.0753 44.15 40.6H45.45C45.45 39.3573 44.4426 38.35 43.2 38.35V39.65ZM34.2 39.65H43.2V38.35H34.2V39.65ZM29.6 39.65H34.2V38.35H29.6V39.65ZM20.6 39.65H29.6V38.35H20.6V39.65ZM19.65 40.6C19.65 40.0753 20.0753 39.65 20.6 39.65V38.35C19.3573 38.35 18.35 39.3573 18.35 40.6H19.65ZM20.6 41.55C20.0753 41.55 19.65 41.1247 19.65 40.6H18.35C18.35 41.8427 19.3573 42.85 20.6 42.85V41.55ZM29.6 41.55H20.6V42.85H29.6V41.55ZM34.2 41.55H29.6V42.85H34.2V41.55ZM43.2 49.55H34.2V50.85H43.2V49.55ZM44.15 48.6C44.15 49.1247 43.7247 49.55 43.2 49.55V50.85C44.4426 50.85 45.45 49.8427 45.45 48.6H44.15ZM43.2 47.65C43.7247 47.65 44.15 48.0753 44.15 48.6H45.45C45.45 47.3573 44.4426 46.35 43.2 46.35V47.65ZM34.2 47.65H43.2V46.35H34.2V47.65ZM34.2 46.35H29.6V47.65H34.2V46.35ZM29.6 46.35H20.6V47.65H29.6V46.35ZM20.6 46.35C19.3573 46.35 18.35 47.3573 18.35 48.6H19.65C19.65 48.0753 20.0753 47.65 20.6 47.65V46.35ZM18.35 48.6C18.35 49.8427 19.3573 50.85 20.6 50.85V49.55C20.0753 49.55 19.65 49.1247 19.65 48.6H18.35ZM20.6 50.85H29.6V49.55H20.6V50.85ZM29.6 50.85H34.2V49.55H29.6V50.85Z" fill="#F0F7EF"/>
<path d="M54.2001 19.0397L37.0801 2.87983C36.8147 2.58292 36.4382 2.40912 36.04 2.39978H15.64C12.0515 2.44021 9.12801 5.29323 9 8.87973V55.2797C9.13 58.8398 12.0778 61.6455 15.64 61.5996H48.44C51.8421 61.6008 54.6009 58.8438 54.602 55.4417C54.602 55.3876 54.6014 55.3336 54.5999 55.2797V20.2398C54.6281 19.8029 54.4846 19.3723 54.2001 19.0397ZM37 7.43974L49.88 19.1997H38.8399C37.9243 19.2498 37.1236 18.5885 37 17.6797V7.43974ZM48.6044 58.3955C48.5498 58.3984 48.4949 58.3999 48.4401 58.3998H15.64C13.8435 58.4471 12.3277 57.0723 12.2 55.2798V8.87973C12.3239 7.06045 13.8169 5.637 15.64 5.59979H33.8V17.6798C33.9292 20.3563 36.1609 22.4461 38.8399 22.3998H51.3999V55.2798C51.4884 56.9121 50.2367 58.3071 48.6044 58.3955Z" fill="black" stroke="#F0F7EF" stroke-width="1.3"/>
</g>
<defs>
<filter id="filter0_d_342_49960" x="-4" y="0" width="72" height="72" filterUnits="userSpaceOnUse" color-interpolation-filters="sRGB">
<feFlood flood-opacity="0" result="BackgroundImageFix"/>
<feColorMatrix in="SourceAlpha" type="matrix" values="0 0 0 0 0 0 0 0 0 0 0 0 0 0 0 0 0 0 127 0" result="hardAlpha"/>
<feOffset dy="4"/>
<feGaussianBlur stdDeviation="2"/>
<feComposite in2="hardAlpha" operator="out"/>
<feColorMatrix type="matrix" values="0 0 0 0 0 0 0 0 0 0 0 0 0 0 0 0 0 0 0.25 0"/>
<feBlend mode="normal" in2="BackgroundImageFix" result="effect1_dropShadow_342_49960"/>
<feBlend mode="normal" in="SourceGraphic" in2="effect1_dropShadow_342_49960" result="shape"/>
</filter>
</defs>
</svg>
