<svg width="64" height="64" viewBox="0 0 64 64" xmlns="http://www.w3.org/2000/svg">
<g clip-path="url(#clip0_339_49911)">
<path d="M21.6 36.0796H35.2C36.0836 36.0796 36.8 35.3633 36.8 34.4796C36.8 33.596 36.0836 32.8796 35.2 32.8796H21.6C20.7163 32.8796 20 33.596 20 34.4796C20 35.3633 20.7163 36.0796 21.6 36.0796Z" stroke="#F0F7EF" stroke-width="1.3"/>
<path d="M21.6 49.2H35.2C36.0836 49.2 36.8 48.4837 36.8 47.6C36.8 46.7163 36.0836 46 35.2 46H21.6C20.7163 46 20 46.7163 20 47.6C20 48.4837 20.7163 49.2 21.6 49.2Z" stroke="#F0F7EF" stroke-width="1.3"/>
<path d="M14 45L9 50" stroke="black" stroke-width="0.3" stroke-linecap="round"/>
<path d="M9 45L14 50" stroke="black" stroke-width="1.3" stroke-linecap="round"/>
<path fill-rule="evenodd" clip-rule="evenodd" d="M15.2071 33.2071C15.5976 32.8166 15.5976 32.1834 15.2071 31.7929C14.8165 31.4024 14.1834 31.4024 13.7929 31.7929L11 34.5858L9.70711 33.2929C9.31658 32.9023 8.68342 32.9023 8.29289 33.2929C7.90237 33.6834 7.90237 34.3165 8.29289 34.7071L10.2834 36.6976C10.2866 36.7008 10.2897 36.704 10.2929 36.7072C10.6834 37.0977 11.3166 37.0977 11.7071 36.7072L15.2071 33.2071Z"/>
<path d="M45.2001 19.0397L28.0801 2.87983C27.8147 2.58292 27.4382 2.40912 27.04 2.39978H6.63996C3.05148 2.44021 0.128013 5.29323 0 8.87973V55.2797C0.130003 58.8398 3.07781 61.6455 6.63996 61.5996H39.44C42.8421 61.6008 45.6009 58.8438 45.602 55.4417C45.602 55.3876 45.6014 55.3336 45.5999 55.2797V20.2398C45.6281 19.8029 45.4846 19.3723 45.2001 19.0397ZM28 7.43974L40.88 19.1997H29.8399C28.9243 19.2498 28.1236 18.5885 28 17.6797V7.43974ZM39.6044 58.3955C39.5498 58.3984 39.4949 58.3999 39.4401 58.3998H6.63996C4.8435 58.4471 3.32771 57.0723 3.20001 55.2798V8.87973C3.32389 7.06045 4.81685 5.637 6.63996 5.59979H24.8V17.6798C24.9292 20.3563 27.1609 22.4461 29.8399 22.3998H42.3999V55.2798C42.4884 56.9121 41.2367 58.3071 39.6044 58.3955Z" stroke="#F0F7EF" stroke-width="1.3"/>
<path d="M62.72 8.07979V6.71973C62.6921 5.55766 62.2363 4.44659 61.44 3.59981C60.54 2.78641 59.3732 2.33101 58.1601 2.31983C55.6862 2.27527 53.6447 4.24462 53.6002 6.71835C53.6002 6.71881 53.6002 6.71927 53.6002 6.71973V7.9997H50.2402C49.842 8.00904 49.4655 8.18284 49.2001 8.47975C48.9042 8.73975 48.7547 9.12839 48.8002 9.51977V26.4798C48.8002 27.3634 49.5165 28.0798 50.4002 28.0798C51.2839 28.0798 52.0002 27.3634 52.0002 26.4798V11.1997H52.8001V51.9198C52.8001 52.1597 52.7202 52.3998 52.88 52.6398L56.8 60.7998C57.0582 61.3572 57.6263 61.7043 58.24 61.6798C58.8309 61.6935 59.3703 61.3445 59.6001 60.7998L63.76 52.6398C63.8753 52.413 63.9562 52.1703 64 51.9198V9.59971C63.9508 8.86807 63.4327 8.25266 62.72 8.07979ZM56.8 6.71973C56.8423 6.04429 57.4032 5.51846 58.08 5.51969C58.406 5.49274 58.7274 5.60957 58.96 5.83972C59.2032 6.06956 59.3468 6.3853 59.36 6.71973V7.9997H56.8V6.71973ZM58.16 56.5598L56.7999 53.5997H59.5999L58.16 56.5598ZM60.8 50.3997H56V31.1998H60.8V50.3997ZM60.8 27.9998H56V27.1999H60.8V27.9998ZM60.8 23.9997H56V11.1997H60.8V23.9997Z" stroke="#F0F7EF" stroke-width="1.3"/>
</g>
<defs>
<clipPath id="clip0_339_49911">
<rect width="64" height="64"/>
</clipPath>
</defs>
</svg>
