<svg width="64" height="64" viewBox="0 0 64 64" fill="none" xmlns="http://www.w3.org/2000/svg">
<path d="M44.2746 7.18145L44.3332 7.24003H44.416H52.608C54.6735 7.24003 56.248 8.81449 56.248 10.88V58.88C56.248 60.9456 54.6735 62.52 52.608 62.52H20.48C18.4145 62.52 16.84 60.9456 16.84 58.88V54.528V54.328H16.64H11.392C9.32646 54.328 7.752 52.7536 7.752 50.688V5.12003C7.752 3.05449 9.32646 1.48003 11.392 1.48003H38.144C38.3505 1.48003 38.6825 1.58941 38.8986 1.80545L39.0391 1.66493L38.8986 1.80545L44.2746 7.18145ZM19.2 54.328H19V54.528V58.88C19 59.3095 19.144 59.6829 19.4106 59.9494C19.6771 60.216 20.0506 60.36 20.48 60.36H52.608C53.0374 60.36 53.4109 60.216 53.6774 59.9494C53.944 59.6829 54.088 59.3095 54.088 58.88V10.88C54.088 10.4506 53.944 10.0772 53.6774 9.81061C53.4109 9.54405 53.0374 9.40003 52.608 9.40003H46.976H46.4932L46.8346 9.74145L49.3946 12.3015L49.536 12.16L49.3946 12.3015C49.4612 12.3681 49.5142 12.4216 49.552 12.472C49.5914 12.5245 49.592 12.5453 49.592 12.544V12.672V12.7549L49.6506 12.8135C49.6884 12.8513 49.7026 12.8829 49.71 12.9125C49.719 12.9488 49.72 12.9883 49.72 13.056V50.688C49.72 52.7536 48.1455 54.328 46.08 54.328H19.2ZM39.5654 5.49061L39.224 5.14919V5.63203V11.776V11.976H39.424H45.568H46.0508L45.7094 11.6346L39.5654 5.49061ZM37.064 3.84003V3.64003H36.864H11.392C10.9626 3.64003 10.5891 3.78405 10.3226 4.05061C10.056 4.31716 9.912 4.69058 9.912 5.12003V50.688C9.912 51.0731 10.1025 51.4414 10.3706 51.7094C10.6386 51.9775 11.007 52.168 11.392 52.168H46.08C46.5095 52.168 46.8829 52.024 47.1494 51.7574C47.416 51.4909 47.56 51.1175 47.56 50.688V14.336V14.136H47.36H38.144C37.8055 14.136 37.5389 14.0241 37.3574 13.8426C37.176 13.6612 37.064 13.3946 37.064 13.056V3.84003Z" fill="black" stroke="#F0F7EF" stroke-width="0.4"/>
<path d="M26.24 19.256H15.36C14.8173 19.256 14.28 18.8208 14.28 18.176C14.28 17.8374 14.392 17.5709 14.5734 17.3894C14.7549 17.208 15.0215 17.096 15.36 17.096H26.24C26.5786 17.096 26.8452 17.208 27.0266 17.3894C27.208 17.5709 27.32 17.8374 27.32 18.176C27.32 18.5145 27.208 18.7811 27.0266 18.9626C26.8452 19.144 26.5786 19.256 26.24 19.256Z" fill="black" stroke="#F0F7EF" stroke-width="0.4"/>
<path d="M42.112 23.24C42.4506 23.24 42.7172 23.352 42.8986 23.5335C43.08 23.7149 43.192 23.9815 43.192 24.32C43.192 24.8628 42.7568 25.4 42.112 25.4H15.36C15.0215 25.4 14.7549 25.2881 14.5734 25.1066C14.392 24.9252 14.28 24.6586 14.28 24.32C14.28 23.9815 14.392 23.7149 14.5734 23.5335C14.7549 23.352 15.0215 23.24 15.36 23.24H42.112Z" fill="black" stroke="#F0F7EF" stroke-width="0.4"/>
<path d="M36.6206 32.1423L36.6215 32.1414C37.0301 31.7327 37.6689 31.8077 38.1306 32.2694C38.5644 32.7032 38.5645 33.3444 38.1309 33.7783C38.1308 33.7784 38.1307 33.7785 38.1306 33.7786L26.6114 45.1698L26.6106 45.1706C26.4944 45.2868 26.3862 45.366 26.2708 45.4172C26.1563 45.4681 26.0247 45.496 25.856 45.496C25.6498 45.496 25.3183 45.3869 25.1022 45.1714C25.102 45.1711 25.1017 45.1709 25.1015 45.1706L19.471 39.4122L19.471 39.4122L19.4695 39.4106C19.0356 38.9767 19.0356 38.3353 19.4695 37.9014C19.9033 37.4675 20.5447 37.4675 20.9786 37.9014L25.7146 42.6374L25.8552 42.778L25.9966 42.6383L36.6206 32.1423Z" fill="black" stroke="#F0F7EF" stroke-width="0.4"/>
</svg>
