<svg width="18" height="18" viewBox="0 0 18 18" fill="none" xmlns="http://www.w3.org/2000/svg">
<path fill-rule="evenodd" clip-rule="evenodd" d="M0.5 17C0.5 16.7239 0.723858 16.5 1 16.5H17C17.2761 16.5 17.5 16.7239 17.5 17C17.5 17.2761 17.2761 17.5 17 17.5H1C0.723858 17.5 0.5 17.2761 0.5 17Z" fill="black"/>
<path fill-rule="evenodd" clip-rule="evenodd" d="M14.0606 1.76776C13.4749 1.18199 12.5251 1.18199 11.9394 1.76776L3.78893 9.91822L3.63741 12.191L5.91024 12.0395L14.0606 3.8891C14.6465 3.30331 14.6465 2.35355 14.0606 1.76776ZM14.7677 1.06065C13.7915 0.0843517 12.2085 0.084356 11.2322 1.06067C11.2322 1.06066 11.2322 1.06067 11.2322 1.06067L2.81614 9.4768L2.5636 13.2648L6.35166 13.0123L14.7677 4.59621C15.7441 3.6199 15.7441 2.03697 14.7677 1.06065Z" fill="black"/>
</svg>
