<svg width="64" height="64" viewBox="0 0 64 64" fill="none" xmlns="http://www.w3.org/2000/svg">
<path d="M62.471 24.118L32.471 8.11799C32.176 7.96099 31.825 7.96099 31.53 8.11799L1.53 24.118C1.203 24.292 1 24.631 1 25C1 25.369 1.203 25.708 1.529 25.882L10 30.4V43H12V31.467L15 33.067V39.142C13.279 39.589 12 41.141 12 43C12 43.914 12.32 44.747 12.838 45.422C12.292 47.289 12 49.214 12 51.162V54C12 54.379 12.214 54.725 12.553 54.895L13.658 55.448C14.382 55.809 15.191 56 16 56C16.809 56 17.618 55.809 18.342 55.447L19.447 54.894C19.786 54.725 20 54.379 20 54V51.162C20 49.214 19.708 47.289 19.162 45.422C19.68 44.747 20 43.914 20 43C20 41.141 18.721 39.589 17 39.142V34.134L31.529 41.883C31.677 41.961 31.838 42 32 42C32.162 42 32.323 41.961 32.471 41.883L52 31.467V42.506C46.438 46.697 39.568 49 32.599 49H31.402C27.969 49 24.575 48.455 21.313 47.38L20.688 49.28C24.15 50.421 27.756 51 31.401 51H32.598C40.172 51 47.635 48.439 53.614 43.789C53.857 43.6 54 43.309 54 43V30.4L62.471 25.882C62.797 25.708 63 25.369 63 25C63 24.631 62.797 24.292 62.471 24.118ZM18 53.382L17.447 53.658C16.552 54.105 15.447 54.105 14.552 53.658L14 53.382V51.162C14 49.659 14.183 48.17 14.544 46.716C14.996 46.894 15.485 47 16 47C16.515 47 17.004 46.894 17.456 46.716C17.817 48.17 18 49.659 18 51.162V53.382ZM18 43C18 44.103 17.103 45 16 45C14.897 45 14 44.103 14 43C14 41.897 14.897 41 16 41C17.103 41 18 41.897 18 43ZM32 39.866L17.688 32.233L30.077 25.626C30.646 25.858 31.294 26 32 26C34.243 26 36 24.682 36 23C36 21.318 34.243 20 32 20C29.757 20 28 21.318 28 23C28 23.457 28.139 23.883 28.373 24.268L15.563 31.1L4.125 25L32 10.133L59.875 25L32 39.866ZM30 23C30 22.592 30.779 22 32 22C33.221 22 34 22.592 34 23C34 23.408 33.221 24 32 24C30.779 24 30 23.408 30 23Z" fill="black" stroke="#F0F7EF" stroke-width="0.3"/>
</svg>
