<svg width="64" height="64" viewBox="0 0 64 64" fill="none" xmlns="http://www.w3.org/2000/svg">
<path d="M14.4546 61.1819L49.3636 61.1819C52.1177 61.1819 54.3506 58.9492 54.3506 56.1949L54.3506 7.98717C54.3506 5.23299 52.1179 3.00016 49.3636 3.00016L25.2597 3.00016C24.6087 3.01097 24.0239 3.40074 23.7636 3.99749L10.2987 17.4625C9.77971 17.7415 9.4593 18.2862 9.46757 18.8755L9.46757 56.1949C9.46757 58.949 11.7002 61.1819 14.4546 61.1819ZM23.5974 8.81826L23.5974 15.4676C23.5974 16.3857 22.8532 17.13 21.935 17.13L15.2026 17.13L23.5974 8.81826ZM12.7923 20.4546L21.935 20.4546C24.6892 20.4546 26.9221 18.222 26.9221 15.4676L26.9221 6.32484L49.3636 6.32484C50.2817 6.32484 51.0259 7.06906 51.0259 7.98717L51.0259 56.1949C51.0259 57.113 50.2817 57.8572 49.3636 57.8572L14.4544 57.8572C13.5363 57.8572 12.7921 57.113 12.7921 56.1949L12.7921 20.4546L12.7923 20.4546Z" fill="black" stroke="#F0F7EF" stroke-width="1.6"/>
<g clip-path="url(#clip0_339_49924)">
<path d="M32 39C33.6569 39 35 37.6569 35 36C35 34.3431 33.6569 33 32 33C30.3431 33 29 34.3431 29 36C29 37.6569 30.3431 39 32 39Z" stroke="#0C0310" stroke-width="1.5" stroke-linecap="round"/>
<path fill-rule="evenodd" clip-rule="evenodd" d="M30.069 27.3628C30.7151 25.5457 33.2849 25.5457 33.931 27.3628C34.338 28.5071 35.6451 29.0485 36.742 28.5271C38.4837 27.6992 40.3008 29.5163 39.4729 31.258C38.9515 32.3549 39.4929 33.662 40.6372 34.069C42.4543 34.7151 42.4543 37.2849 40.6372 37.931C39.4929 38.338 38.9515 39.6451 39.4729 40.742C40.3008 42.4837 38.4837 44.3008 36.742 43.4729C35.6451 42.9515 34.338 43.4929 33.931 44.6372C33.2849 46.4543 30.7151 46.4543 30.069 44.6372C29.662 43.4929 28.3549 42.9515 27.258 43.4729C25.5163 44.3008 23.6992 42.4837 24.5271 40.742C25.0485 39.6451 24.5071 38.338 23.3628 37.931C21.5457 37.2849 21.5457 34.7151 23.3628 34.069C24.5071 33.662 25.0485 32.3549 24.5271 31.258C23.6992 29.5163 25.5163 27.6992 27.258 28.5271C28.3549 29.0485 29.662 28.5071 30.069 27.3628Z" stroke="#0C0310" stroke-width="1.5" stroke-linecap="round"/>
</g>
<defs>
<clipPath id="clip0_339_49924">
<rect width="24" height="24" fill="white" transform="translate(20 24)"/>
</clipPath>
</defs>
</svg>
