<svg width="18" height="20" viewBox="0 0 18 20" fill="none" xmlns="http://www.w3.org/2000/svg">
<path fill-rule="evenodd" clip-rule="evenodd" d="M3 1.5C2.17157 1.5 1.5 2.17157 1.5 3V17C1.5 17.8285 2.17157 18.5 3 18.5H15C15.8285 18.5 16.5 17.8285 16.5 17V5.82843C16.5 5.43059 16.342 5.04908 16.0607 4.76777L16.0606 4.76776L13.2323 1.93935C12.9509 1.65803 12.5694 1.5 12.1716 1.5H3ZM0.5 3C0.5 1.61929 1.61929 0.5 3 0.5H12.1716C12.8346 0.5 13.4705 0.763393 13.9393 1.23223L13.9394 1.23224L16.7677 4.06065C17.2366 4.5295 17.5 5.16539 17.5 5.82843V17C17.5 18.3807 16.3807 19.5 15 19.5H3C1.61929 19.5 0.5 18.3807 0.5 17V3Z" fill="black"/>
<path fill-rule="evenodd" clip-rule="evenodd" d="M12 1C12.2761 1 12.5 1.22386 12.5 1.5V4C12.5 4.82843 13.1715 5.5 14 5.5H16.5C16.7761 5.5 17 5.72386 17 6C17 6.27614 16.7761 6.5 16.5 6.5H14C12.6193 6.5 11.5 5.38071 11.5 4V1.5C11.5 1.22386 11.7239 1 12 1Z" fill="black"/>
</svg>
