<svg width="20" height="18" viewBox="0 0 20 18" fill="none" xmlns="http://www.w3.org/2000/svg">
<path fill-rule="evenodd" clip-rule="evenodd" d="M3.27642 1.32906C3.5305 0.820878 4.0499 0.499878 4.61805 0.499878H15.382C15.9501 0.499878 16.4695 0.820879 16.7236 1.32906L16.2764 1.55267L16.7236 1.32906L19.1424 6.16667C19.4183 6.71836 19.3283 7.38255 18.9158 7.84093L18.9158 7.84096L10.7433 16.9215L10.7432 16.9215C10.346 17.3627 9.65404 17.3627 9.25682 16.9215L9.25677 16.9215L1.08431 7.84097C1.08431 7.84097 1.08431 7.84096 1.0843 7.84096C0.671716 7.38254 0.581802 6.71834 0.857597 6.16669L0.857606 6.16667L3.27641 1.32907C3.27641 1.32906 3.27642 1.32906 3.27642 1.32906ZM4.61805 1.49988C4.42867 1.49988 4.25554 1.60688 4.17085 1.77627L4.17084 1.77628L1.75204 6.61387C1.75204 6.61387 1.75204 6.61388 1.75203 6.61388C1.66008 6.79783 1.69009 7.01921 1.82759 7.17199L1.8276 7.172L10 16.2524L18.1724 7.17202C18.1725 7.17201 18.1725 7.172 18.1725 7.17199C18.31 7.01918 18.34 6.79778 18.248 6.61388L15.8292 1.77628C15.7445 1.60688 15.5713 1.49988 15.382 1.49988H4.61805Z" fill="black"/>
<path fill-rule="evenodd" clip-rule="evenodd" d="M6.72365 4.05265C6.97064 4.17615 7.07075 4.47648 6.94726 4.72347L6.08546 6.44707L7.40004 8.19987C7.56573 8.42078 7.52096 8.73418 7.30004 8.89987C7.07913 9.06555 6.76573 9.02078 6.60004 8.79986L5.28546 7.04707C5.28546 7.04707 5.28546 7.04707 5.28545 7.04706C5.05819 6.74405 5.02164 6.33864 5.19103 5.99986L6.05283 4.27626C6.17633 4.02927 6.47666 3.92916 6.72365 4.05265Z" fill="black"/>
</svg>
