<svg width="128" height="40" viewBox="0 0 128 40" fill="none" xmlns="http://www.w3.org/2000/svg">
<g clip-path="url(#clip0_233_4455)">
<path d="M121.831 0.769226H6.16871C3.1877 0.769226 0.771118 3.18 0.771118 6.15384V33.8461C0.771118 36.82 3.1877 39.2308 6.16871 39.2308H121.831C124.812 39.2308 127.229 36.82 127.229 33.8461V6.15384C127.229 3.18 124.812 0.769226 121.831 0.769226Z" fill="black"/>
<path d="M45.4015 10.9539C45.4015 11.6923 45.2165 12.3385 44.7538 12.8C44.1986 13.3539 43.5509 13.6308 42.7182 13.6308C41.8854 13.6308 41.2377 13.3539 40.6825 12.8C40.1273 12.2462 39.8497 11.6 39.8497 10.7693C39.8497 9.93848 40.1273 9.29233 40.6825 8.73848C41.2377 8.18464 41.8854 7.90771 42.7182 7.90771C43.0883 7.90771 43.4584 8.00002 43.8285 8.18464C44.1986 8.36925 44.4762 8.55387 44.6613 8.83079L44.1986 9.29233C43.8285 8.83079 43.3659 8.64618 42.7182 8.64618C42.163 8.64618 41.6078 8.83079 41.2377 9.29233C40.775 9.66156 40.59 10.2154 40.59 10.8616C40.59 11.5077 40.775 12.0616 41.2377 12.4308C41.7003 12.8 42.163 13.0769 42.7182 13.0769C43.3659 13.0769 43.8285 12.8923 44.2912 12.4308C44.5688 12.1539 44.7538 11.7846 44.7538 11.3231H42.7182V10.6769H45.4015C45.4015 10.6769 45.4015 10.8616 45.4015 10.9539Z" fill="white" stroke="white" stroke-width="0.5"/>
<path d="M49.658 8.64621H47.1597V10.4001H49.4729V11.0462H47.1597V12.8001H49.658V13.5385H46.4194V8.00006H49.658V8.64621Z" fill="white" stroke="white" stroke-width="0.5"/>
<path d="M52.7117 13.5385H51.9715V8.64621H50.3984V8.00006H54.2847V8.64621H52.7117V13.5385Z" fill="white" stroke="white" stroke-width="0.5"/>
<path d="M56.968 13.5385V8.00006H57.7083V13.5385H56.968Z" fill="white" stroke="white" stroke-width="0.5"/>
<path d="M60.8543 13.5385H60.114V8.64621H58.541V8.00006H62.3347V8.64621H60.7617V13.5385H60.8543Z" fill="white" stroke="white" stroke-width="0.5"/>
<path d="M69.6443 12.8C69.0892 13.3539 68.4414 13.6308 67.6087 13.6308C66.7759 13.6308 66.1282 13.3539 65.573 12.8C65.0178 12.2462 64.7402 11.6 64.7402 10.7693C64.7402 9.93848 65.0178 9.29233 65.573 8.73848C66.1282 8.18464 66.7759 7.90771 67.6087 7.90771C68.4414 7.90771 69.0892 8.18464 69.6443 8.73848C70.1995 9.29233 70.4771 9.93848 70.4771 10.7693C70.4771 11.6 70.1995 12.2462 69.6443 12.8ZM66.1282 12.3385C66.4983 12.7077 67.0535 12.9846 67.6087 12.9846C68.1638 12.9846 68.719 12.8 69.0891 12.3385C69.4593 11.9693 69.7369 11.4154 69.7369 10.7693C69.7369 10.1231 69.5518 9.56925 69.0891 9.20002C68.719 8.83079 68.1638 8.55387 67.6087 8.55387C67.0535 8.55387 66.4983 8.73848 66.1282 9.20002C65.7581 9.56925 65.4805 10.1231 65.4805 10.7693C65.4805 11.4154 65.6655 11.9693 66.1282 12.3385Z" fill="white" stroke="white" stroke-width="0.5"/>
<path d="M71.4951 13.5385V8.00006H72.3279L75.0113 12.3385V11.2308V8.00006H75.7515V13.5385H75.0113L72.1428 9.01545V10.1231V13.5385H71.4951Z" fill="white" stroke="white" stroke-width="0.5"/>
<path d="M64.555 21.6615C62.3343 21.6615 60.5762 23.3231 60.5762 25.6308C60.5762 27.8461 62.3343 29.6 64.555 29.6C66.7758 29.6 68.5338 27.9384 68.5338 25.6308C68.5338 23.2308 66.7758 21.6615 64.555 21.6615ZM64.555 27.9384C63.3521 27.9384 62.3343 26.9231 62.3343 25.5384C62.3343 24.1538 63.3521 23.1384 64.555 23.1384C65.7579 23.1384 66.7758 24.0615 66.7758 25.5384C66.7758 26.9231 65.7579 27.9384 64.555 27.9384ZM55.9497 21.6615C53.729 21.6615 51.9709 23.3231 51.9709 25.6308C51.9709 27.8461 53.729 29.6 55.9497 29.6C58.1705 29.6 59.9285 27.9384 59.9285 25.6308C59.9285 23.2308 58.1705 21.6615 55.9497 21.6615ZM55.9497 27.9384C54.7468 27.9384 53.729 26.9231 53.729 25.5384C53.729 24.1538 54.7468 23.1384 55.9497 23.1384C57.1526 23.1384 58.1705 24.0615 58.1705 25.5384C58.1705 26.9231 57.1526 27.9384 55.9497 27.9384ZM45.6789 22.8615V24.5231H49.6577C49.5652 25.4461 49.195 26.1846 48.7324 26.6461C48.1772 27.2 47.2519 27.8461 45.6789 27.8461C43.1806 27.8461 41.33 25.9077 41.33 23.4154C41.33 20.9231 43.2731 18.9846 45.6789 18.9846C46.9743 18.9846 47.9921 19.5384 48.7324 20.1846L49.9353 18.9846C48.9174 18.0615 47.622 17.3231 45.7714 17.3231C42.4403 17.3231 39.5719 20.0923 39.5719 23.4154C39.5719 26.7384 42.4403 29.5077 45.7714 29.5077C47.622 29.5077 48.9174 28.9538 50.0278 27.7538C51.1382 26.6461 51.5083 25.0769 51.5083 23.8769C51.5083 23.5077 51.5083 23.1384 51.4158 22.8615H45.6789ZM87.6877 24.1538C87.3176 23.2308 86.3923 21.6615 84.3566 21.6615C82.321 21.6615 80.6554 23.2308 80.6554 25.6308C80.6554 27.8461 82.321 29.6 84.5417 29.6C86.2998 29.6 87.4101 28.4923 87.7802 27.8461L86.4848 26.9231C86.0222 27.5692 85.467 28.0308 84.5417 28.0308C83.6164 28.0308 83.0612 27.6615 82.5986 26.8308L87.8728 24.6154L87.6877 24.1538ZM82.321 25.4461C82.321 23.9692 83.5239 23.1384 84.3566 23.1384C85.0043 23.1384 85.6521 23.5077 85.8371 23.9692L82.321 25.4461ZM77.9721 29.2308H79.7301V17.6923H77.9721V29.2308ZM75.196 22.4923C74.7333 22.0308 73.9931 21.5692 73.0678 21.5692C71.1247 21.5692 69.2741 23.3231 69.2741 25.5384C69.2741 27.7538 71.0321 29.4154 73.0678 29.4154C73.9931 29.4154 74.7333 28.9538 75.1035 28.4923H75.196V29.0461C75.196 30.5231 74.3632 31.3538 73.0678 31.3538C72.05 31.3538 71.3097 30.6154 71.1247 29.9692L69.6442 30.6154C70.1068 31.6308 71.2172 32.9231 73.1603 32.9231C75.196 32.9231 76.8615 31.7231 76.8615 28.8615V21.8461H75.196V22.4923ZM73.1603 27.9384C71.9574 27.9384 70.9396 26.9231 70.9396 25.5384C70.9396 24.1538 71.9574 23.1384 73.1603 23.1384C74.3632 23.1384 75.2885 24.1538 75.2885 25.5384C75.2885 26.9231 74.3632 27.9384 73.1603 27.9384ZM95.7378 17.6923H91.574V29.2308H93.3321V24.8923H95.7378C97.681 24.8923 99.5316 23.5077 99.5316 21.2923C99.5316 19.0769 97.681 17.6923 95.7378 17.6923ZM95.8304 23.2308H93.3321V19.2615H95.8304C97.1258 19.2615 97.866 20.3692 97.866 21.2C97.7735 22.2154 97.0333 23.2308 95.8304 23.2308ZM106.471 21.5692C105.176 21.5692 103.88 22.1231 103.418 23.3231L104.991 23.9692C105.361 23.3231 105.916 23.1384 106.564 23.1384C107.489 23.1384 108.322 23.6923 108.414 24.6154V24.7077C108.137 24.5231 107.397 24.2461 106.656 24.2461C104.991 24.2461 103.325 25.1692 103.325 26.8308C103.325 28.4 104.713 29.4154 106.194 29.4154C107.397 29.4154 107.952 28.8615 108.414 28.3077H108.507V29.2308H110.173V24.8C109.987 22.7692 108.414 21.5692 106.471 21.5692ZM106.286 27.9384C105.731 27.9384 104.898 27.6615 104.898 26.9231C104.898 26 105.916 25.7231 106.749 25.7231C107.489 25.7231 107.859 25.9077 108.322 26.0923C108.137 27.2 107.212 27.9384 106.286 27.9384ZM116.002 21.8461L114.059 26.8308H113.966L111.931 21.8461H110.08L113.134 28.8615L111.375 32.7384H113.134L117.853 21.8461H116.002ZM100.457 29.2308H102.215V17.6923H100.457V29.2308Z" fill="white"/>
<path d="M11.1652 8.46155C10.8876 8.73847 10.7025 9.20001 10.7025 9.75386V30.1539C10.7025 30.7077 10.8876 31.1692 11.1652 31.4462L11.2577 31.5385L22.7314 20.0923V20V19.9077L11.1652 8.46155Z" fill="url(#paint0_linear_233_4455)"/>
<path d="M26.5253 23.9693L22.7316 20.1846V20V19.9077L26.5253 16.1231L26.6178 16.2154L31.1518 18.8C32.4472 19.5385 32.4472 20.7385 31.1518 21.477L26.5253 23.9693Z" fill="url(#paint1_linear_233_4455)"/>
<path d="M26.6178 23.8769L22.7315 20L11.1653 31.5385C11.6279 32 12.2756 32 13.1084 31.6308L26.6178 23.8769Z" fill="url(#paint2_linear_233_4455)"/>
<path d="M26.6178 16.123L13.1084 8.46146C12.2756 7.99992 11.6279 8.09223 11.1653 8.55377L22.7315 19.9999L26.6178 16.123Z" fill="url(#paint3_linear_233_4455)"/>
<path opacity="0.2" d="M26.5253 23.7845L13.1084 31.3538C12.3682 31.8153 11.7205 31.723 11.2578 31.3538L11.1653 31.4461L11.2578 31.5384C11.7205 31.9076 12.3682 31.9999 13.1084 31.5384L26.5253 23.7845Z" fill="black"/>
<path opacity="0.12" d="M11.1653 31.3539C10.8877 31.077 10.7952 30.6154 10.7952 30.0616V30.1539C10.7952 30.7077 10.9802 31.1693 11.2578 31.4462V31.3539H11.1653Z" fill="black"/>
<path opacity="0.12" d="M31.1518 21.2L26.5253 23.7846L26.6178 23.8769L31.1518 21.2923C31.7995 20.9231 32.0771 20.4615 32.0771 20C32.0771 20.4615 31.707 20.8308 31.1518 21.2Z" fill="black"/>
<path opacity="0.25" d="M13.1084 8.55386L31.1518 18.8C31.707 19.1692 32.0771 19.5385 32.0771 20C32.0771 19.5385 31.7995 19.0769 31.1518 18.7077L13.1084 8.46155C11.813 7.72309 10.7952 8.36925 10.7952 9.84617V9.93848C10.7952 8.46155 11.813 7.8154 13.1084 8.55386Z" fill="white"/>
</g>
<defs>
<linearGradient id="paint0_linear_233_4455" x1="18.068" y1="9.57816" x2="8.22786" y2="19.4421" gradientUnits="userSpaceOnUse">
<stop stop-color="#00A0FF"/>
<stop offset="0.00657445" stop-color="#00A1FF"/>
<stop offset="0.2601" stop-color="#00BEFF"/>
<stop offset="0.5122" stop-color="#00D2FF"/>
<stop offset="0.7604" stop-color="#00DFFF"/>
<stop offset="1" stop-color="#00E3FF"/>
</linearGradient>
<linearGradient id="paint1_linear_233_4455" x1="32.8492" y1="20.0013" x2="10.4598" y2="20.0013" gradientUnits="userSpaceOnUse">
<stop stop-color="#FFE000"/>
<stop offset="0.4087" stop-color="#FFBD00"/>
<stop offset="0.7754" stop-color="#FFA500"/>
<stop offset="1" stop-color="#FF9C00"/>
</linearGradient>
<linearGradient id="paint2_linear_233_4455" x1="24.5146" y1="23.6678" x2="7.75443" y2="40.4684" gradientUnits="userSpaceOnUse">
<stop stop-color="#FF3A44"/>
<stop offset="1" stop-color="#C31162"/>
</linearGradient>
<linearGradient id="paint3_linear_233_4455" x1="8.2943" y1="6.77464" x2="15.7527" y2="14.2509" gradientUnits="userSpaceOnUse">
<stop stop-color="#32A071"/>
<stop offset="0.0685" stop-color="#2DA771"/>
<stop offset="0.4762" stop-color="#15CF74"/>
<stop offset="0.8009" stop-color="#06E775"/>
<stop offset="1" stop-color="#00F076"/>
</linearGradient>
<clipPath id="clip0_233_4455">
<rect width="128" height="40" fill="white"/>
</clipPath>
</defs>
</svg>
