<svg width="64" height="64" viewBox="0 0 64 64" fill="none" xmlns="http://www.w3.org/2000/svg">
<mask id="path-1-inside-1_342_50068" fill="white">
<path fill-rule="evenodd" clip-rule="evenodd" d="M32 61.3334C22.7227 61.3334 14.272 56.6427 9.37333 48.7867C9.344 48.7494 9.31733 48.712 9.296 48.6774C8.69067 47.704 8.13067 46.6374 7.584 45.4267C7.18814 44.5186 6.84419 43.5977 6.55239 42.6656C2.93017 42.6044 0 39.6391 0 35.9999C0 33.0377 1.92811 30.4945 4.65303 29.6365C4.32423 26.8845 4 23.5872 4 21.3334C4 8.46137 15.4427 6.88537 18.1147 6.69337C19.5413 5.42137 24.704 1.33337 32 1.33337C43.6267 1.33337 60 7.53871 60 21.3334C60 23.5504 59.6744 26.8558 59.3432 29.6456C62.0393 30.5215 63.9467 33.0619 63.9467 35.9974C63.9467 39.619 61.0488 42.5718 57.4542 42.6645C57.1638 43.5969 56.8211 44.5222 56.4267 45.4347C55.832 46.744 55.1813 47.9414 54.48 49.0214C54.4293 49.0987 54.3707 49.1734 54.304 49.2374C49.5573 56.736 41.1627 61.3334 32 61.3334ZM5.33333 34.6667C5.33333 36.4425 5.5058 38.1952 5.84929 39.916C4.03451 39.5376 2.66667 37.9253 2.66667 35.9999C2.66667 34.423 3.6253 33.0081 5.00057 32.3637C5.18303 33.713 5.3207 34.6136 5.33333 34.6667ZM58.158 39.9029C59.9425 39.5016 61.28 37.9039 61.28 36C61.28 34.4134 60.3581 33.0235 58.9994 32.3749C58.8275 33.6688 58.693 34.59 58.6596 34.8183L58.6596 34.8184L58.6596 34.8185L58.6533 34.8614C58.6597 36.5261 58.4935 38.2173 58.158 39.9029ZM11.5093 47.1894C11.5387 47.2267 11.5653 47.2614 11.5867 47.2987C15.9893 54.416 23.6187 58.6667 32 58.6667C40.2453 58.6667 47.8 54.5307 52.208 47.6054C52.2613 47.5254 52.32 47.4454 52.3893 47.3787C52.8693 46.6027 53.456 45.5227 53.9867 44.3547C54.5924 42.9543 55.0632 41.5155 55.3968 40.0493L52.328 29.328C33.0373 29.168 25.224 24.3627 22.1147 21.0054C20.1013 26.1787 13.9387 28.4347 11.7413 29.088L8.60662 40.044C8.94268 41.5217 9.41523 42.9528 10.024 44.3467C10.496 45.4027 10.9867 46.3387 11.5093 47.1894ZM54.6133 27.632L56.2025 33.1842C56.5757 30.4347 57.3333 24.5497 57.3333 21.3334C57.3333 9.37871 42.52 4.00004 32 4.00004C24.6373 4.00004 19.6587 8.89337 19.6107 8.94404C19.36 9.19204 19.0213 9.33071 18.6693 9.33337C18.1787 9.33604 6.66667 9.52004 6.66667 21.3334C6.66667 24.6383 7.43711 30.5611 7.80083 33.1726L9.38667 27.632C9.51733 27.168 9.89333 26.8107 10.3627 26.7014C10.4613 26.6774 20.0933 24.3254 20.0933 17.4907C20.0933 16.816 20.5973 16.248 21.2667 16.168C21.9387 16.0694 22.56 16.5174 22.7227 17.1734C22.744 17.2454 25.7573 26.6667 53.3333 26.6667C53.928 26.6667 54.4507 27.0587 54.6133 27.632ZM17.3333 36C17.3333 38.2053 19.128 40 21.3333 40C23.5387 40 25.3333 38.2053 25.3333 36C25.3333 33.7947 23.5387 32 21.3333 32C19.128 32 17.3333 33.7947 17.3333 36ZM20 36C20 35.2667 20.5973 34.6667 21.3333 34.6667C22.0693 34.6667 22.6667 35.2667 22.6667 36C22.6667 36.7333 22.0693 37.3333 21.3333 37.3333C20.5973 37.3333 20 36.7333 20 36ZM42.6667 40C40.4613 40 38.6667 38.2053 38.6667 36C38.6667 33.7947 40.4613 32 42.6667 32C44.872 32 46.6667 33.7947 46.6667 36C46.6667 38.2053 44.872 40 42.6667 40ZM42.6667 34.6667C41.9307 34.6667 41.3333 35.2667 41.3333 36C41.3333 36.7333 41.9307 37.3333 42.6667 37.3333C43.4027 37.3333 44 36.7333 44 36C44 35.2667 43.4027 34.6667 42.6667 34.6667ZM24.456 47.608C26.536 49.688 29.2693 50.728 32 50.728C34.7307 50.728 37.464 49.6906 39.5413 47.608C40.0613 47.088 40.0613 46.2426 39.5413 45.7226C39.0213 45.2026 38.176 45.2026 37.656 45.7226C34.536 48.8426 29.4613 48.8426 26.3413 45.7226C25.8213 45.2026 24.976 45.2026 24.456 45.7226C23.936 46.2426 23.936 47.088 24.456 47.608Z"/>
</mask>
<path fill-rule="evenodd" clip-rule="evenodd" d="M32 61.3334C22.7227 61.3334 14.272 56.6427 9.37333 48.7867C9.344 48.7494 9.31733 48.712 9.296 48.6774C8.69067 47.704 8.13067 46.6374 7.584 45.4267C7.18814 44.5186 6.84419 43.5977 6.55239 42.6656C2.93017 42.6044 0 39.6391 0 35.9999C0 33.0377 1.92811 30.4945 4.65303 29.6365C4.32423 26.8845 4 23.5872 4 21.3334C4 8.46137 15.4427 6.88537 18.1147 6.69337C19.5413 5.42137 24.704 1.33337 32 1.33337C43.6267 1.33337 60 7.53871 60 21.3334C60 23.5504 59.6744 26.8558 59.3432 29.6456C62.0393 30.5215 63.9467 33.0619 63.9467 35.9974C63.9467 39.619 61.0488 42.5718 57.4542 42.6645C57.1638 43.5969 56.8211 44.5222 56.4267 45.4347C55.832 46.744 55.1813 47.9414 54.48 49.0214C54.4293 49.0987 54.3707 49.1734 54.304 49.2374C49.5573 56.736 41.1627 61.3334 32 61.3334ZM5.33333 34.6667C5.33333 36.4425 5.5058 38.1952 5.84929 39.916C4.03451 39.5376 2.66667 37.9253 2.66667 35.9999C2.66667 34.423 3.6253 33.0081 5.00057 32.3637C5.18303 33.713 5.3207 34.6136 5.33333 34.6667ZM58.158 39.9029C59.9425 39.5016 61.28 37.9039 61.28 36C61.28 34.4134 60.3581 33.0235 58.9994 32.3749C58.8275 33.6688 58.693 34.59 58.6596 34.8183L58.6596 34.8184L58.6596 34.8185L58.6533 34.8614C58.6597 36.5261 58.4935 38.2173 58.158 39.9029ZM11.5093 47.1894C11.5387 47.2267 11.5653 47.2614 11.5867 47.2987C15.9893 54.416 23.6187 58.6667 32 58.6667C40.2453 58.6667 47.8 54.5307 52.208 47.6054C52.2613 47.5254 52.32 47.4454 52.3893 47.3787C52.8693 46.6027 53.456 45.5227 53.9867 44.3547C54.5924 42.9543 55.0632 41.5155 55.3968 40.0493L52.328 29.328C33.0373 29.168 25.224 24.3627 22.1147 21.0054C20.1013 26.1787 13.9387 28.4347 11.7413 29.088L8.60662 40.044C8.94268 41.5217 9.41523 42.9528 10.024 44.3467C10.496 45.4027 10.9867 46.3387 11.5093 47.1894ZM54.6133 27.632L56.2025 33.1842C56.5757 30.4347 57.3333 24.5497 57.3333 21.3334C57.3333 9.37871 42.52 4.00004 32 4.00004C24.6373 4.00004 19.6587 8.89337 19.6107 8.94404C19.36 9.19204 19.0213 9.33071 18.6693 9.33337C18.1787 9.33604 6.66667 9.52004 6.66667 21.3334C6.66667 24.6383 7.43711 30.5611 7.80083 33.1726L9.38667 27.632C9.51733 27.168 9.89333 26.8107 10.3627 26.7014C10.4613 26.6774 20.0933 24.3254 20.0933 17.4907C20.0933 16.816 20.5973 16.248 21.2667 16.168C21.9387 16.0694 22.56 16.5174 22.7227 17.1734C22.744 17.2454 25.7573 26.6667 53.3333 26.6667C53.928 26.6667 54.4507 27.0587 54.6133 27.632ZM17.3333 36C17.3333 38.2053 19.128 40 21.3333 40C23.5387 40 25.3333 38.2053 25.3333 36C25.3333 33.7947 23.5387 32 21.3333 32C19.128 32 17.3333 33.7947 17.3333 36ZM20 36C20 35.2667 20.5973 34.6667 21.3333 34.6667C22.0693 34.6667 22.6667 35.2667 22.6667 36C22.6667 36.7333 22.0693 37.3333 21.3333 37.3333C20.5973 37.3333 20 36.7333 20 36ZM42.6667 40C40.4613 40 38.6667 38.2053 38.6667 36C38.6667 33.7947 40.4613 32 42.6667 32C44.872 32 46.6667 33.7947 46.6667 36C46.6667 38.2053 44.872 40 42.6667 40ZM42.6667 34.6667C41.9307 34.6667 41.3333 35.2667 41.3333 36C41.3333 36.7333 41.9307 37.3333 42.6667 37.3333C43.4027 37.3333 44 36.7333 44 36C44 35.2667 43.4027 34.6667 42.6667 34.6667ZM24.456 47.608C26.536 49.688 29.2693 50.728 32 50.728C34.7307 50.728 37.464 49.6906 39.5413 47.608C40.0613 47.088 40.0613 46.2426 39.5413 45.7226C39.0213 45.2026 38.176 45.2026 37.656 45.7226C34.536 48.8426 29.4613 48.8426 26.3413 45.7226C25.8213 45.2026 24.976 45.2026 24.456 45.7226C23.936 46.2426 23.936 47.088 24.456 47.608Z" fill="black"/>
<path d="M9.37333 48.7867L9.79761 48.5221C9.78805 48.5068 9.77766 48.492 9.7665 48.4778L9.37333 48.7867ZM9.296 48.6774L9.72184 48.4153L9.72059 48.4133L9.296 48.6774ZM7.584 45.4267L7.12561 45.6265L7.1283 45.6325L7.584 45.4267ZM6.55239 42.6656L7.02955 42.5163C6.96517 42.3106 6.77629 42.1694 6.56084 42.1657L6.55239 42.6656ZM4.65303 29.6365L4.8032 30.1134C5.03256 30.0412 5.17803 29.8159 5.1495 29.5772L4.65303 29.6365ZM18.1147 6.69337L18.1505 7.19209C18.2606 7.18418 18.365 7.14005 18.4474 7.06658L18.1147 6.69337ZM59.3432 29.6456L58.8467 29.5867C58.8186 29.8236 58.9618 30.0474 59.1887 30.1212L59.3432 29.6456ZM57.4542 42.6645L57.4413 42.1646C57.2273 42.1702 57.0405 42.3113 56.9769 42.5158L57.4542 42.6645ZM56.4267 45.4347L56.882 45.6415L56.8856 45.6331L56.4267 45.4347ZM54.48 49.0214L54.8982 49.2954L54.8993 49.2937L54.48 49.0214ZM54.304 49.2374L53.9577 48.8767C53.9287 48.9046 53.9031 48.9359 53.8815 48.97L54.304 49.2374ZM5.84929 39.916L5.74723 40.4054C5.91156 40.4397 6.08212 40.3892 6.20133 40.271C6.32054 40.1528 6.37248 39.9827 6.33962 39.8181L5.84929 39.916ZM5.33333 34.6667H5.83333C5.83333 34.6277 5.82877 34.5888 5.81974 34.5509L5.33333 34.6667ZM5.00057 32.3637L5.49606 32.2967C5.47474 32.139 5.37962 32.0008 5.23989 31.9247C5.10017 31.8485 4.93253 31.8434 4.78843 31.9109L5.00057 32.3637ZM58.158 39.9029L57.6676 39.8053C57.6346 39.9713 57.6877 40.1427 57.8089 40.2608C57.93 40.379 58.1026 40.4279 58.2677 40.3908L58.158 39.9029ZM58.9994 32.3749L59.2148 31.9237C59.0704 31.8548 58.9018 31.8591 58.7611 31.9353C58.6205 32.0116 58.5248 32.1505 58.5037 32.3091L58.9994 32.3749ZM58.6596 34.8183L58.1649 34.746C58.164 34.7517 58.1633 34.7574 58.1627 34.7631L58.6596 34.8183ZM58.6596 34.8184L58.1626 34.7632L58.1621 34.7687L58.6596 34.8184ZM58.6596 34.8185L59.1544 34.8907C59.1554 34.8832 59.1564 34.8758 59.1571 34.8683L58.6596 34.8185ZM58.6533 34.8614L58.1586 34.7892C58.155 34.8137 58.1532 34.8385 58.1533 34.8633L58.6533 34.8614ZM11.5867 47.2987L11.1525 47.5468C11.1554 47.5518 11.1584 47.5568 11.1614 47.5617L11.5867 47.2987ZM11.5093 47.1894L11.0833 47.4511C11.0934 47.4675 11.1043 47.4832 11.1162 47.4983L11.5093 47.1894ZM52.208 47.6054L51.7919 47.328L51.7862 47.3369L52.208 47.6054ZM52.3893 47.3787L52.7359 47.7391C52.7661 47.7101 52.7925 47.6774 52.8146 47.6417L52.3893 47.3787ZM53.9867 44.3547L54.442 44.5616L54.4456 44.5532L53.9867 44.3547ZM55.3968 40.0493L55.8843 40.1602C55.903 40.0781 55.9006 39.9927 55.8775 39.9117L55.3968 40.0493ZM52.328 29.328L52.8087 29.1904C52.7477 28.9774 52.5538 28.8299 52.3321 28.8281L52.328 29.328ZM22.1147 21.0054L22.4815 20.6656C22.3644 20.5392 22.1905 20.482 22.0212 20.5142C21.852 20.5464 21.7112 20.6635 21.6487 20.824L22.1147 21.0054ZM11.7413 29.088L11.5988 28.6088C11.4351 28.6574 11.3076 28.7863 11.2606 28.9505L11.7413 29.088ZM8.60662 40.044L8.12591 39.9064C8.10276 39.9873 8.10041 40.0728 8.11907 40.1549L8.60662 40.044ZM10.024 44.3467L9.56578 44.5468L9.56752 44.5507L10.024 44.3467ZM56.2025 33.1842L55.7218 33.3218C55.7869 33.5493 56.0025 33.6999 56.2384 33.6829C56.4744 33.6659 56.6661 33.4859 56.698 33.2515L56.2025 33.1842ZM54.6133 27.632L54.1323 27.7685L54.1326 27.7696L54.6133 27.632ZM19.6107 8.94404L19.9623 9.29948C19.9662 9.29568 19.9699 9.29183 19.9736 9.28791L19.6107 8.94404ZM18.6693 9.33337L18.6721 9.83337L18.6731 9.83336L18.6693 9.33337ZM7.80083 33.1726L7.30561 33.2416C7.3382 33.4756 7.5301 33.6548 7.76576 33.6714C8.00142 33.688 8.21652 33.5373 8.28153 33.3102L7.80083 33.1726ZM9.38667 27.632L9.86737 27.7696L9.86795 27.7676L9.38667 27.632ZM10.3627 26.7014L10.4761 27.1884L10.4808 27.1872L10.3627 26.7014ZM21.2667 16.168L21.326 16.6647L21.3393 16.6627L21.2667 16.168ZM22.7227 17.1734L22.2374 17.2937C22.2392 17.301 22.2411 17.3082 22.2433 17.3154L22.7227 17.1734ZM24.456 47.608L24.1024 47.9615L24.456 47.608ZM39.5413 47.608L39.1878 47.2544L39.1873 47.2549L39.5413 47.608ZM39.5413 45.7226L39.8949 45.3691L39.5413 45.7226ZM26.3413 45.7226L25.9878 46.0762L26.3413 45.7226ZM24.456 45.7226L24.1024 45.3691L24.456 45.7226ZM8.94906 49.0513C13.9391 57.0538 22.5502 61.8334 32 61.8334V60.8334C22.8951 60.8334 14.6049 56.2316 9.79761 48.5221L8.94906 49.0513ZM8.87017 48.9394C8.9041 48.9946 8.9426 49.0478 8.98017 49.0956L9.7665 48.4778C9.7454 48.451 9.73057 48.4295 9.72183 48.4153L8.87017 48.9394ZM7.1283 45.6325C7.68237 46.8595 8.25247 47.9462 8.87141 48.9414L9.72059 48.4133C9.12886 47.4619 8.57896 46.4152 8.0397 45.2209L7.1283 45.6325ZM6.07523 42.815C6.37245 43.7644 6.7227 44.7021 7.12565 45.6265L8.04235 45.2269C7.65358 44.335 7.31593 43.431 7.02955 42.5163L6.07523 42.815ZM-0.5 35.9999C-0.5 39.9126 2.64955 43.0998 6.54394 43.1656L6.56084 42.1657C3.21079 42.1091 0.5 39.3656 0.5 35.9999H-0.5ZM4.50287 29.1596C1.57248 30.0822 -0.5 32.8165 -0.5 35.9999H0.5C0.5 33.2588 2.28374 30.9067 4.8032 30.1134L4.50287 29.1596ZM3.5 21.3334C3.5 23.62 3.82776 26.9438 4.15656 29.6958L5.1495 29.5772C4.8207 26.8252 4.5 23.5543 4.5 21.3334H3.5ZM18.0788 6.19466C16.7104 6.29299 13.0847 6.74413 9.78746 8.83619C6.45744 10.9491 3.5 14.7156 3.5 21.3334H4.5C4.5 15.0792 7.26389 11.6217 10.3232 9.68056C13.4153 7.71862 16.847 7.28575 18.1505 7.19209L18.0788 6.19466ZM32 0.833374C24.5213 0.833374 19.2425 5.01797 17.7819 6.32017L18.4474 7.06658C19.8402 5.82478 24.8867 1.83337 32 1.83337V0.833374ZM60.5 21.3334C60.5 14.2028 56.2574 9.0625 50.6143 5.72985C44.9789 2.40182 37.8882 0.833374 32 0.833374V1.83337C37.7385 1.83337 44.6477 3.36759 50.1057 6.5909C55.5559 9.80958 59.5 14.6693 59.5 21.3334H60.5ZM59.8397 29.7046C60.1708 26.9155 60.5 23.5834 60.5 21.3334H59.5C59.5 23.5175 59.178 26.7961 58.8467 29.5867L59.8397 29.7046ZM64.4467 35.9974C64.4467 32.8422 62.397 30.112 59.4977 29.1701L59.1887 30.1212C61.6817 30.9311 63.4467 33.2815 63.4467 35.9974H64.4467ZM57.4671 43.1643C61.3319 43.0646 64.4467 39.8909 64.4467 35.9974H63.4467C63.4467 39.3472 60.7656 42.0789 57.4413 42.1646L57.4671 43.1643ZM56.8856 45.6331C57.287 44.7044 57.6359 43.7626 57.9316 42.8132L56.9769 42.5158C56.6917 43.4313 56.3551 44.34 55.9677 45.2363L56.8856 45.6331ZM54.8993 49.2937C55.6156 48.1907 56.278 46.9712 56.8819 45.6415L55.9714 45.2279C55.386 46.5169 54.7471 47.692 54.0607 48.7491L54.8993 49.2937ZM54.6503 49.5981C54.7503 49.502 54.8323 49.3961 54.8982 49.2954L54.0618 48.7474C54.0264 48.8013 53.991 48.8448 53.9577 48.8767L54.6503 49.5981ZM32 61.8334C41.3301 61.8334 49.8861 57.1516 54.7265 49.5048L53.8815 48.97C49.2286 56.3205 40.9952 60.8334 32 60.8334V61.8334ZM6.33962 39.8181C6.00263 38.1299 5.83333 36.41 5.83333 34.6667H4.83333C4.83333 36.4751 5.00898 38.2605 5.35896 40.0138L6.33962 39.8181ZM2.16667 35.9999C2.16667 38.1673 3.70575 39.9798 5.74723 40.4054L5.95135 39.4265C4.36327 39.0954 3.16667 37.6833 3.16667 35.9999H2.16667ZM4.78843 31.9109C3.24569 32.6338 2.16667 34.2202 2.16667 35.9999H3.16667C3.16667 34.6259 4.00491 33.3824 5.21272 32.8164L4.78843 31.9109ZM5.81974 34.5509C5.8201 34.5524 5.78689 34.3479 5.72533 33.9287C5.66681 33.5301 5.58705 32.9695 5.49606 32.2967L4.50508 32.4307C4.59656 33.1072 4.67686 33.6715 4.73594 34.0739C4.79199 34.4557 4.83394 34.7279 4.84693 34.7825L5.81974 34.5509ZM60.78 36C60.78 37.6645 59.61 39.0639 58.0483 39.4151L58.2677 40.3908C60.275 39.9393 61.78 38.1432 61.78 36H60.78ZM58.784 32.8262C59.9728 33.3936 60.78 34.6105 60.78 36H61.78C61.78 34.2163 60.7434 32.6534 59.2148 31.9237L58.784 32.8262ZM59.1544 34.8906C59.1879 34.6612 59.3228 33.7376 59.495 32.4408L58.5037 32.3091C58.3323 33.5999 58.1981 34.5187 58.1649 34.746L59.1544 34.8906ZM59.1565 34.8736L59.1566 34.8735L58.1627 34.7631L58.1627 34.7632L59.1565 34.8736ZM59.1571 34.8683L59.1571 34.8682L58.1621 34.7687L58.1621 34.7688L59.1571 34.8683ZM59.1481 34.9336L59.1544 34.8907L58.1648 34.7463L58.1586 34.7892L59.1481 34.9336ZM58.6484 40.0005C58.9902 38.2832 59.1598 36.5587 59.1533 34.8595L58.1533 34.8633C58.1595 36.4935 57.9968 38.1514 57.6676 39.8053L58.6484 40.0005ZM12.0208 47.0506C11.9788 46.9772 11.9303 46.9159 11.9025 46.8805L11.1162 47.4983C11.1306 47.5166 11.1391 47.5277 11.1457 47.5368C11.1518 47.5452 11.1532 47.5479 11.1525 47.5468L12.0208 47.0506ZM32 58.1667C23.7917 58.1667 16.3233 54.0055 12.0119 47.0357L11.1614 47.5617C15.6553 54.8265 23.4456 59.1667 32 59.1667V58.1667ZM51.7862 47.3369C47.4704 54.1173 40.0753 58.1667 32 58.1667V59.1667C40.4154 59.1667 48.1296 54.9441 52.6298 47.8739L51.7862 47.3369ZM52.0428 47.0183C51.934 47.1229 51.8515 47.2387 51.792 47.328L52.624 47.8827C52.6711 47.8121 52.706 47.7679 52.7359 47.7391L52.0428 47.0183ZM53.5315 44.1479C53.0093 45.2972 52.4325 46.3584 51.9641 47.1157L52.8146 47.6417C53.3061 46.847 53.9028 45.7482 54.4419 44.5615L53.5315 44.1479ZM54.9092 39.9384C54.5826 41.3742 54.1214 42.7838 53.5278 44.1562L54.4456 44.5532C55.0634 43.1249 55.5439 41.6567 55.8843 40.1602L54.9092 39.9384ZM51.8473 29.4656L54.9161 40.1869L55.8775 39.9117L52.8087 29.1904L51.8473 29.4656ZM21.7478 21.3451C24.988 24.8437 32.9619 29.6674 52.3239 29.828L52.3321 28.8281C33.1128 28.6686 25.46 23.8817 22.4815 20.6656L21.7478 21.3451ZM11.8838 29.5673C13.0061 29.2336 15.1428 28.4907 17.2621 27.1657C19.3783 25.8426 21.5201 23.9119 22.5806 21.1867L21.6487 20.824C20.6959 23.2722 18.7497 25.0562 16.7319 26.3177C14.7172 27.5774 12.6739 28.2891 11.5988 28.6088L11.8838 29.5673ZM9.08733 40.1815L12.222 29.2256L11.2606 28.9505L8.12591 39.9064L9.08733 40.1815ZM10.4822 44.1466C9.8858 42.781 9.42317 41.3798 9.09417 39.9331L8.11907 40.1549C8.4622 41.6636 8.94465 43.1246 9.56579 44.5468L10.4822 44.1466ZM11.9353 46.9276C11.4254 46.0976 10.9447 45.1812 10.4805 44.1427L9.56752 44.5507C10.0473 45.6242 10.548 46.5798 11.0833 47.4511L11.9353 46.9276ZM56.6832 33.0466L55.094 27.4944L54.1326 27.7696L55.7218 33.3218L56.6832 33.0466ZM56.8333 21.3334C56.8333 24.5088 56.0817 30.3569 55.707 33.117L56.698 33.2515C57.0697 30.5125 57.8333 24.5906 57.8333 21.3334H56.8333ZM32 4.50004C37.1888 4.50004 43.4343 5.82922 48.3655 8.61889C53.2919 11.4059 56.8333 15.6002 56.8333 21.3334H57.8333C57.8333 15.1119 53.9681 10.6395 48.8579 7.74852C43.7523 4.8602 37.3312 3.50004 32 3.50004V4.50004ZM19.9736 9.28791C19.9662 9.29575 21.1842 8.09147 23.3088 6.8881C25.4298 5.68674 28.43 4.50004 32 4.50004V3.50004C28.2074 3.50004 25.0369 4.76 22.8159 6.01798C20.5985 7.27395 19.3031 8.54167 19.2477 8.60018L19.9736 9.28791ZM18.6731 9.83336C19.1536 9.82972 19.6177 9.64047 19.9623 9.29948L19.259 8.5886C19.1023 8.74361 18.889 8.8317 18.6655 8.83339L18.6731 9.83336ZM7.16667 21.3334C7.16667 18.465 7.86421 16.3352 8.89278 14.7468C9.92299 13.1558 11.3043 12.0788 12.714 11.3483C15.5478 9.88001 18.4532 9.83456 18.6721 9.83337L18.6666 8.83338C18.3948 8.83486 15.2989 8.88274 12.254 10.4604C10.7244 11.253 9.19701 12.4371 8.05339 14.2032C6.90813 15.9719 6.16667 18.2951 6.16667 21.3334H7.16667ZM8.29605 33.1036C7.9311 30.4833 7.16667 24.5969 7.16667 21.3334H6.16667C6.16667 24.6797 6.94311 30.6389 7.30561 33.2416L8.29605 33.1036ZM8.90597 27.4944L7.32013 33.035L8.28153 33.3102L9.86736 27.7696L8.90597 27.4944ZM10.2492 26.2144C9.60347 26.3648 9.08575 26.856 8.90539 27.4965L9.86795 27.7676C9.94891 27.4801 10.1832 27.2566 10.4761 27.1883L10.2492 26.2144ZM19.5933 17.4907C19.5933 20.64 17.3786 22.8055 15.0086 24.2208C12.6524 25.6278 10.2768 26.2077 10.2445 26.2155L10.4808 27.1872C10.5472 27.1711 13.037 26.5629 15.5214 25.0793C17.9921 23.6039 20.5933 21.1761 20.5933 17.4907H19.5933ZM21.2073 15.6716C20.2864 15.7816 19.5933 16.5631 19.5933 17.4907H20.5933C20.5933 17.069 20.9083 16.7144 21.326 16.6645L21.2073 15.6716ZM23.208 17.053C22.9876 16.1645 22.1378 15.5348 21.194 15.6733L21.3393 16.6627C21.7395 16.604 22.1324 16.8703 22.2374 17.2937L23.208 17.053ZM53.3333 26.1667C39.5961 26.1667 32.0427 23.8191 27.9401 21.5113C23.8488 19.2097 23.1753 16.9409 23.2021 17.0313L22.2433 17.3154C22.2914 17.4779 23.1352 19.9557 27.4499 22.3828C31.7533 24.8036 39.4946 27.1667 53.3333 27.1667V26.1667ZM55.0943 27.4956C54.8702 26.7057 54.1501 26.1667 53.3333 26.1667V27.1667C53.7059 27.1667 54.0311 27.4117 54.1323 27.7685L55.0943 27.4956ZM21.3333 39.5C19.4041 39.5 17.8333 37.9292 17.8333 36H16.8333C16.8333 38.4815 18.8519 40.5 21.3333 40.5V39.5ZM24.8333 36C24.8333 37.9292 23.2625 39.5 21.3333 39.5V40.5C23.8148 40.5 25.8333 38.4815 25.8333 36H24.8333ZM21.3333 32.5C23.2625 32.5 24.8333 34.0708 24.8333 36H25.8333C25.8333 33.5185 23.8148 31.5 21.3333 31.5V32.5ZM17.8333 36C17.8333 34.0708 19.4041 32.5 21.3333 32.5V31.5C18.8519 31.5 16.8333 33.5185 16.8333 36H17.8333ZM21.3333 34.1667C20.3205 34.1667 19.5 34.9912 19.5 36H20.5C20.5 35.5422 20.8741 35.1667 21.3333 35.1667V34.1667ZM23.1667 36C23.1667 34.9912 22.3461 34.1667 21.3333 34.1667V35.1667C21.7925 35.1667 22.1667 35.5422 22.1667 36H23.1667ZM21.3333 37.8333C22.3461 37.8333 23.1667 37.0088 23.1667 36H22.1667C22.1667 36.4578 21.7925 36.8333 21.3333 36.8333V37.8333ZM19.5 36C19.5 37.0088 20.3205 37.8333 21.3333 37.8333V36.8333C20.8741 36.8333 20.5 36.4578 20.5 36H19.5ZM38.1667 36C38.1667 38.4815 40.1852 40.5 42.6667 40.5V39.5C40.7375 39.5 39.1667 37.9292 39.1667 36H38.1667ZM42.6667 31.5C40.1852 31.5 38.1667 33.5185 38.1667 36H39.1667C39.1667 34.0708 40.7375 32.5 42.6667 32.5V31.5ZM47.1667 36C47.1667 33.5185 45.1481 31.5 42.6667 31.5V32.5C44.5959 32.5 46.1667 34.0708 46.1667 36H47.1667ZM42.6667 40.5C45.1481 40.5 47.1667 38.4815 47.1667 36H46.1667C46.1667 37.9292 44.5959 39.5 42.6667 39.5V40.5ZM41.8333 36C41.8333 35.5422 42.2075 35.1667 42.6667 35.1667V34.1667C41.6539 34.1667 40.8333 34.9912 40.8333 36H41.8333ZM42.6667 36.8333C42.2075 36.8333 41.8333 36.4578 41.8333 36H40.8333C40.8333 37.0088 41.6539 37.8333 42.6667 37.8333V36.8333ZM43.5 36C43.5 36.4578 43.1259 36.8333 42.6667 36.8333V37.8333C43.6795 37.8333 44.5 37.0088 44.5 36H43.5ZM42.6667 35.1667C43.1259 35.1667 43.5 35.5422 43.5 36H44.5C44.5 34.9912 43.6795 34.1667 42.6667 34.1667V35.1667ZM32 50.228C29.3961 50.228 26.7917 49.2366 24.8096 47.2544L24.1024 47.9615C26.2803 50.1394 29.1426 51.228 32 51.228V50.228ZM39.1873 47.2549C37.2083 49.239 34.6043 50.228 32 50.228V51.228C34.857 51.228 37.7197 50.1423 39.8953 47.9611L39.1873 47.2549ZM39.1878 46.0762C39.5125 46.4009 39.5125 46.9297 39.1878 47.2544L39.8949 47.9615C40.6101 47.2463 40.6101 46.0844 39.8949 45.3691L39.1878 46.0762ZM38.0096 46.0762C38.3343 45.7515 38.863 45.7515 39.1878 46.0762L39.8949 45.3691C39.1796 44.6538 38.0177 44.6538 37.3024 45.3691L38.0096 46.0762ZM25.9878 46.0762C29.303 49.3915 34.6943 49.3915 38.0096 46.0762L37.3024 45.3691C34.3777 48.2938 29.6196 48.2938 26.6949 45.3691L25.9878 46.0762ZM24.8096 46.0762C25.1343 45.7515 25.663 45.7515 25.9878 46.0762L26.6949 45.3691C25.9796 44.6538 24.8177 44.6538 24.1024 45.3691L24.8096 46.0762ZM24.8096 47.2544C24.4848 46.9297 24.4848 46.4009 24.8096 46.0762L24.1024 45.3691C23.3872 46.0844 23.3872 47.2463 24.1024 47.9615L24.8096 47.2544Z" fill="#F0F7EF" mask="url(#path-1-inside-1_342_50068)"/>
</svg>
