<svg width="16" height="19" viewBox="0 0 16 19" fill="none" xmlns="http://www.w3.org/2000/svg">
<path fill-rule="evenodd" clip-rule="evenodd" d="M3 6.5C2.17157 6.5 1.5 7.17157 1.5 8V16C1.5 16.8284 2.17157 17.5 3 17.5H13C13.8284 17.5 14.5 16.8284 14.5 16V8C14.5 7.17157 13.8284 6.5 13 6.5H3ZM0.5 8C0.5 6.61929 1.61929 5.5 3 5.5H13C14.3807 5.5 15.5 6.61929 15.5 8V16C15.5 17.3807 14.3807 18.5 13 18.5H3C1.61929 18.5 0.5 17.3807 0.5 16V8Z" fill="black"/>
<path fill-rule="evenodd" clip-rule="evenodd" d="M8 1.5C6.067 1.5 4.5 3.067 4.5 5V6C4.5 6.27614 4.27614 6.5 4 6.5C3.72386 6.5 3.5 6.27614 3.5 6V5C3.5 2.51472 5.51472 0.5 8 0.5C10.4852 0.5 12.5 2.51471 12.5 5V6C12.5 6.27614 12.2761 6.5 12 6.5C11.7239 6.5 11.5 6.27614 11.5 6V5C11.5 3.06701 9.93296 1.5 8 1.5Z" fill="black"/>
<path d="M8 12.0001C8.55228 12.0001 9 11.5523 9 11.0001C9 10.4478 8.55228 10.0001 8 10.0001C7.44772 10.0001 7 10.4478 7 11.0001C7 11.5523 7.44772 12.0001 8 12.0001Z" fill="black"/>
<path fill-rule="evenodd" clip-rule="evenodd" d="M8 10.5001C8.27614 10.5001 8.5 10.7239 8.5 11.0001L8.5 14.0001C8.5 14.2762 8.27614 14.5001 8 14.5001C7.72386 14.5001 7.5 14.2762 7.5 14.0001L7.5 11.0001C7.5 10.7239 7.72386 10.5001 8 10.5001Z" fill="black"/>
</svg>
