<svg width="26" height="26" viewBox="0 0 26 26" fill="none" xmlns="http://www.w3.org/2000/svg">
<path d="M21.5958 14.1585L22.871 14.9203C22.9496 14.9672 23.0147 15.0336 23.06 15.113C23.1052 15.1924 23.1289 15.2822 23.1289 15.3735C23.1289 15.4648 23.1052 15.5545 23.06 15.634C23.0147 15.7134 22.9496 15.7798 22.871 15.8267L13.0209 21.7123L3.17083 15.8267C3.09216 15.7798 3.02705 15.7134 2.98184 15.634C2.93662 15.5545 2.91286 15.4648 2.91286 15.3735V10.4609C2.91286 10.3696 2.93662 10.2798 2.98184 10.2004C3.02705 10.121 3.09216 10.0545 3.17083 10.0076L12.4746 4.44848C12.6395 4.34976 12.8284 4.29761 13.0209 4.29761C13.2134 4.29761 13.4022 4.34976 13.5672 4.44848H13.5662L22.871 10.0076C22.9496 10.0545 23.0147 10.121 23.06 10.2004C23.1052 10.2798 23.1289 10.3696 23.1289 10.4609C23.1289 10.5522 23.1052 10.6419 23.06 10.7214C23.0147 10.8008 22.9496 10.8672 22.871 10.9141L13.0209 16.7997L4.76779 11.8683V14.3508L13.0209 19.2824L21.5958 14.1585Z" fill="black"/>
</svg>
