<svg width="24" height="24" viewBox="0 0 24 24" fill="none" xmlns="http://www.w3.org/2000/svg">
<g clip-path="url(#clip0_233_5003)">
<path d="M17 8H7C5.89543 8 5 8.89543 5 10V18C5 19.1046 5.89543 20 7 20H17C18.1046 20 19 19.1046 19 18V10C19 8.89543 18.1046 8 17 8Z" stroke="white" stroke-linecap="round"/>
<path d="M8 8V7C8 4.79086 9.79086 3 12 3C14.2091 3 16 4.79086 16 7V8" stroke="white" stroke-linecap="round"/>
<path d="M12 14C12.5523 14 13 13.5523 13 13C13 12.4477 12.5523 12 12 12C11.4477 12 11 12.4477 11 13C11 13.5523 11.4477 14 12 14Z" fill="white"/>
<path d="M12 13L12 16" stroke="white" stroke-linecap="round"/>
</g>
<defs>
<clipPath id="clip0_233_5003">
<rect width="24" height="24" fill="white"/>
</clipPath>
</defs>
</svg>
