<svg width="40" height="40" viewBox="0 0 40 40" fill="none" xmlns="http://www.w3.org/2000/svg">
<g clip-path="url(#clip0_233_4424)">
<rect width="40" height="40" fill="black"/>
<path d="M28.5958 21.1585L29.8709 21.9202C29.9496 21.9671 30.0147 22.0335 30.0599 22.1129C30.1051 22.1924 30.1289 22.2821 30.1289 22.3734C30.1289 22.4647 30.1051 22.5545 30.0599 22.6339C30.0147 22.7133 29.9496 22.7797 29.8709 22.8266L20.0209 28.7123L10.1708 22.8266C10.0921 22.7797 10.027 22.7133 9.98182 22.6339C9.93661 22.5545 9.91284 22.4647 9.91284 22.3734V17.4608C9.91284 17.3695 9.93661 17.2798 9.98182 17.2003C10.027 17.1209 10.0921 17.0545 10.1708 17.0076L19.4745 11.4484C19.6395 11.3497 19.8284 11.2975 20.0209 11.2975C20.2134 11.2975 20.4022 11.3497 20.5672 11.4484H20.5662L29.8709 17.0076C29.9496 17.0545 30.0147 17.1209 30.0599 17.2003C30.1051 17.2798 30.1289 17.3695 30.1289 17.4608C30.1289 17.5521 30.1051 17.6419 30.0599 17.7213C30.0147 17.8007 29.9496 17.8671 29.8709 17.914L20.0209 23.7997L11.7678 18.8683V21.3508L20.0209 26.2824L28.5958 21.1585Z" fill="white"/>
</g>
<defs>
<clipPath id="clip0_233_4424">
<rect width="40" height="40" rx="12" fill="white"/>
</clipPath>
</defs>
</svg>
