<svg width="64" height="64" viewBox="0 0 64 64" fill="none" xmlns="http://www.w3.org/2000/svg">
<g clip-path="url(#clip0_342_50129)">
<path d="M43.7378 58.8679H43.7375C40.0035 58.8408 36.994 55.8017 37.0026 52.0678M43.7378 58.8679L37.0526 47.0704C37.0557 46.4899 36.5967 46.0122 36.0162 45.992M43.7378 58.8679H43.7591C47.4759 58.8679 50.4468 55.7975 50.4468 52.0836V9.94642C50.4468 8.13181 51.2202 6.50419 52.3947 5.21594L52.471 5.13225H52.3578H15.8664C13.3906 5.13225 11.3756 7.11904 11.3756 9.55775M43.7378 58.8679L11.2089 45.992H36.0162M37.0026 52.0678L37.0526 52.0679H37.0026V52.0678ZM37.0026 52.0678V47.0704V47.0701C37.0055 46.517 36.5684 46.0617 36.0153 46.042M36.0153 46.042H36.0162V45.992M36.0153 46.042C36.015 46.0419 36.0147 46.0419 36.0144 46.0419L36.0162 45.992M36.0153 46.042H11.1589H11.1085L11.1089 45.9916L11.3756 9.55775M11.3756 9.55775H11.4256L11.3756 9.55739L11.3756 9.55775ZM57.2508 3.15938C60.9631 3.1861 63.9565 6.20619 63.95 9.9185V19.1205C63.95 19.6699 63.5303 20.1606 62.9904 20.1606H52.4696H52.4196V20.2106V52.0846V52.0848C52.4448 56.8933 48.5688 60.8126 43.7603 60.8407H43.7358C43.653 60.8407 43.5746 60.8277 43.4819 60.8123L43.4773 60.8115C43.3833 60.7958 43.2766 60.7784 43.1437 60.773L43.0917 60.7708V60.8229V60.8407H8.3415V60.8305V60.7828L8.29382 60.7806C3.78595 60.5713 0.05 56.7536 0.05 52.0856V47.0704C0.05 46.5213 0.469041 46.042 1.00962 46.042H9.08603H9.13567L9.13603 45.9923L9.40273 9.55103V9.55067C9.40273 6.03222 12.3019 3.15938 15.8664 3.15938H57.2508ZM2.07287 48.0148H2.02287V48.0648V52.0846C2.02287 55.7977 5.02283 58.8679 8.73785 58.8679H8.74494H38.086H38.1838L38.1266 58.7886C38.0297 58.6546 37.9339 58.5642 37.841 58.4857C37.8137 58.4626 37.7872 58.4409 37.7612 58.4197C37.6974 58.3676 37.6367 58.3179 37.5759 58.2568L37.5759 58.2568C35.938 56.6143 35.0217 54.3872 35.0298 52.0675V52.0674V48.0648V48.0148H34.9798H2.07287ZM61.9271 18.1877H61.9771V18.1377V9.9368V9.92945C61.9894 7.30174 59.8772 5.15833 57.25 5.13225H57.2495H57.2206C54.5998 5.13225 52.4196 7.3228 52.4196 9.94439V18.1377V18.1877H52.4696H61.9271Z" fill="black" stroke="#F0F7EF" stroke-width="0.1"/>
<path d="M23.1403 15.6936L23.1681 15.6798L30.2289 12.196L30.251 12.1851L30.2732 12.196L37.3339 15.6894L37.3617 15.7032V15.7343V22.4807C37.3617 23.2713 37.103 24.166 36.6831 24.9728C36.2632 25.7795 35.6797 26.5032 35.0257 26.9491L23.1403 15.6936ZM23.1403 15.6936V15.7246M23.1403 15.6936V15.7246M23.1403 15.7246V22.4807C23.1403 23.2713 23.3976 24.1658 23.8161 24.9726M23.1403 15.7246L23.8161 24.9726M23.8161 24.9726C24.2346 25.7793 24.8166 26.5032 25.4707 26.9496L23.8161 24.9726ZM24.3658 28.5791L24.3657 28.5791C23.4488 27.9538 22.6487 26.9854 22.0779 25.8937C21.5072 24.8019 21.1674 23.5903 21.1674 22.4807V15.0779H21.1674L21.1674 15.0764C21.1563 14.7052 21.3606 14.3609 21.6914 14.1919C21.6915 14.1919 21.6916 14.1918 21.6917 14.1918L29.812 10.2012L29.8122 10.2011C30.0836 10.0664 30.4022 10.0664 30.6736 10.2011L30.6738 10.2012L38.8092 14.2029C38.8093 14.2029 38.8095 14.203 38.8096 14.203C39.1404 14.372 39.3452 14.7164 39.3346 15.0876L39.3346 15.0876V15.089V22.4807C39.3346 23.5903 38.9956 24.8019 38.4255 25.8938C37.8554 26.9857 37.056 27.9543 36.1388 28.5801L36.1387 28.5802L30.8113 32.2325L30.8112 32.2326C30.4796 32.4612 30.0411 32.4612 29.7095 32.2326L29.7094 32.2325L24.3658 28.5791ZM30.2671 30.2037L35.0256 26.9492L25.4708 26.9496L30.2105 30.2036L30.2388 30.223L30.2671 30.2037Z" fill="black" stroke="#F0F7EF" stroke-width="0.1"/>
<path d="M28.5335 24.0104L28.5337 24.0106C28.7177 24.1984 28.969 24.3048 29.2319 24.3063C29.232 24.3063 29.232 24.3063 29.2321 24.3063L29.2318 24.3563L28.5335 24.0104ZM28.5335 24.0104L26.4465 21.9021L26.4465 21.9021C26.0631 21.5148 26.0655 20.89 26.4527 20.5062C26.84 20.1223 27.4647 20.1251 27.8486 20.5124C27.8486 20.5124 27.8486 20.5124 27.8486 20.5124L29.2024 21.8793L29.2377 21.915L29.2732 21.8795L32.6599 18.4934L32.6599 18.4934C33.0452 18.108 33.6704 18.108 34.0552 18.4938L34.0553 18.4939C34.4406 18.8792 34.4406 19.5044 34.0548 19.8897L34.0547 19.8898L29.9318 24.0142L29.9316 24.0144C29.7472 24.2003 29.4963 24.3053 29.2343 24.3063M28.5335 24.0104L29.2343 24.3063M29.2343 24.3063C29.2342 24.3063 29.2342 24.3063 29.2342 24.3063L29.2343 24.3063Z" fill="black" stroke="#F0F7EF" stroke-width="0.1"/>
<path d="M18.2671 35.2889H43.1416C43.6864 35.2889 44.1281 35.7306 44.1281 36.2753C44.1281 36.8201 43.6864 37.2618 43.1416 37.2618H18.2671C17.7224 37.2618 17.2807 36.8201 17.2807 36.2753C17.2807 35.7306 17.7224 35.2889 18.2671 35.2889Z" fill="black" stroke="#F0F7EF" stroke-width="0.1"/>
<path d="M18.2671 40.0823H43.1416C43.6864 40.0823 44.1281 40.524 44.1281 41.0688C44.1281 41.6135 43.6864 42.0552 43.1416 42.0552H18.2671C17.7224 42.0552 17.2807 41.6135 17.2807 41.0688C17.2807 40.524 17.7224 40.0823 18.2671 40.0823Z" fill="black" stroke="#F0F7EF" stroke-width="0.1"/>
</g>
<defs>
<clipPath id="clip0_342_50129">
<rect width="64" height="64" fill="white"/>
</clipPath>
</defs>
</svg>
