<svg width="40" height="40" viewBox="0 0 40 40" fill="none" xmlns="http://www.w3.org/2000/svg">
<path d="M26.9444 9.99998C26.791 9.99998 26.6667 10.1243 26.6667 10.2778V13.0555C26.6667 13.2089 26.791 13.3333 26.9444 13.3333H29.7222C29.8756 13.3333 30 13.2089 30 13.0555V10.2778C30 10.1243 29.8756 9.99998 29.7222 9.99998H26.9444ZM26.6667 30V29.1666C26.6667 28.7064 27.0398 28.3333 27.5 28.3333C27.9602 28.3333 28.3333 28.7064 28.3333 29.1666V30H30V29.1666C30 28.7064 30.3731 28.3333 30.8333 28.3333C31.2936 28.3333 31.6667 28.7064 31.6667 29.1666V30.8333C31.6667 31.2936 31.2936 31.6666 30.8333 31.6666H24.1667C23.7064 31.6666 23.3333 31.2936 23.3333 30.8333V29.1666C23.3333 28.7064 23.7064 28.3333 24.1667 28.3333C24.6269 28.3333 25 28.7064 25 29.1666V30H26.6667ZM21.6667 18.3333H22.5C22.9602 18.3333 23.3333 18.7064 23.3333 19.1666C23.3333 19.6269 22.9602 20 22.5 20H19.1667C18.7064 20 18.3333 19.6269 18.3333 19.1666C18.3333 18.7064 18.7064 18.3333 19.1667 18.3333H20V16.6666H17.5C17.0398 16.6666 16.6667 16.2936 16.6667 15.8333C16.6667 15.3731 17.0398 15 17.5 15H22.5C22.9602 15 23.3333 15.3731 23.3333 15.8333C23.3333 16.2936 22.9602 16.6666 22.5 16.6666H21.6667V18.3333ZM30 20H29.1667C28.7064 20 28.3333 19.6269 28.3333 19.1666C28.3333 18.7064 28.7064 18.3333 29.1667 18.3333H30V17.5C30 17.0397 30.3731 16.6666 30.8333 16.6666C31.2936 16.6666 31.6667 17.0397 31.6667 17.5V20.8333C31.6667 21.2936 31.2936 21.6666 30.8333 21.6666C30.3731 21.6666 30 21.2936 30 20.8333V20ZM21.6667 23.3333H20.8333C20.3731 23.3333 20 22.9602 20 22.5C20 22.0397 20.3731 21.6666 20.8333 21.6666H22.5C22.9602 21.6666 23.3333 22.0397 23.3333 22.5V25.8333C23.3333 26.2936 22.9602 26.6666 22.5 26.6666H17.5C17.0398 26.6666 16.6667 26.2936 16.6667 25.8333C16.6667 25.3731 17.0398 25 17.5 25H21.6667V23.3333ZM26.9444 8.33331H29.7222C30.7961 8.33331 31.6667 9.20387 31.6667 10.2778V13.0555C31.6667 14.1294 30.7961 15 29.7222 15H26.9444C25.8706 15 25 14.1294 25 13.0555V10.2778C25 9.20387 25.8706 8.33331 26.9444 8.33331ZM10.2778 8.33331H13.0556C14.1294 8.33331 15 9.20387 15 10.2778V13.0555C15 14.1294 14.1294 15 13.0556 15H10.2778C9.20389 15 8.33334 14.1294 8.33334 13.0555V10.2778C8.33334 9.20387 9.20389 8.33331 10.2778 8.33331ZM10.2778 9.99998C10.1244 9.99998 10 10.1243 10 10.2778V13.0555C10 13.2089 10.1244 13.3333 10.2778 13.3333H13.0556C13.209 13.3333 13.3333 13.2089 13.3333 13.0555V10.2778C13.3333 10.1243 13.209 9.99998 13.0556 9.99998H10.2778ZM10.2778 25H13.0556C14.1294 25 15 25.8705 15 26.9444V29.7222C15 30.7961 14.1294 31.6666 13.0556 31.6666H10.2778C9.20389 31.6666 8.33334 30.7961 8.33334 29.7222V26.9444C8.33334 25.8705 9.20389 25 10.2778 25ZM10.2778 26.6666C10.1244 26.6666 10 26.791 10 26.9444V29.7222C10 29.8756 10.1244 30 10.2778 30H13.0556C13.209 30 13.3333 29.8756 13.3333 29.7222V26.9444C13.3333 26.791 13.209 26.6666 13.0556 26.6666H10.2778ZM21.6667 9.99998H17.5C17.0398 9.99998 16.6667 9.62688 16.6667 9.16665C16.6667 8.70641 17.0398 8.33331 17.5 8.33331H22.5C22.9602 8.33331 23.3333 8.70641 23.3333 9.16665V12.5C23.3333 12.9602 22.9602 13.3333 22.5 13.3333C22.0398 13.3333 21.6667 12.9602 21.6667 12.5V9.99998ZM17.5 13.3333C17.0398 13.3333 16.6667 12.9602 16.6667 12.5C16.6667 12.0397 17.0398 11.6666 17.5 11.6666H19.1667C19.6269 11.6666 20 12.0397 20 12.5C20 12.9602 19.6269 13.3333 19.1667 13.3333H17.5ZM9.16667 23.3333C8.70643 23.3333 8.33334 22.9602 8.33334 22.5C8.33334 22.0397 8.70643 21.6666 9.16667 21.6666H12.5C12.9602 21.6666 13.3333 22.0397 13.3333 22.5C13.3333 22.9602 12.9602 23.3333 12.5 23.3333H9.16667ZM15.8333 23.3333C15.3731 23.3333 15 22.9602 15 22.5C15 22.0397 15.3731 21.6666 15.8333 21.6666H17.5C17.9602 21.6666 18.3333 22.0397 18.3333 22.5C18.3333 22.9602 17.9602 23.3333 17.5 23.3333H15.8333ZM18.3333 30V30.8333C18.3333 31.2936 17.9602 31.6666 17.5 31.6666C17.0398 31.6666 16.6667 31.2936 16.6667 30.8333V29.1666C16.6667 28.7064 17.0398 28.3333 17.5 28.3333H20.8333C21.2936 28.3333 21.6667 28.7064 21.6667 29.1666C21.6667 29.6269 21.2936 30 20.8333 30H18.3333ZM15 18.3333H15.8333C16.2936 18.3333 16.6667 18.7064 16.6667 19.1666C16.6667 19.6269 16.2936 20 15.8333 20H14.1667C13.7064 20 13.3333 19.6269 13.3333 19.1666V18.3333H12.5C12.0398 18.3333 11.6667 17.9602 11.6667 17.5C11.6667 17.0397 12.0398 16.6666 12.5 16.6666H14.1667C14.6269 16.6666 15 17.0397 15 17.5V18.3333ZM8.33334 17.5C8.33334 17.0397 8.70643 16.6666 9.16667 16.6666C9.62691 16.6666 10 17.0397 10 17.5V19.1666C10 19.6269 9.62691 20 9.16667 20C8.70643 20 8.33334 19.6269 8.33334 19.1666V17.5ZM25 17.5C25 17.0397 25.3731 16.6666 25.8333 16.6666C26.2936 16.6666 26.6667 17.0397 26.6667 17.5V20.8333C26.6667 21.2936 26.2936 21.6666 25.8333 21.6666C25.3731 21.6666 25 21.2936 25 20.8333V17.5ZM28.3333 25V24.1666C28.3333 23.7064 28.7064 23.3333 29.1667 23.3333H30.8333C31.2936 23.3333 31.6667 23.7064 31.6667 24.1666C31.6667 24.6269 31.2936 25 30.8333 25H30V25.8333C30 26.2936 29.6269 26.6666 29.1667 26.6666H25.8333C25.3731 26.6666 25 26.2936 25 25.8333V24.1666C25 23.7064 25.3731 23.3333 25.8333 23.3333C26.2936 23.3333 26.6667 23.7064 26.6667 24.1666V25H28.3333ZM5 10.8333C5 11.2936 4.62691 11.6666 4.16667 11.6666C3.70643 11.6666 3.33334 11.2936 3.33334 10.8333V7.49998C3.33334 5.19879 5.19882 3.33331 7.5 3.33331H10.8333C11.2936 3.33331 11.6667 3.70641 11.6667 4.16665C11.6667 4.62688 11.2936 4.99998 10.8333 4.99998H7.5C6.11929 4.99998 5 6.11927 5 7.49998V10.8333ZM29.1667 4.99998C28.7064 4.99998 28.3333 4.62688 28.3333 4.16665C28.3333 3.70641 28.7064 3.33331 29.1667 3.33331H32.5C34.8012 3.33331 36.6667 5.19879 36.6667 7.49998V10.8333C36.6667 11.2936 36.2936 11.6666 35.8333 11.6666C35.3731 11.6666 35 11.2936 35 10.8333V7.49998C35 6.11927 33.8807 4.99998 32.5 4.99998H29.1667ZM10.8333 35C11.2936 35 11.6667 35.3731 11.6667 35.8333C11.6667 36.2936 11.2936 36.6666 10.8333 36.6666H7.5C5.19882 36.6666 3.33334 34.8012 3.33334 32.5V29.1666C3.33334 28.7064 3.70643 28.3333 4.16667 28.3333C4.62691 28.3333 5 28.7064 5 29.1666V32.5C5 33.8807 6.11929 35 7.5 35H10.8333ZM35 29.1666C35 28.7064 35.3731 28.3333 35.8333 28.3333C36.2936 28.3333 36.6667 28.7064 36.6667 29.1666V32.5C36.6667 34.8012 34.8012 36.6666 32.5 36.6666H29.1667C28.7064 36.6666 28.3333 36.2936 28.3333 35.8333C28.3333 35.3731 28.7064 35 29.1667 35H32.5C33.8807 35 35 33.8807 35 32.5V29.1666Z" fill="white"/>
</svg>
