<svg width="64" height="64" viewBox="0 0 64 64" fill="none" xmlns="http://www.w3.org/2000/svg">
<g clip-path="url(#clip0_339_49900)">
<path fill-rule="evenodd" clip-rule="evenodd" d="M2.66663 52C2.66663 54.7866 6.416 57.6346 12.4506 59.432C13.1574 59.6426 13.56 60.384 13.3466 61.0906C13.176 61.6693 12.648 62.0426 12.072 62.0426C11.9466 62.0426 11.8186 62.024 11.6906 61.9866C4.26138 59.7734 0 56.136 0 52V12C0 5.272 11.7148 0 26.6667 0C41.6188 0 53.3334 5.272 53.3334 12V36C53.3334 36.736 52.736 37.3334 52 37.3334C51.264 37.3334 50.6666 36.736 50.6666 36V30.6185C46.392 34.6237 37.3732 37.3331 26.6666 37.3331C15.96 37.3331 6.94125 34.6239 2.66663 30.6185V38.6665C2.66663 41.4399 6.38937 44.2771 12.384 46.0745C13.0907 46.2879 13.4908 47.0293 13.2774 47.7359C13.104 48.3146 12.5734 48.6852 12 48.6852C11.8746 48.6852 11.744 48.6666 11.616 48.6292C7.66125 47.4426 4.648 45.8426 2.66663 43.9866V52ZM50.6666 12C50.6666 7.58663 40.8106 2.66663 26.6666 2.66663C12.5226 2.66663 2.66663 7.58663 2.66663 12C2.66663 16.4134 12.5226 21.3334 26.6666 21.3334C40.8106 21.3334 50.6666 16.4134 50.6666 12ZM26.6666 24C15.96 24 6.94138 21.2906 2.66663 17.2854V25.3334C2.66663 29.7467 12.5226 34.6668 26.6666 34.6668C40.8106 34.6668 50.6666 29.7467 50.6666 25.3334V17.2854C46.392 21.2906 37.3732 24 26.6666 24ZM60 40C62.2054 40 64 41.7946 64 44V49.3334C64 50.36 63.6 51.2906 62.96 52C63.6 52.7093 64 53.64 64 54.6666V60C64 62.2054 62.2054 64 60 64H20C17.7946 64 16 62.2054 16 60V54.6666C16 53.64 16.4 52.7094 17.04 52C16.4 51.2907 16 50.36 16 49.3334V44C16 41.7946 17.7946 40 20 40H60ZM60 61.3334C60.736 61.3334 61.3334 60.736 61.3334 60V54.6666C61.3334 53.9306 60.736 53.3332 60 53.3332H20C19.264 53.3332 18.6666 53.9306 18.6666 54.6666V60C18.6666 60.736 19.264 61.3334 20 61.3334H60ZM60 50.6668C60.736 50.6668 61.3334 50.0694 61.3334 49.3334V44C61.3334 43.264 60.736 42.6666 60 42.6666H20C19.264 42.6666 18.6666 43.264 18.6666 44V49.3334C18.6666 50.0694 19.264 50.6668 20 50.6668H60ZM57.3335 56H46.6669C45.9309 56 45.3335 56.5974 45.3335 57.3334C45.3335 58.0694 45.9309 58.6668 46.6669 58.6668H57.3335C58.0695 58.6668 58.6669 58.0694 58.6669 57.3334C58.6669 56.5974 58.0695 56 57.3335 56ZM21.3333 46.6669C21.3333 45.9309 21.9306 45.3335 22.6666 45.3335C23.4026 45.3335 24 45.9307 24 46.6667C24 47.4027 23.4026 48.0002 22.6666 48.0002C21.9306 48.0002 21.3333 47.4029 21.3333 46.6669ZM22.6666 56C21.9306 56 21.3333 56.5974 21.3333 57.3334C21.3333 58.0694 21.9306 58.6668 22.6666 58.6668C23.4026 58.6668 24 58.0694 24 57.3334C24 56.5974 23.4026 56 22.6666 56ZM46.6669 45.3335H57.3335C58.0695 45.3335 58.6667 45.9307 58.6669 46.6669C58.6669 47.4029 58.0695 48.0002 57.3335 48.0002H46.6669C45.9309 48.0002 45.3335 47.4029 45.3335 46.6669C45.3335 45.9309 45.9309 45.3335 46.6669 45.3335Z" fill="black"/>
<path d="M12.4506 59.432L12.5649 59.0487L12.5648 59.0486L12.4506 59.432ZM13.3466 61.0906L12.9637 60.975L12.963 60.9775L13.3466 61.0906ZM11.6906 61.9866L11.5764 62.37L11.5785 62.3706L11.6906 61.9866ZM50.6666 30.6185H51.0666V29.6956L50.3931 30.3266L50.6666 30.6185ZM2.66663 30.6185L2.94013 30.3266L2.26662 29.6955V30.6185H2.66663ZM12.384 46.0745L12.4996 45.6916L12.4989 45.6914L12.384 46.0745ZM13.2774 47.7359L12.8945 47.6202L12.8942 47.6211L13.2774 47.7359ZM11.616 48.6292L11.501 49.0124L11.5039 49.0132L11.616 48.6292ZM2.66663 43.9866L2.94008 43.6947L2.26662 43.0639V43.9866H2.66663ZM2.66663 17.2854L2.94012 16.9935L2.26662 16.3624V17.2854H2.66663ZM50.6666 17.2854H51.0666V16.3624L50.3931 16.9935L50.6666 17.2854ZM62.96 52L62.663 51.7321L62.4212 52L62.663 52.268L62.96 52ZM17.04 52L17.337 52.2679L17.5788 52L17.337 51.732L17.04 52ZM58.6669 46.6669H59.0669V46.6668L58.6669 46.6669ZM12.5648 59.0486C9.57634 58.1585 7.17879 57.0151 5.53759 55.7684C3.88476 54.5129 3.06663 53.2079 3.06663 52H2.26662C2.26662 53.5788 3.32318 55.091 5.05369 56.4055C6.79584 57.7288 9.29028 58.9081 12.3364 59.8154L12.5648 59.0486ZM13.7295 61.2063C14.0074 60.2861 13.4824 59.3221 12.5649 59.0487L12.3364 59.8153C12.8323 59.9631 13.1126 60.4819 12.9637 60.975L13.7295 61.2063ZM12.072 62.4426C12.82 62.4426 13.508 61.9576 13.7303 61.2038L12.963 60.9775C12.844 61.3809 12.476 61.6426 12.072 61.6426V62.4426ZM11.5785 62.3706C11.7411 62.4181 11.9069 62.4426 12.072 62.4426V61.6426C11.9864 61.6426 11.8961 61.6299 11.8027 61.6027L11.5785 62.3706ZM-0.4 52C-0.4 54.219 0.746167 56.2648 2.79957 58.0185C4.85018 59.7699 7.82958 61.2538 11.5764 62.37L11.8048 61.6033C8.12243 60.5062 5.2565 59.0648 3.31912 57.4102C1.38452 55.7579 0.4 53.917 0.4 52H-0.4ZM-0.4 12V52H0.4V12H-0.4ZM26.6667 -0.4C19.1494 -0.4 12.4238 0.924479 7.56223 3.11223C2.73357 5.28517 -0.4 8.38425 -0.4 12H0.4C0.4 8.88775 3.1238 5.98683 7.89052 3.84177C12.6243 1.71152 19.2321 0.4 26.6667 0.4V-0.4ZM53.7334 12C53.7334 8.38425 50.5998 5.28517 45.7712 3.11223C40.9097 0.924479 34.1841 -0.4 26.6667 -0.4V0.4C34.1014 0.4 40.7092 1.71152 45.4429 3.84177C50.2096 5.98683 52.9334 8.88775 52.9334 12H53.7334ZM53.7334 36V12H52.9334V36H53.7334ZM52 37.7334C52.9569 37.7334 53.7334 36.9569 53.7334 36H52.9334C52.9334 36.5151 52.5151 36.9334 52 36.9334V37.7334ZM50.2666 36C50.2666 36.9569 51.0431 37.7334 52 37.7334V36.9334C51.4849 36.9334 51.0666 36.5151 51.0666 36H50.2666ZM50.2666 30.6185V36H51.0666V30.6185H50.2666ZM26.6666 37.7331C32.0522 37.7331 37.0209 37.0519 41.1884 35.8624C45.3499 34.6747 48.7395 32.9723 50.9401 30.9104L50.3931 30.3266C48.3191 32.2699 45.062 33.9249 40.9688 35.0931C36.8816 36.2597 31.9877 36.9331 26.6666 36.9331V37.7331ZM2.39312 30.9104C4.59375 32.9724 7.98335 34.6747 12.1448 35.8625C16.3123 37.0519 21.2811 37.7331 26.6666 37.7331V36.9331C21.3455 36.9331 16.4516 36.2597 12.3644 35.0932C8.27121 33.9249 5.01412 32.27 2.94013 30.3266L2.39312 30.9104ZM3.06663 38.6665V30.6185H2.26662V38.6665H3.06663ZM12.4989 45.6914C9.5304 44.8013 7.14945 43.6606 5.51982 42.4184C3.87867 41.1674 3.06663 39.8682 3.06663 38.6665H2.26662C2.26662 40.2382 3.31596 41.7443 5.03483 43.0546C6.76524 44.3737 9.24298 45.5503 12.2691 46.4576L12.4989 45.6914ZM13.6603 47.8515C13.9379 46.9322 13.4167 45.9684 12.4996 45.6916L12.2684 46.4574C12.7648 46.6073 13.0436 47.1263 12.8945 47.6202L13.6603 47.8515ZM12 49.0853C12.7439 49.0853 13.4347 48.6045 13.6606 47.8507L12.8942 47.6211C12.7733 48.0247 12.4028 48.2852 12 48.2852V49.0853ZM11.5039 49.0132C11.6673 49.0609 11.8356 49.0853 12 49.0853V48.2852C11.9136 48.2852 11.8207 48.2723 11.7281 48.2453L11.5039 49.0132ZM2.39317 44.2786C4.43463 46.1908 7.51061 47.815 11.501 49.0124L11.731 48.2461C7.81189 47.0702 4.86137 45.4944 2.94008 43.6947L2.39317 44.2786ZM3.06663 52V43.9866H2.26662V52H3.06663ZM26.6666 3.06663C33.6963 3.06663 39.6417 4.28983 43.8154 6.04696C45.9036 6.92606 47.5317 7.93185 48.6309 8.97051C49.7344 10.0132 50.2666 11.0503 50.2666 12H51.0666C51.0666 10.743 50.3668 9.5101 49.1803 8.38902C47.9896 7.26393 46.2697 6.2122 44.1258 5.30964C39.8355 3.50342 33.781 2.26662 26.6666 2.26662V3.06663ZM3.06663 12C3.06663 11.0503 3.59882 10.0132 4.70234 8.97051C5.8016 7.93185 7.42969 6.92606 9.51783 6.04696C13.6915 4.28983 19.637 3.06663 26.6666 3.06663V2.26662C19.5523 2.26662 13.4977 3.50342 9.20742 5.30964C7.06356 6.2122 5.34365 7.26393 4.15291 8.38902C2.96643 9.5101 2.26662 10.743 2.26662 12H3.06663ZM26.6666 20.9334C19.637 20.9334 13.6915 19.7102 9.51783 17.953C7.42969 17.0739 5.8016 16.0682 4.70234 15.0295C3.59882 13.9868 3.06663 12.9497 3.06663 12H2.26662C2.26662 13.257 2.96643 14.4899 4.15291 15.611C5.34365 16.7361 7.06356 17.7878 9.20742 18.6904C13.4977 20.4966 19.5523 21.7334 26.6666 21.7334V20.9334ZM50.2666 12C50.2666 12.9497 49.7344 13.9868 48.6309 15.0295C47.5317 16.0682 45.9036 17.0739 43.8154 17.953C39.6417 19.7102 33.6963 20.9334 26.6666 20.9334V21.7334C33.781 21.7334 39.8355 20.4966 44.1258 18.6904C46.2697 17.7878 47.9896 16.7361 49.1803 15.611C50.3668 14.4899 51.0666 13.257 51.0666 12H50.2666ZM2.39313 17.5773C4.59382 19.6392 7.98341 21.3416 12.1449 22.5293C16.3123 23.7188 21.2811 24.4 26.6666 24.4V23.6C21.3455 23.6 16.4517 22.9266 12.3645 21.76C8.27128 20.5918 5.01418 18.9368 2.94012 16.9935L2.39313 17.5773ZM3.06663 25.3334V17.2854H2.26662V25.3334H3.06663ZM26.6666 34.2668C19.637 34.2668 13.6915 33.0435 9.51783 31.2864C7.42969 30.4073 5.8016 29.4015 4.70234 28.3629C3.59882 27.3202 3.06663 26.2831 3.06663 25.3334H2.26662C2.26662 26.5904 2.96643 27.8233 4.15291 28.9444C5.34365 30.0695 7.06356 31.1212 9.20742 32.0237C13.4977 33.83 19.5523 35.0668 26.6666 35.0668V34.2668ZM50.2666 25.3334C50.2666 26.2831 49.7344 27.3202 48.6309 28.3629C47.5317 29.4015 45.9036 30.4073 43.8154 31.2864C39.6417 33.0435 33.6963 34.2668 26.6666 34.2668V35.0668C33.781 35.0668 39.8355 33.83 44.1258 32.0237C46.2697 31.1212 47.9896 30.0695 49.1803 28.9444C50.3668 27.8233 51.0666 26.5904 51.0666 25.3334H50.2666ZM50.2666 17.2854V25.3334H51.0666V17.2854H50.2666ZM26.6666 24.4C32.0522 24.4 37.0209 23.7188 41.1884 22.5293C45.3499 21.3416 48.7395 19.6392 50.9401 17.5773L50.3931 16.9935C48.3191 18.9368 45.062 20.5918 40.9688 21.76C36.8816 22.9266 31.9877 23.6 26.6666 23.6V24.4ZM64.4 44C64.4 41.5737 62.4263 39.6 60 39.6V40.4C61.9845 40.4 63.6 42.0155 63.6 44H64.4ZM64.4 49.3334V44H63.6V49.3334H64.4ZM63.257 52.2679C63.9579 51.491 64.4 50.4667 64.4 49.3334H63.6C63.6 50.2533 63.2421 51.0902 62.663 51.7321L63.257 52.2679ZM64.4 54.6666C64.4 53.5333 63.958 52.5089 63.257 51.732L62.663 52.268C63.242 52.9096 63.6 53.7467 63.6 54.6666H64.4ZM64.4 60V54.6666H63.6V60H64.4ZM60 64.4C62.4263 64.4 64.4 62.4263 64.4 60H63.6C63.6 61.9845 61.9845 63.6 60 63.6V64.4ZM20 64.4H60V63.6H20V64.4ZM15.6 60C15.6 62.4263 17.5737 64.4 20 64.4V63.6C18.0155 63.6 16.4 61.9845 16.4 60H15.6ZM15.6 54.6666V60H16.4V54.6666H15.6ZM16.743 51.7321C16.0421 52.509 15.6 53.5333 15.6 54.6666H16.4C16.4 53.7467 16.7579 52.9098 17.337 52.2679L16.743 51.7321ZM15.6 49.3334C15.6 50.4667 16.042 51.4911 16.743 52.268L17.337 51.732C16.758 51.0904 16.4 50.2533 16.4 49.3334H15.6ZM15.6 44V49.3334H16.4V44H15.6ZM20 39.6C17.5737 39.6 15.6 41.5737 15.6 44H16.4C16.4 42.0155 18.0155 40.4 20 40.4V39.6ZM60 39.6H20V40.4H60V39.6ZM60.9334 60C60.9334 60.5151 60.5151 60.9334 60 60.9334V61.7334C60.9569 61.7334 61.7334 60.9569 61.7334 60H60.9334ZM60.9334 54.6666V60H61.7334V54.6666H60.9334ZM60 53.7332C60.5151 53.7332 60.9334 54.1515 60.9334 54.6666H61.7334C61.7334 53.7097 60.9569 52.9332 60 52.9332V53.7332ZM20 53.7332H60V52.9332H20V53.7332ZM19.0666 54.6666C19.0666 54.1515 19.4849 53.7332 20 53.7332V52.9332C19.0431 52.9332 18.2666 53.7097 18.2666 54.6666H19.0666ZM19.0666 60V54.6666H18.2666V60H19.0666ZM20 60.9334C19.4849 60.9334 19.0666 60.5151 19.0666 60H18.2666C18.2666 60.9569 19.0431 61.7334 20 61.7334V60.9334ZM60 60.9334H20V61.7334H60V60.9334ZM60.9334 49.3334C60.9334 49.8485 60.5151 50.2668 60 50.2668V51.0668C60.9569 51.0668 61.7334 50.2903 61.7334 49.3334H60.9334ZM60.9334 44V49.3334H61.7334V44H60.9334ZM60 43.0666C60.5151 43.0666 60.9334 43.4849 60.9334 44H61.7334C61.7334 43.0431 60.9569 42.2666 60 42.2666V43.0666ZM20 43.0666H60V42.2666H20V43.0666ZM19.0666 44C19.0666 43.4849 19.4849 43.0666 20 43.0666V42.2666C19.0431 42.2666 18.2666 43.0431 18.2666 44H19.0666ZM19.0666 49.3334V44H18.2666V49.3334H19.0666ZM20 50.2668C19.4849 50.2668 19.0666 49.8485 19.0666 49.3334H18.2666C18.2666 50.2903 19.0431 51.0668 20 51.0668V50.2668ZM60 50.2668H20V51.0668H60V50.2668ZM46.6669 56.4H57.3335V55.6H46.6669V56.4ZM45.7335 57.3334C45.7335 56.8183 46.1518 56.4 46.6669 56.4V55.6C45.71 55.6 44.9335 56.3765 44.9335 57.3334H45.7335ZM46.6669 58.2668C46.1518 58.2668 45.7335 57.8485 45.7335 57.3334H44.9335C44.9335 58.2903 45.71 59.0668 46.6669 59.0668V58.2668ZM57.3335 58.2668H46.6669V59.0668H57.3335V58.2668ZM58.2669 57.3334C58.2669 57.8485 57.8486 58.2668 57.3335 58.2668V59.0668C58.2904 59.0668 59.0669 58.2903 59.0669 57.3334H58.2669ZM57.3335 56.4C57.8486 56.4 58.2669 56.8183 58.2669 57.3334H59.0669C59.0669 56.3765 58.2904 55.6 57.3335 55.6V56.4ZM22.6666 44.9335C21.7097 44.9335 20.9333 45.71 20.9333 46.6669H21.7333C21.7333 46.1518 22.1515 45.7335 22.6666 45.7335V44.9335ZM24.4 46.6667C24.4 45.7098 23.6235 44.9335 22.6666 44.9335V45.7335C23.1818 45.7335 23.6 46.1517 23.6 46.6667H24.4ZM22.6666 48.4002C23.6236 48.4002 24.4 47.6236 24.4 46.6667H23.6C23.6 47.1819 23.1817 47.6002 22.6666 47.6002V48.4002ZM20.9333 46.6669C20.9333 47.6238 21.7097 48.4002 22.6666 48.4002V47.6002C22.1515 47.6002 21.7333 47.182 21.7333 46.6669H20.9333ZM21.7333 57.3334C21.7333 56.8183 22.1515 56.4 22.6666 56.4V55.6C21.7097 55.6 20.9333 56.3765 20.9333 57.3334H21.7333ZM22.6666 58.2668C22.1515 58.2668 21.7333 57.8485 21.7333 57.3334H20.9333C20.9333 58.2903 21.7097 59.0668 22.6666 59.0668V58.2668ZM23.6 57.3334C23.6 57.8485 23.1817 58.2668 22.6666 58.2668V59.0668C23.6235 59.0668 24.4 58.2903 24.4 57.3334H23.6ZM22.6666 56.4C23.1817 56.4 23.6 56.8183 23.6 57.3334H24.4C24.4 56.3765 23.6235 55.6 22.6666 55.6V56.4ZM57.3335 44.9335H46.6669V45.7335H57.3335V44.9335ZM59.0669 46.6668C59.0667 45.7099 58.2904 44.9335 57.3335 44.9335V45.7335C57.8485 45.7335 58.2668 46.1516 58.2669 46.6669L59.0669 46.6668ZM57.3335 48.4002C58.2904 48.4002 59.0669 47.6238 59.0669 46.6669H58.2669C58.2669 47.182 57.8486 47.6002 57.3335 47.6002V48.4002ZM46.6669 48.4002H57.3335V47.6002H46.6669V48.4002ZM44.9335 46.6669C44.9335 47.6238 45.71 48.4002 46.6669 48.4002V47.6002C46.1518 47.6002 45.7335 47.182 45.7335 46.6669H44.9335ZM46.6669 44.9335C45.71 44.9335 44.9335 45.71 44.9335 46.6669H45.7335C45.7335 46.1518 46.1518 45.7335 46.6669 45.7335V44.9335Z" fill="#F0F7EF"/>
</g>
<defs>
<clipPath id="clip0_339_49900">
<rect width="64" height="64" fill="white"/>
</clipPath>
</defs>
</svg>
