<svg width="20" height="18" viewBox="0 0 20 18" fill="none" xmlns="http://www.w3.org/2000/svg">
<path fill-rule="evenodd" clip-rule="evenodd" d="M12.5001 4C12.5001 2.61929 11.3808 1.5 10.0001 1.5C8.61935 1.5 7.50006 2.61929 7.50006 4C7.50006 5.38071 8.61935 6.5 10.0001 6.5C11.3808 6.5 12.5001 5.38071 12.5001 4ZM10.0001 0.5C11.9331 0.5 13.5001 2.067 13.5001 4C13.5001 5.933 11.9331 7.5 10.0001 7.5C8.06706 7.5 6.50006 5.933 6.50006 4C6.50006 2.067 8.06706 0.5 10.0001 0.5Z" fill="black"/>
<path fill-rule="evenodd" clip-rule="evenodd" d="M18.5001 14C18.5001 12.6193 17.3808 11.5 16.0001 11.5C14.6193 11.5 13.5001 12.6193 13.5001 14C13.5001 15.3807 14.6193 16.5 16.0001 16.5C17.3808 16.5 18.5001 15.3807 18.5001 14ZM16.0001 10.5C17.9331 10.5 19.5001 12.067 19.5001 14C19.5001 15.933 17.9331 17.5 16.0001 17.5C14.0671 17.5 12.5001 15.933 12.5001 14C12.5001 12.067 14.0671 10.5 16.0001 10.5Z" fill="black"/>
<path fill-rule="evenodd" clip-rule="evenodd" d="M6.50006 14C6.50006 12.6193 5.38077 11.5 4.00006 11.5C2.61935 11.5 1.50006 12.6193 1.50006 14C1.50006 15.3807 2.61935 16.5 4.00006 16.5C5.38077 16.5 6.50006 15.3807 6.50006 14ZM4.00006 10.5C5.93306 10.5 7.50006 12.067 7.50006 14C7.50006 15.933 5.93306 17.5 4.00006 17.5C2.06706 17.5 0.500061 15.933 0.500061 14C0.500061 12.067 2.06706 10.5 4.00006 10.5Z" fill="black"/>
<path fill-rule="evenodd" clip-rule="evenodd" d="M14.0713 11.7572L11.0713 6.75723L11.9288 6.24274L14.9288 11.2427L14.0713 11.7572Z" fill="black"/>
<path fill-rule="evenodd" clip-rule="evenodd" d="M8.92883 6.75723L5.92883 11.7572L5.07134 11.2427L8.07134 6.24274L8.92883 6.75723Z" fill="black"/>
</svg>
