<svg width="64" height="64" viewBox="0 0 64 64" fill="none" xmlns="http://www.w3.org/2000/svg">
<g clip-path="url(#clip0_342_50105)">
<mask id="path-1-inside-1_342_50105" fill="white">
<path fill-rule="evenodd" clip-rule="evenodd" d="M22.486 47.864C18.0573 47.3852 13.8649 45.623 10.424 42.794C8.38891 36.3895 8.64079 29.477 11.1366 23.2376C13.6325 16.9982 18.2174 11.8191 24.108 8.58497C25.165 9.25719 26.1775 9.99707 27.139 10.8C24.675 12.5504 22.7576 14.9633 21.609 17.759C18.409 25.031 19.009 35.012 23.161 43.187C23.2446 43.352 23.3723 43.4905 23.53 43.5873C23.6877 43.684 23.869 43.7352 24.054 43.735C24.2248 43.7346 24.3926 43.6906 24.5415 43.607C24.6903 43.5234 24.8154 43.4031 24.9046 43.2576C24.9938 43.112 25.0443 42.946 25.0512 42.7754C25.0581 42.6048 25.0212 42.4353 24.944 42.283C21.058 34.619 20.467 25.311 23.444 18.566C24.4975 15.9539 26.3277 13.7282 28.687 12.19C32.6775 16.0476 35.474 20.9718 36.743 26.375C36.8036 26.6333 36.9644 26.857 37.1899 26.9968C37.4154 27.1366 37.6872 27.1811 37.9455 27.1205C38.2038 27.0599 38.4275 26.8991 38.5673 26.6736C38.7071 26.4481 38.7516 26.1763 38.691 25.918C37.3863 20.3814 34.5789 15.3123 30.578 11.269C32.1754 10.7534 33.8617 10.5717 35.5322 10.7351C37.2027 10.8985 38.8219 11.4036 40.289 12.219C44.14 14.136 46.389 17.955 47.615 20.896C47.6356 21.0103 47.6586 21.1237 47.6817 21.2372L47.6817 21.2373C47.7204 21.4277 47.7591 21.6182 47.786 21.813C47.8226 22.0757 47.9621 22.3131 48.1737 22.4729C48.3853 22.6328 48.6518 22.7021 48.9145 22.6655C49.1772 22.6289 49.4146 22.4894 49.5745 22.2778C49.7344 22.0661 49.8036 21.7997 49.767 21.537C49.1181 16.9022 47.1813 12.5427 44.177 8.95438C41.1727 5.36608 37.2215 2.69311 32.773 1.23961C28.3245 -0.213881 23.5573 -0.389535 19.0139 0.73264C14.4705 1.85481 10.3333 4.22975 7.07303 7.58723C3.81278 10.9447 1.56041 15.1499 0.572197 19.7243C-0.416016 24.2987 -0.100388 29.0587 1.48317 33.4626C3.06672 37.8665 5.85462 41.7374 9.52964 44.635C13.2047 47.5326 17.6192 49.3405 22.271 49.853C22.5348 49.8815 22.7991 49.804 23.0057 49.6377C23.2124 49.4714 23.3445 49.2297 23.373 48.966C23.4015 48.7022 23.3241 48.4379 23.1577 48.2313C22.9914 48.0246 22.7498 47.8925 22.486 47.864ZM44.332 12.585C43.3811 11.7272 42.3193 11.001 41.175 10.426C39.463 9.484 37.5748 8.90607 35.6288 8.72848C33.6829 8.55089 31.7212 8.77746 29.867 9.39397C29.6149 9.48474 29.3705 9.59599 29.1268 9.70694C29.0805 9.72801 29.0343 9.74907 28.988 9.76997C28.0929 8.97912 27.1527 8.24088 26.172 7.55897C29.4117 6.11186 32.8899 5.27258 36.433 5.08297C39.623 6.9228 42.3303 9.49404 44.332 12.585ZM32.987 3.45097C29.9251 3.94841 26.956 4.90554 24.18 6.28997C23.2468 5.74308 22.2855 5.24572 21.3 4.79997C21.9314 4.03222 22.3544 3.11473 22.528 2.13597C23.349 2.04653 24.1742 2.00113 25 1.99997C27.7278 2.00144 30.4331 2.49291 32.987 3.45097ZM14.34 4.62897C15.3613 4.84103 16.3705 5.10809 17.363 5.42897C15.0213 6.57323 12.5075 7.32491 9.92201 7.65397C11.2724 6.47779 12.7551 5.46264 14.34 4.62897ZM17.326 3.32197C18.3122 2.96979 19.3216 2.68644 20.347 2.47397C20.1116 3.04182 19.7632 3.55589 19.323 3.98497C18.6683 3.74097 18.0027 3.51997 17.326 3.32197ZM7.63101 9.94797C11.531 9.57797 16.531 8.62697 19.701 6.27797C20.526 6.62297 21.333 7.00097 22.117 7.41797C16.6116 10.7044 12.2657 15.623 9.68229 21.4912C7.09886 27.3594 6.40606 33.8862 7.70001 40.166C4.03853 35.988 2.01418 30.6252 2.00149 25.0699C1.98881 19.5146 3.98865 14.1426 7.63101 9.94797ZM62.7 25.692C62.6497 25.5589 62.5717 25.438 62.4709 25.3375C62.3702 25.237 62.2492 25.1591 62.116 25.109C56.9935 23.5436 51.5374 23.4286 46.3535 24.7767C41.1696 26.1249 36.4608 28.8834 32.75 32.746C28.8868 36.4569 26.1277 41.166 24.7792 46.3502C23.4307 51.5345 23.5455 56.9911 25.111 62.114C25.1613 62.2472 25.2394 62.3681 25.3401 62.4686C25.4408 62.5691 25.5618 62.647 25.695 62.697C28.4253 63.5691 31.2781 63.9962 34.144 63.962C38.0505 63.9656 41.9173 63.179 45.512 61.6495C49.1066 60.12 52.3547 57.8793 55.061 55.062C58.9246 51.351 61.6839 46.6416 63.0324 41.4569C64.3809 36.2723 64.2659 30.8153 62.7 25.692ZM53.644 53.644C42.219 65.068 29.405 61.79 26.838 60.975C25.8084 57.3593 25.5549 53.5667 26.094 49.846C27.7218 52.1381 29.5428 54.2866 31.537 56.268C32.9662 57.7009 34.4796 59.0472 36.069 60.3C36.172 60.3838 36.2906 60.4463 36.4179 60.4837C36.5452 60.5212 36.6787 60.5329 36.8107 60.5183C36.9426 60.5036 37.0702 60.4628 37.1862 60.3983C37.3022 60.3338 37.4042 60.2468 37.4863 60.1425C37.5683 60.0381 37.6287 59.9185 37.6641 59.7906C37.6994 59.6626 37.7089 59.5289 37.692 59.3973C37.6752 59.2656 37.6323 59.1386 37.5658 59.0237C37.4994 58.9088 37.4107 58.8083 37.305 58.728C35.7785 57.5227 34.3246 56.2281 32.951 54.851C30.5654 52.4953 28.4522 49.8788 26.651 47.051C27.9306 42.1482 30.5298 37.69 34.166 34.161C45.59 22.739 58.406 26.016 60.972 26.831C62 30.4371 62.2552 34.2196 61.721 37.931C60.0972 35.6446 58.2805 33.5015 56.291 31.525C54.8113 30.0418 53.2417 28.6512 51.591 27.361C51.3817 27.1981 51.1163 27.1249 50.8531 27.1576C50.5899 27.1903 50.3505 27.3263 50.1875 27.5355C50.0245 27.7448 49.9514 28.0102 49.9841 28.2734C50.0168 28.5366 50.1527 28.7761 50.362 28.939C51.946 30.1789 53.4525 31.5147 54.873 32.939C57.2571 35.2914 59.3703 37.9033 61.173 40.726C59.8943 45.6405 57.2899 50.1092 53.644 53.644ZM50.013 36.378L51.868 34.524C51.9603 34.4285 52.0706 34.3523 52.1926 34.2999C52.3146 34.2475 52.4458 34.2199 52.5786 34.2188C52.7114 34.2176 52.8431 34.2429 52.966 34.2932C53.0889 34.3435 53.2005 34.4177 53.2944 34.5116C53.3883 34.6055 53.4625 34.7172 53.5128 34.8401C53.5631 34.963 53.5884 35.0947 53.5873 35.2274C53.5861 35.3602 53.5585 35.4914 53.5061 35.6134C53.4537 35.7354 53.3775 35.8458 53.282 35.938L51.427 37.792L52.742 39.107C52.9242 39.2956 53.025 39.5482 53.0227 39.8104C53.0204 40.0726 52.9152 40.3234 52.7298 40.5089C52.5444 40.6943 52.2936 40.7994 52.0314 40.8017C51.7692 40.804 51.5166 40.7032 51.328 40.521L50.013 39.206L47.279 41.941L48.593 43.255C48.6885 43.3473 48.7647 43.4576 48.8171 43.5796C48.8695 43.7016 48.8971 43.8329 48.8983 43.9656C48.8994 44.0984 48.8741 44.2301 48.8238 44.353C48.7735 44.4759 48.6993 44.5875 48.6054 44.6814C48.5115 44.7753 48.3999 44.8496 48.277 44.8999C48.1541 44.9501 48.0224 44.9754 47.8896 44.9743C47.7568 44.9731 47.6256 44.9455 47.5036 44.8931C47.3816 44.8407 47.2713 44.7645 47.179 44.669L45.865 43.355L43.13 46.089L44.445 47.4C44.5379 47.4929 44.6116 47.6031 44.6619 47.7244C44.7122 47.8458 44.7382 47.9758 44.7382 48.1072C44.7383 48.2385 44.7124 48.3686 44.6622 48.49C44.612 48.6113 44.5384 48.7216 44.4455 48.8145C44.3527 48.9074 44.2424 48.9812 44.1211 49.0315C43.9998 49.0818 43.8697 49.1077 43.7384 49.1077C43.607 49.1078 43.4769 49.082 43.3556 49.0317C43.2342 48.9815 43.1239 48.9079 43.031 48.815L41.716 47.5L38.985 50.238L40.3 51.553C40.4875 51.7409 40.5927 51.9956 40.5924 52.2611C40.5921 52.5266 40.4864 52.781 40.2985 52.9685C40.1106 53.156 39.8559 53.2612 39.5904 53.2609C39.325 53.2607 39.0705 53.1549 38.883 52.967L37.568 51.652L35.714 53.506C35.6218 53.6015 35.5114 53.6777 35.3894 53.7301C35.2674 53.7826 35.1362 53.8101 35.0034 53.8113C34.8706 53.8124 34.7389 53.7871 34.6161 53.7369C34.4932 53.6866 34.3815 53.6123 34.2876 53.5184C34.1937 53.4245 34.1195 53.3129 34.0692 53.19C34.0189 53.0671 33.9936 52.9354 33.9948 52.8026C33.9959 52.6699 34.0235 52.5386 34.0759 52.4166C34.1283 52.2946 34.2045 52.1843 34.3 52.092L36.153 50.239L34.729 48.814C34.5468 48.6254 34.4461 48.3728 34.4483 48.1106C34.4506 47.8484 34.5558 47.5976 34.7412 47.4122C34.9266 47.2268 35.1774 47.1216 35.4396 47.1194C35.7018 47.1171 35.9544 47.2179 36.143 47.4L37.565 48.824L40.3 46.089L38.877 44.664C38.6948 44.4754 38.5941 44.2228 38.5963 43.9606C38.5986 43.6984 38.7038 43.4476 38.8892 43.2622C39.0746 43.0768 39.3254 42.9716 39.5876 42.9694C39.8498 42.9671 40.1024 43.0679 40.291 43.25L41.716 44.673L44.451 41.939L43.026 40.514C42.8438 40.3254 42.7431 40.0728 42.7453 39.8106C42.7476 39.5484 42.8528 39.2976 43.0382 39.1122C43.2236 38.9268 43.4744 38.8216 43.7366 38.8194C43.9988 38.8171 44.2514 38.9179 44.44 39.1L45.866 40.527L48.6 37.792L47.174 36.367C47.0785 36.2748 47.0023 36.1644 46.9499 36.0424C46.8975 35.9204 46.8699 35.7892 46.8688 35.6564C46.8676 35.5237 46.8929 35.392 46.9432 35.2691C46.9935 35.1462 47.0677 35.0345 47.1616 34.9406C47.2555 34.8467 47.3672 34.7725 47.4901 34.7222C47.613 34.6719 47.7446 34.6466 47.8774 34.6478C48.0102 34.6489 48.1414 34.6765 48.2634 34.7289C48.3854 34.7813 48.4958 34.8575 48.588 34.953L50.013 36.378Z"/>
</mask>
<path fill-rule="evenodd" clip-rule="evenodd" d="M22.486 47.864C18.0573 47.3852 13.8649 45.623 10.424 42.794C8.38891 36.3895 8.64079 29.477 11.1366 23.2376C13.6325 16.9982 18.2174 11.8191 24.108 8.58497C25.165 9.25719 26.1775 9.99707 27.139 10.8C24.675 12.5504 22.7576 14.9633 21.609 17.759C18.409 25.031 19.009 35.012 23.161 43.187C23.2446 43.352 23.3723 43.4905 23.53 43.5873C23.6877 43.684 23.869 43.7352 24.054 43.735C24.2248 43.7346 24.3926 43.6906 24.5415 43.607C24.6903 43.5234 24.8154 43.4031 24.9046 43.2576C24.9938 43.112 25.0443 42.946 25.0512 42.7754C25.0581 42.6048 25.0212 42.4353 24.944 42.283C21.058 34.619 20.467 25.311 23.444 18.566C24.4975 15.9539 26.3277 13.7282 28.687 12.19C32.6775 16.0476 35.474 20.9718 36.743 26.375C36.8036 26.6333 36.9644 26.857 37.1899 26.9968C37.4154 27.1366 37.6872 27.1811 37.9455 27.1205C38.2038 27.0599 38.4275 26.8991 38.5673 26.6736C38.7071 26.4481 38.7516 26.1763 38.691 25.918C37.3863 20.3814 34.5789 15.3123 30.578 11.269C32.1754 10.7534 33.8617 10.5717 35.5322 10.7351C37.2027 10.8985 38.8219 11.4036 40.289 12.219C44.14 14.136 46.389 17.955 47.615 20.896C47.6356 21.0103 47.6586 21.1237 47.6817 21.2372L47.6817 21.2373C47.7204 21.4277 47.7591 21.6182 47.786 21.813C47.8226 22.0757 47.9621 22.3131 48.1737 22.4729C48.3853 22.6328 48.6518 22.7021 48.9145 22.6655C49.1772 22.6289 49.4146 22.4894 49.5745 22.2778C49.7344 22.0661 49.8036 21.7997 49.767 21.537C49.1181 16.9022 47.1813 12.5427 44.177 8.95438C41.1727 5.36608 37.2215 2.69311 32.773 1.23961C28.3245 -0.213881 23.5573 -0.389535 19.0139 0.73264C14.4705 1.85481 10.3333 4.22975 7.07303 7.58723C3.81278 10.9447 1.56041 15.1499 0.572197 19.7243C-0.416016 24.2987 -0.100388 29.0587 1.48317 33.4626C3.06672 37.8665 5.85462 41.7374 9.52964 44.635C13.2047 47.5326 17.6192 49.3405 22.271 49.853C22.5348 49.8815 22.7991 49.804 23.0057 49.6377C23.2124 49.4714 23.3445 49.2297 23.373 48.966C23.4015 48.7022 23.3241 48.4379 23.1577 48.2313C22.9914 48.0246 22.7498 47.8925 22.486 47.864ZM44.332 12.585C43.3811 11.7272 42.3193 11.001 41.175 10.426C39.463 9.484 37.5748 8.90607 35.6288 8.72848C33.6829 8.55089 31.7212 8.77746 29.867 9.39397C29.6149 9.48474 29.3705 9.59599 29.1268 9.70694C29.0805 9.72801 29.0343 9.74907 28.988 9.76997C28.0929 8.97912 27.1527 8.24088 26.172 7.55897C29.4117 6.11186 32.8899 5.27258 36.433 5.08297C39.623 6.9228 42.3303 9.49404 44.332 12.585ZM32.987 3.45097C29.9251 3.94841 26.956 4.90554 24.18 6.28997C23.2468 5.74308 22.2855 5.24572 21.3 4.79997C21.9314 4.03222 22.3544 3.11473 22.528 2.13597C23.349 2.04653 24.1742 2.00113 25 1.99997C27.7278 2.00144 30.4331 2.49291 32.987 3.45097ZM14.34 4.62897C15.3613 4.84103 16.3705 5.10809 17.363 5.42897C15.0213 6.57323 12.5075 7.32491 9.92201 7.65397C11.2724 6.47779 12.7551 5.46264 14.34 4.62897ZM17.326 3.32197C18.3122 2.96979 19.3216 2.68644 20.347 2.47397C20.1116 3.04182 19.7632 3.55589 19.323 3.98497C18.6683 3.74097 18.0027 3.51997 17.326 3.32197ZM7.63101 9.94797C11.531 9.57797 16.531 8.62697 19.701 6.27797C20.526 6.62297 21.333 7.00097 22.117 7.41797C16.6116 10.7044 12.2657 15.623 9.68229 21.4912C7.09886 27.3594 6.40606 33.8862 7.70001 40.166C4.03853 35.988 2.01418 30.6252 2.00149 25.0699C1.98881 19.5146 3.98865 14.1426 7.63101 9.94797ZM62.7 25.692C62.6497 25.5589 62.5717 25.438 62.4709 25.3375C62.3702 25.237 62.2492 25.1591 62.116 25.109C56.9935 23.5436 51.5374 23.4286 46.3535 24.7767C41.1696 26.1249 36.4608 28.8834 32.75 32.746C28.8868 36.4569 26.1277 41.166 24.7792 46.3502C23.4307 51.5345 23.5455 56.9911 25.111 62.114C25.1613 62.2472 25.2394 62.3681 25.3401 62.4686C25.4408 62.5691 25.5618 62.647 25.695 62.697C28.4253 63.5691 31.2781 63.9962 34.144 63.962C38.0505 63.9656 41.9173 63.179 45.512 61.6495C49.1066 60.12 52.3547 57.8793 55.061 55.062C58.9246 51.351 61.6839 46.6416 63.0324 41.4569C64.3809 36.2723 64.2659 30.8153 62.7 25.692ZM53.644 53.644C42.219 65.068 29.405 61.79 26.838 60.975C25.8084 57.3593 25.5549 53.5667 26.094 49.846C27.7218 52.1381 29.5428 54.2866 31.537 56.268C32.9662 57.7009 34.4796 59.0472 36.069 60.3C36.172 60.3838 36.2906 60.4463 36.4179 60.4837C36.5452 60.5212 36.6787 60.5329 36.8107 60.5183C36.9426 60.5036 37.0702 60.4628 37.1862 60.3983C37.3022 60.3338 37.4042 60.2468 37.4863 60.1425C37.5683 60.0381 37.6287 59.9185 37.6641 59.7906C37.6994 59.6626 37.7089 59.5289 37.692 59.3973C37.6752 59.2656 37.6323 59.1386 37.5658 59.0237C37.4994 58.9088 37.4107 58.8083 37.305 58.728C35.7785 57.5227 34.3246 56.2281 32.951 54.851C30.5654 52.4953 28.4522 49.8788 26.651 47.051C27.9306 42.1482 30.5298 37.69 34.166 34.161C45.59 22.739 58.406 26.016 60.972 26.831C62 30.4371 62.2552 34.2196 61.721 37.931C60.0972 35.6446 58.2805 33.5015 56.291 31.525C54.8113 30.0418 53.2417 28.6512 51.591 27.361C51.3817 27.1981 51.1163 27.1249 50.8531 27.1576C50.5899 27.1903 50.3505 27.3263 50.1875 27.5355C50.0245 27.7448 49.9514 28.0102 49.9841 28.2734C50.0168 28.5366 50.1527 28.7761 50.362 28.939C51.946 30.1789 53.4525 31.5147 54.873 32.939C57.2571 35.2914 59.3703 37.9033 61.173 40.726C59.8943 45.6405 57.2899 50.1092 53.644 53.644ZM50.013 36.378L51.868 34.524C51.9603 34.4285 52.0706 34.3523 52.1926 34.2999C52.3146 34.2475 52.4458 34.2199 52.5786 34.2188C52.7114 34.2176 52.8431 34.2429 52.966 34.2932C53.0889 34.3435 53.2005 34.4177 53.2944 34.5116C53.3883 34.6055 53.4625 34.7172 53.5128 34.8401C53.5631 34.963 53.5884 35.0947 53.5873 35.2274C53.5861 35.3602 53.5585 35.4914 53.5061 35.6134C53.4537 35.7354 53.3775 35.8458 53.282 35.938L51.427 37.792L52.742 39.107C52.9242 39.2956 53.025 39.5482 53.0227 39.8104C53.0204 40.0726 52.9152 40.3234 52.7298 40.5089C52.5444 40.6943 52.2936 40.7994 52.0314 40.8017C51.7692 40.804 51.5166 40.7032 51.328 40.521L50.013 39.206L47.279 41.941L48.593 43.255C48.6885 43.3473 48.7647 43.4576 48.8171 43.5796C48.8695 43.7016 48.8971 43.8329 48.8983 43.9656C48.8994 44.0984 48.8741 44.2301 48.8238 44.353C48.7735 44.4759 48.6993 44.5875 48.6054 44.6814C48.5115 44.7753 48.3999 44.8496 48.277 44.8999C48.1541 44.9501 48.0224 44.9754 47.8896 44.9743C47.7568 44.9731 47.6256 44.9455 47.5036 44.8931C47.3816 44.8407 47.2713 44.7645 47.179 44.669L45.865 43.355L43.13 46.089L44.445 47.4C44.5379 47.4929 44.6116 47.6031 44.6619 47.7244C44.7122 47.8458 44.7382 47.9758 44.7382 48.1072C44.7383 48.2385 44.7124 48.3686 44.6622 48.49C44.612 48.6113 44.5384 48.7216 44.4455 48.8145C44.3527 48.9074 44.2424 48.9812 44.1211 49.0315C43.9998 49.0818 43.8697 49.1077 43.7384 49.1077C43.607 49.1078 43.4769 49.082 43.3556 49.0317C43.2342 48.9815 43.1239 48.9079 43.031 48.815L41.716 47.5L38.985 50.238L40.3 51.553C40.4875 51.7409 40.5927 51.9956 40.5924 52.2611C40.5921 52.5266 40.4864 52.781 40.2985 52.9685C40.1106 53.156 39.8559 53.2612 39.5904 53.2609C39.325 53.2607 39.0705 53.1549 38.883 52.967L37.568 51.652L35.714 53.506C35.6218 53.6015 35.5114 53.6777 35.3894 53.7301C35.2674 53.7826 35.1362 53.8101 35.0034 53.8113C34.8706 53.8124 34.7389 53.7871 34.6161 53.7369C34.4932 53.6866 34.3815 53.6123 34.2876 53.5184C34.1937 53.4245 34.1195 53.3129 34.0692 53.19C34.0189 53.0671 33.9936 52.9354 33.9948 52.8026C33.9959 52.6699 34.0235 52.5386 34.0759 52.4166C34.1283 52.2946 34.2045 52.1843 34.3 52.092L36.153 50.239L34.729 48.814C34.5468 48.6254 34.4461 48.3728 34.4483 48.1106C34.4506 47.8484 34.5558 47.5976 34.7412 47.4122C34.9266 47.2268 35.1774 47.1216 35.4396 47.1194C35.7018 47.1171 35.9544 47.2179 36.143 47.4L37.565 48.824L40.3 46.089L38.877 44.664C38.6948 44.4754 38.5941 44.2228 38.5963 43.9606C38.5986 43.6984 38.7038 43.4476 38.8892 43.2622C39.0746 43.0768 39.3254 42.9716 39.5876 42.9694C39.8498 42.9671 40.1024 43.0679 40.291 43.25L41.716 44.673L44.451 41.939L43.026 40.514C42.8438 40.3254 42.7431 40.0728 42.7453 39.8106C42.7476 39.5484 42.8528 39.2976 43.0382 39.1122C43.2236 38.9268 43.4744 38.8216 43.7366 38.8194C43.9988 38.8171 44.2514 38.9179 44.44 39.1L45.866 40.527L48.6 37.792L47.174 36.367C47.0785 36.2748 47.0023 36.1644 46.9499 36.0424C46.8975 35.9204 46.8699 35.7892 46.8688 35.6564C46.8676 35.5237 46.8929 35.392 46.9432 35.2691C46.9935 35.1462 47.0677 35.0345 47.1616 34.9406C47.2555 34.8467 47.3672 34.7725 47.4901 34.7222C47.613 34.6719 47.7446 34.6466 47.8774 34.6478C48.0102 34.6489 48.1414 34.6765 48.2634 34.7289C48.3854 34.7813 48.4958 34.8575 48.588 34.953L50.013 36.378Z" fill="black"/>
<path d="M10.424 42.794L10.2334 42.8545L10.2513 42.9109L10.297 42.9485L10.424 42.794ZM22.486 47.864L22.4645 48.0628H22.4645L22.486 47.864ZM24.108 8.58497L24.2153 8.41621L24.1155 8.35271L24.0118 8.40965L24.108 8.58497ZM27.139 10.8L27.2548 10.963L27.4664 10.8128L27.2672 10.6465L27.139 10.8ZM21.609 17.759L21.7921 17.8396L21.794 17.835L21.609 17.759ZM23.161 43.187L23.3394 43.0966L23.3393 43.0964L23.161 43.187ZM24.054 43.735L24.0542 43.935H24.0544L24.054 43.735ZM24.944 42.283L25.1224 42.1926L25.1224 42.1925L24.944 42.283ZM23.444 18.566L23.6271 18.6468L23.6295 18.6408L23.444 18.566ZM28.687 12.19L28.826 12.0462L28.7114 11.9353L28.5778 12.0224L28.687 12.19ZM36.743 26.375L36.9377 26.3293L36.9377 26.3292L36.743 26.375ZM38.691 25.918L38.8857 25.8723L38.8857 25.8721L38.691 25.918ZM30.578 11.269L30.5166 11.0786L30.2071 11.1785L30.4358 11.4096L30.578 11.269ZM40.289 12.219L40.1918 12.394L40.1999 12.398L40.289 12.219ZM47.615 20.896L47.8119 20.8606L47.808 20.8391L47.7996 20.819L47.615 20.896ZM47.6817 21.2372L47.8782 21.1998L47.8777 21.1974L47.6817 21.2372ZM47.6817 21.2373L47.4852 21.2748L47.4857 21.2772L47.6817 21.2373ZM47.786 21.813L47.5879 21.8404L47.5879 21.8406L47.786 21.813ZM49.767 21.537L49.9651 21.5094L49.9651 21.5092L49.767 21.537ZM32.773 1.23961L32.7109 1.42972L32.773 1.23961ZM19.0139 0.73264L18.9659 0.538475L19.0139 0.73264ZM7.07303 7.58723L6.92955 7.4479L7.07303 7.58723ZM1.48317 33.4626L1.29497 33.5302L1.48317 33.4626ZM22.271 49.853L22.2491 50.0518L22.2495 50.0518L22.271 49.853ZM41.175 10.426L41.0785 10.6013L41.0852 10.6047L41.175 10.426ZM44.332 12.585L44.1981 12.7335L44.4999 12.4763L44.332 12.585ZM29.867 9.39397L29.8039 9.20413L29.7993 9.20579L29.867 9.39397ZM29.1268 9.70694L29.0439 9.52492L29.1268 9.70694ZM28.988 9.76997L28.8556 9.91985L28.9525 10.0055L29.0703 9.95224L28.988 9.76997ZM26.172 7.55897L26.0904 7.37636L25.7669 7.52087L26.0578 7.72317L26.172 7.55897ZM36.433 5.08297L36.5329 4.90972L36.4816 4.88009L36.4223 4.88326L36.433 5.08297ZM24.18 6.28997L24.0789 6.46252L24.1723 6.51729L24.2693 6.46895L24.18 6.28997ZM32.987 3.45097L33.0191 3.64838L33.7613 3.52781L33.0573 3.26371L32.987 3.45097ZM21.3 4.79997L21.1455 4.67293L20.9797 4.87459L21.2176 4.9822L21.3 4.79997ZM22.528 2.13597L22.5064 1.93715L22.3573 1.95339L22.3311 2.10103L22.528 2.13597ZM25 1.99997L25.0001 1.79997L24.9997 1.79997L25 1.99997ZM17.363 5.42897L17.4508 5.60866L17.896 5.39111L17.4245 5.23867L17.363 5.42897ZM14.34 4.62897L14.3807 4.43315L14.3104 4.41856L14.2469 4.45196L14.34 4.62897ZM9.92201 7.65397L9.79066 7.50315L9.29429 7.93548L9.94726 7.85237L9.92201 7.65397ZM20.347 2.47397L20.5318 2.55057L20.6765 2.20145L20.3064 2.27813L20.347 2.47397ZM17.326 3.32197L17.2588 3.13362L16.6784 3.34087L17.2698 3.51392L17.326 3.32197ZM19.323 3.98497L19.2532 4.17238L19.3719 4.21663L19.4626 4.12819L19.323 3.98497ZM19.701 6.27797L19.7782 6.09345L19.6733 6.04959L19.5819 6.11728L19.701 6.27797ZM7.63101 9.94797L7.61212 9.74886L7.53246 9.75642L7.48 9.81684L7.63101 9.94797ZM22.117 7.41797L22.2195 7.5897L22.524 7.40793L22.2109 7.24139L22.117 7.41797ZM7.70001 40.166L7.5496 40.2978L8.04873 40.8673L7.8959 40.1256L7.70001 40.166ZM2.00149 25.0699L1.80149 25.0704L2.00149 25.0699ZM62.7 25.692L62.8917 25.6335L62.8871 25.6214L62.7 25.692ZM62.116 25.109L62.1865 24.9214L62.1745 24.9178L62.116 25.109ZM46.3535 24.7767L46.3032 24.5832L46.3535 24.7767ZM32.75 32.746L32.8887 32.8904L32.8942 32.8846L32.75 32.746ZM24.7792 46.3502L24.9728 46.4006L24.7792 46.3502ZM25.111 62.114L24.9193 62.1726L24.9239 62.1847L25.111 62.114ZM25.3401 62.4686L25.4814 62.327H25.4814L25.3401 62.4686ZM25.695 62.697L25.6246 62.8845L25.6342 62.8876L25.695 62.697ZM34.144 63.962L34.1442 63.762L34.1416 63.7621L34.144 63.962ZM55.061 55.062L54.9223 54.9177L54.9168 54.9235L55.061 55.062ZM63.0324 41.4569L62.8388 41.4066L63.0324 41.4569ZM26.838 60.975L26.6456 61.0298L26.6751 61.1331L26.7775 61.1657L26.838 60.975ZM53.644 53.644L53.5048 53.5004L53.5026 53.5026L53.644 53.644ZM26.094 49.846L26.2571 49.7302L25.9677 49.3228L25.8961 49.8174L26.094 49.846ZM31.537 56.268L31.6786 56.1268L31.678 56.1262L31.537 56.268ZM36.069 60.3L36.1952 60.1449L36.1928 60.143L36.069 60.3ZM36.4179 60.4837L36.3614 60.6756H36.3614L36.4179 60.4837ZM36.8107 60.5183L36.7886 60.3195L36.8107 60.5183ZM37.6641 59.7906L37.4713 59.7373L37.4713 59.7373L37.6641 59.7906ZM37.5658 59.0237L37.3927 59.1239L37.3927 59.1239L37.5658 59.0237ZM37.305 58.728L37.181 58.885L37.184 58.8873L37.305 58.728ZM32.951 54.851L33.0926 54.7098L33.0915 54.7087L32.951 54.851ZM26.651 47.051L26.4575 47.0005L26.4355 47.0849L26.4823 47.1585L26.651 47.051ZM34.166 34.161L34.3053 34.3046L34.3074 34.3025L34.166 34.161ZM60.972 26.831L61.1643 26.7762L61.1349 26.6729L61.0325 26.6404L60.972 26.831ZM61.721 37.931L61.5579 38.0469L61.8477 38.4548L61.919 37.9595L61.721 37.931ZM56.291 31.525L56.1494 31.6663L56.15 31.6669L56.291 31.525ZM51.591 27.361L51.7142 27.2035L51.7139 27.2033L51.591 27.361ZM50.8531 27.1576L50.8778 27.3561L50.8531 27.1576ZM50.1875 27.5355L50.0297 27.4127H50.0297L50.1875 27.5355ZM49.9841 28.2734L49.7856 28.2981V28.2981L49.9841 28.2734ZM50.362 28.939L50.4853 28.7816L50.4849 28.7813L50.362 28.939ZM54.873 32.939L54.7314 33.0803L54.7325 33.0814L54.873 32.939ZM61.173 40.726L61.3666 40.7764L61.3885 40.6919L61.3416 40.6184L61.173 40.726ZM51.868 34.524L52.0094 34.6655L52.0119 34.663L51.868 34.524ZM50.013 36.378L49.8716 36.5195L50.013 36.6608L50.1544 36.5195L50.013 36.378ZM52.5786 34.2188L52.5803 34.4188H52.5803L52.5786 34.2188ZM53.2944 34.5116L53.153 34.6531L53.153 34.6531L53.2944 34.5116ZM53.5128 34.8401L53.3277 34.9158H53.3277L53.5128 34.8401ZM53.282 35.938L53.143 35.7942L53.1406 35.7966L53.282 35.938ZM51.427 37.792L51.2856 37.6506L51.1441 37.792L51.2856 37.9335L51.427 37.792ZM52.742 39.107L52.8859 38.9681L52.8834 38.9656L52.742 39.107ZM51.328 40.521L51.1866 40.6625L51.1891 40.6649L51.328 40.521ZM50.013 39.206L50.1544 39.0646L50.013 38.9232L49.8716 39.0646L50.013 39.206ZM47.279 41.941L47.1376 41.7996L46.9962 41.9411L47.1376 42.0825L47.279 41.941ZM48.593 43.255L48.4516 43.3965L48.4541 43.3989L48.593 43.255ZM47.179 44.669L47.3229 44.5301L47.3204 44.5276L47.179 44.669ZM45.865 43.355L46.0064 43.2136L45.865 43.0722L45.7236 43.2136L45.865 43.355ZM43.13 46.089L42.9886 45.9476L42.8469 46.0892L42.9888 46.2307L43.13 46.089ZM44.445 47.4L44.5864 47.2586L44.5862 47.2584L44.445 47.4ZM43.031 48.815L42.8896 48.9565L42.8896 48.9565L43.031 48.815ZM41.716 47.5L41.8574 47.3586L41.7158 47.217L41.5744 47.3588L41.716 47.5ZM38.985 50.238L38.8434 50.0968L38.7023 50.2382L38.8436 50.3795L38.985 50.238ZM40.3 51.553L40.4416 51.4118L40.4414 51.4116L40.3 51.553ZM40.2985 52.9685L40.4398 53.1101H40.4398L40.2985 52.9685ZM38.883 52.967L39.0246 52.8258L39.0244 52.8256L38.883 52.967ZM37.568 51.652L37.7094 51.5106L37.568 51.3692L37.4266 51.5106L37.568 51.652ZM35.714 53.506L35.5726 53.3646L35.5702 53.3671L35.714 53.506ZM34.6161 53.7369L34.6918 53.5518V53.5518L34.6161 53.7369ZM34.2876 53.5184L34.429 53.377L34.429 53.377L34.2876 53.5184ZM33.9948 52.8026L34.1948 52.8044V52.8044L33.9948 52.8026ZM34.3 52.092L34.439 52.2359L34.4414 52.2335L34.3 52.092ZM36.153 50.239L36.2944 50.3805L36.4358 50.2391L36.2945 50.0977L36.153 50.239ZM34.729 48.814L34.5851 48.953L34.5875 48.9554L34.729 48.814ZM36.143 47.4L36.2846 47.2587L36.282 47.2562L36.143 47.4ZM37.565 48.824L37.4235 48.9654L37.5649 49.107L37.7064 48.9655L37.565 48.824ZM40.3 46.089L40.4414 46.2305L40.5828 46.0891L40.4415 45.9477L40.3 46.089ZM38.877 44.664L38.7331 44.803L38.7355 44.8054L38.877 44.664ZM40.291 43.25L40.4324 43.1085L40.43 43.1062L40.291 43.25ZM41.716 44.673L41.5747 44.8146L41.7161 44.9558L41.8574 44.8145L41.716 44.673ZM44.451 41.939L44.5924 42.0805L44.7339 41.9391L44.5924 41.7976L44.451 41.939ZM43.026 40.514L42.8821 40.653L42.8846 40.6555L43.026 40.514ZM44.44 39.1L44.5815 38.9586L44.5789 38.9562L44.44 39.1ZM45.866 40.527L45.7245 40.6684L45.866 40.81L46.0075 40.6684L45.866 40.527ZM48.6 37.792L48.7415 37.9334L48.8829 37.792L48.7414 37.6506L48.6 37.792ZM47.174 36.367L47.3154 36.2255L47.313 36.2232L47.174 36.367ZM46.9432 35.2691L47.1283 35.3448H47.1283L46.9432 35.2691ZM47.1616 34.9406L47.303 35.0821L47.303 35.0821L47.1616 34.9406ZM47.8774 34.6478L47.8757 34.8478H47.8757L47.8774 34.6478ZM48.588 34.953L48.4441 35.092L48.4466 35.0945L48.588 34.953ZM10.297 42.9485C13.768 45.8022 17.997 47.5798 22.4645 48.0628L22.5075 47.6651C18.1175 47.1905 13.9618 45.4437 10.551 42.6395L10.297 42.9485ZM10.9509 23.1634C8.43789 29.4458 8.18427 36.4059 10.2334 42.8545L10.6146 42.7334C8.59355 36.3731 8.8437 29.5083 11.3223 23.3119L10.9509 23.1634ZM24.0118 8.40965C18.0805 11.6661 13.464 16.8809 10.9509 23.1634L11.3223 23.3119C13.8009 17.1155 18.3542 11.9721 24.2043 8.76029L24.0118 8.40965ZM27.2672 10.6465C26.2991 9.83803 25.2796 9.09305 24.2153 8.41621L24.0007 8.75373C25.0504 9.42133 26.0559 10.1561 27.0108 10.9535L27.2672 10.6465ZM21.794 17.835C22.9282 15.0743 24.8217 12.6915 27.2548 10.963L27.0232 10.6369C24.5284 12.4092 22.587 14.8523 21.424 17.683L21.794 17.835ZM23.3393 43.0964C19.2099 34.9659 18.62 25.0481 21.7921 17.8395L21.426 17.6784C18.198 25.0139 18.8081 35.0581 22.9827 43.2775L23.3393 43.0964ZM23.6346 43.4168C23.5085 43.3394 23.4063 43.2286 23.3394 43.0966L22.9826 43.2774C23.0829 43.4754 23.2362 43.6417 23.4254 43.7577L23.6346 43.4168ZM24.0538 43.535C23.9058 43.5351 23.7607 43.4942 23.6346 43.4168L23.4254 43.7577C23.6146 43.8738 23.8322 43.9352 24.0542 43.935L24.0538 43.535ZM24.4436 43.4326C24.3244 43.4995 24.1902 43.5347 24.0536 43.535L24.0544 43.935C24.2593 43.9346 24.4607 43.8817 24.6393 43.7814L24.4436 43.4326ZM24.7341 43.153C24.6627 43.2695 24.5627 43.3657 24.4436 43.4326L24.6393 43.7814C24.818 43.6811 24.968 43.5368 25.0751 43.3621L24.7341 43.153ZM24.8513 42.7673C24.8458 42.9038 24.8054 43.0366 24.7341 43.153L25.0751 43.3621C25.1822 43.1874 25.2427 42.9882 25.251 42.7835L24.8513 42.7673ZM24.7656 42.3734C24.8274 42.4952 24.8569 42.6308 24.8513 42.7673L25.251 42.7835C25.2593 42.5788 25.215 42.3753 25.1224 42.1926L24.7656 42.3734ZM23.261 18.4852C20.2557 25.2945 20.8576 34.6659 24.7656 42.3734L25.1224 42.1925C21.2585 34.5721 20.6784 25.3274 23.627 18.6467L23.261 18.4852ZM28.5778 12.0224C26.1841 13.5831 24.3274 15.8411 23.2585 18.4912L23.6295 18.6408C24.6677 16.0667 26.4712 13.8734 28.7962 12.3575L28.5778 12.0224ZM36.9377 26.3292C35.6599 20.8887 32.844 15.9305 28.826 12.0462L28.548 12.3338C32.5109 16.1648 35.2881 21.0548 36.5483 26.4207L36.9377 26.3292ZM37.2952 26.8268C37.1148 26.7149 36.9862 26.536 36.9377 26.3293L36.5483 26.4206C36.621 26.7306 36.8139 26.999 37.0845 27.1667L37.2952 26.8268ZM37.8998 26.9258C37.6932 26.9742 37.4757 26.9386 37.2952 26.8268L37.0845 27.1667C37.3551 27.3345 37.6812 27.3879 37.9912 27.3152L37.8998 26.9258ZM38.3973 26.5682C38.2855 26.7487 38.1065 26.8773 37.8998 26.9258L37.9912 27.3152C38.3012 27.2425 38.5695 27.0496 38.7373 26.779L38.3973 26.5682ZM38.4963 25.9636C38.5448 26.1703 38.5092 26.3878 38.3973 26.5682L38.7373 26.779C38.9051 26.5084 38.9584 26.1823 38.8857 25.8723L38.4963 25.9636ZM30.4358 11.4096C34.4109 15.4268 37.2001 20.4631 38.4963 25.9638L38.8857 25.8721C37.5726 20.2997 34.747 15.1978 30.7202 11.1283L30.4358 11.4096ZM35.5517 10.5361C33.8539 10.37 32.14 10.5546 30.5166 11.0786L30.6394 11.4593C32.2107 10.9522 33.8695 10.7734 35.5127 10.9342L35.5517 10.5361ZM40.3862 12.0442C38.895 11.2155 37.2495 10.7022 35.5517 10.5361L35.5127 10.9342C37.156 11.0949 38.7487 11.5917 40.1919 12.3938L40.3862 12.0442ZM47.7996 20.819C46.5672 17.8627 44.2939 13.9892 40.3781 12.0399L40.1999 12.398C43.9861 14.2828 46.2108 18.0472 47.4304 20.9729L47.7996 20.819ZM47.8777 21.1974C47.8545 21.0835 47.8319 20.9723 47.8119 20.8606L47.4182 20.9314C47.4392 21.0482 47.4627 21.1639 47.4857 21.277L47.8777 21.1974ZM47.8782 21.1999L47.8781 21.1998L47.4852 21.2746L47.4852 21.2748L47.8782 21.1999ZM47.9841 21.7856C47.9562 21.5835 47.9162 21.3869 47.8777 21.1975L47.4857 21.2772C47.5246 21.4685 47.562 21.6528 47.5879 21.8404L47.9841 21.7856ZM48.2943 22.3134C48.1249 22.1855 48.0134 21.9955 47.9841 21.7854L47.5879 21.8406C47.6318 22.1558 47.7992 22.4407 48.0532 22.6325L48.2943 22.3134ZM48.8869 22.4674C48.6768 22.4967 48.4636 22.4413 48.2943 22.3134L48.0532 22.6325C48.3071 22.8244 48.6269 22.9075 48.9421 22.8636L48.8869 22.4674ZM49.4149 22.1572C49.287 22.3265 49.0971 22.4381 48.8869 22.4674L48.9421 22.8636C49.2573 22.8196 49.5422 22.6523 49.7341 22.3983L49.4149 22.1572ZM49.5689 21.5646C49.5982 21.7747 49.5428 21.9879 49.4149 22.1572L49.7341 22.3983C49.9259 22.1444 50.009 21.8246 49.9651 21.5094L49.5689 21.5646ZM44.0237 9.08278C47.0039 12.6424 48.9252 16.967 49.5689 21.5647L49.9651 21.5092C49.311 16.8374 47.3587 12.443 44.3304 8.82599L44.0237 9.08278ZM32.7109 1.42972C37.1238 2.87159 41.0434 5.52318 44.0237 9.08278L44.3304 8.82599C41.302 5.20898 37.3192 2.51463 32.8351 1.0495L32.7109 1.42972ZM19.0618 0.926805C23.5689 -0.186392 28.298 -0.0121434 32.7109 1.42972L32.8351 1.0495C28.351 -0.415618 23.5457 -0.592677 18.9659 0.538475L19.0618 0.926805ZM7.21651 7.72656C10.4507 4.39594 14.5548 2.04 19.0618 0.926805L18.9659 0.538475C14.3862 1.66963 10.2159 4.06357 6.92955 7.4479L7.21651 7.72656ZM0.767688 19.7665C1.748 15.2287 3.98235 11.0572 7.21651 7.72656L6.92955 7.4479C3.64322 10.8322 1.37283 15.0711 0.376707 19.6821L0.767688 19.7665ZM1.67137 33.3949C0.100483 29.0262 -0.21262 24.3044 0.767688 19.7665L0.376707 19.6821C-0.619412 24.2931 -0.301259 29.0911 1.29497 33.5302L1.67137 33.3949ZM9.65347 44.478C6.00785 41.6036 3.24226 37.7635 1.67137 33.3949L1.29497 33.5302C2.89119 37.9694 5.70139 41.8713 9.4058 44.7921L9.65347 44.478ZM22.2929 49.6542C17.6783 49.1458 13.2991 47.3524 9.65347 44.478L9.4058 44.7921C13.1102 47.7129 17.5601 49.5352 22.2491 50.0518L22.2929 49.6542ZM22.8803 49.4819C22.715 49.615 22.5035 49.6769 22.2925 49.6541L22.2495 50.0518C22.566 50.086 22.8831 49.9931 23.1311 49.7935L22.8803 49.4819ZM23.1742 48.9445C23.1514 49.1555 23.0457 49.3488 22.8803 49.4819L23.1311 49.7935C23.3791 49.5939 23.5376 49.304 23.5719 48.9875L23.1742 48.9445ZM23.0019 48.3567C23.135 48.522 23.197 48.7335 23.1742 48.9445L23.5719 48.9875C23.6061 48.671 23.5132 48.3538 23.3135 48.1059L23.0019 48.3567ZM22.4645 48.0628C22.6755 48.0856 22.8689 48.1913 23.0019 48.3567L23.3135 48.1059C23.1139 47.8579 22.824 47.6993 22.5075 47.6651L22.4645 48.0628ZM41.0852 10.6047C42.2135 11.1717 43.2604 11.8877 44.1981 12.7335L44.466 12.4365C43.5018 11.5667 42.4251 10.8304 41.2648 10.2473L41.0852 10.6047ZM35.6107 8.92765C37.5292 9.10274 39.3908 9.67251 41.0786 10.6012L41.2714 10.2507C39.5353 9.29548 37.6204 8.70941 35.647 8.52931L35.6107 8.92765ZM29.9301 9.58376C31.7582 8.97594 33.6922 8.75257 35.6107 8.92765L35.647 8.52931C33.6736 8.34921 31.6843 8.57898 29.8039 9.20419L29.9301 9.58376ZM29.2097 9.88897C29.4546 9.77744 29.6916 9.66968 29.9348 9.58215L29.7993 9.20579C29.5382 9.29979 29.2864 9.41453 29.0439 9.52492L29.2097 9.88897ZM29.0703 9.95224C29.1169 9.93119 29.1635 9.91001 29.2097 9.88897L29.0439 9.52492C28.9976 9.54601 28.9516 9.56694 28.9057 9.5877L29.0703 9.95224ZM26.0578 7.72317C27.0321 8.40067 27.9663 9.13413 28.8556 9.91985L29.1204 9.62009C28.2195 8.82412 27.2732 8.0811 26.2862 7.39477L26.0578 7.72317ZM36.4223 4.88326C32.8547 5.07418 29.3525 5.91925 26.0904 7.37636L26.2536 7.74158C29.4709 6.30447 32.925 5.47099 36.4437 5.28268L36.4223 4.88326ZM44.4999 12.4763C42.4809 9.35874 39.7503 6.76538 36.5329 4.90972L36.3331 5.25622C39.4956 7.08022 42.1796 9.62935 44.1641 12.6937L44.4999 12.4763ZM24.2693 6.46895C27.0272 5.0935 29.9771 4.14259 33.0191 3.64838L32.9549 3.25356C29.8732 3.75422 26.8847 4.71757 24.0908 6.11099L24.2693 6.46895ZM21.2176 4.9822C22.1967 5.42506 23.1518 5.91918 24.0789 6.46252L24.2811 6.11742C23.3419 5.56698 22.3743 5.06639 21.3824 4.61774L21.2176 4.9822ZM22.3311 2.10103C22.1634 3.04595 21.7551 3.93173 21.1455 4.67293L21.4545 4.92701C22.1077 4.13272 22.5453 3.1835 22.7249 2.17091L22.3311 2.10103ZM24.9997 1.79997C24.1668 1.80114 23.3344 1.84693 22.5064 1.93715L22.5497 2.33479C23.3636 2.24613 24.1816 2.20112 25.0003 2.19997L24.9997 1.79997ZM33.0573 3.26371C30.4809 2.29724 27.7518 1.80145 25.0001 1.79997L24.9999 2.19997C27.7037 2.20142 30.3852 2.68858 32.9168 3.63823L33.0573 3.26371ZM17.4245 5.23867C16.4252 4.91557 15.4091 4.64667 14.3807 4.43315L14.2994 4.82479C15.3136 5.03539 16.3158 5.30061 17.3015 5.61927L17.4245 5.23867ZM9.94726 7.85237C12.5545 7.52055 15.0894 6.76254 17.4508 5.60866L17.2752 5.24928C14.9532 6.38392 12.4605 7.12928 9.89676 7.45557L9.94726 7.85237ZM14.2469 4.45196C12.6482 5.29285 11.1528 6.31679 9.79066 7.50315L10.0534 7.80479C11.3921 6.63879 12.8619 5.63243 14.4331 4.80598L14.2469 4.45196ZM20.3064 2.27813C19.272 2.49248 18.2536 2.77833 17.2588 3.13362L17.3933 3.51032C18.3707 3.16125 19.3713 2.8804 20.3876 2.66981L20.3064 2.27813ZM19.4626 4.12819C19.9222 3.68019 20.286 3.14345 20.5318 2.55057L20.1623 2.39737C19.9372 2.94019 19.6042 3.43159 19.1834 3.84175L19.4626 4.12819ZM17.2698 3.51392C17.9419 3.71058 18.603 3.93007 19.2532 4.17238L19.3929 3.79756C18.7337 3.55187 18.0634 3.32936 17.3822 3.13002L17.2698 3.51392ZM19.5819 6.11728C16.4597 8.43091 11.509 9.37916 7.61212 9.74886L7.6499 10.1471C11.5531 9.77678 16.6024 8.82303 19.8201 6.43866L19.5819 6.11728ZM22.2109 7.24139C21.4209 6.82121 20.6083 6.4406 19.7782 6.09345L19.6239 6.46249C20.4437 6.80534 21.2451 7.18073 22.0231 7.59455L22.2109 7.24139ZM9.86533 21.5718C12.432 15.7416 16.7498 10.8548 22.2195 7.5897L22.0145 7.24624C16.4735 10.554 12.0994 15.5044 9.49924 21.4106L9.86533 21.5718ZM7.8959 40.1256C6.61033 33.8865 7.29864 27.402 9.86533 21.5718L9.49924 21.4106C6.89909 27.3168 6.2018 33.8859 7.50413 40.2063L7.8959 40.1256ZM1.80149 25.0704C1.81429 30.674 3.85626 36.0835 7.5496 40.2978L7.85043 40.0342C4.2208 35.8925 2.21407 30.5764 2.20149 25.0694L1.80149 25.0704ZM7.48 9.81684C3.80594 14.048 1.7887 19.4667 1.80149 25.0704L2.20149 25.0694C2.18892 19.5624 4.17135 14.2373 7.78203 10.0791L7.48 9.81684ZM62.3296 25.479C62.4102 25.5595 62.4727 25.6562 62.5129 25.7627L62.8871 25.6214C62.8268 25.4616 62.7331 25.3166 62.6122 25.196L62.3296 25.479ZM62.0457 25.2963C62.1523 25.3363 62.2491 25.3986 62.3296 25.479L62.6122 25.196C62.4914 25.0753 62.3462 24.9818 62.1863 24.9218L62.0457 25.2963ZM46.4039 24.9703C51.552 23.6315 56.9704 23.7457 62.0575 25.3003L62.1745 24.9178C57.0166 23.3416 51.5229 23.2257 46.3032 24.5832L46.4039 24.9703ZM32.8942 32.8846C36.5795 29.0486 41.2558 26.3091 46.4039 24.9703L46.3032 24.5832C41.0835 25.9406 36.3422 28.7182 32.6058 32.6075L32.8942 32.8846ZM24.9728 46.4006C26.3119 41.2521 29.052 36.5755 32.8885 32.8903L32.6115 32.6018C28.7215 36.3383 25.9434 41.0798 24.5856 46.2999L24.9728 46.4006ZM25.3023 62.0556C23.7476 56.968 23.6336 51.5491 24.9728 46.4006L24.5856 46.2999C23.2278 51.5199 23.3435 57.0142 24.9197 62.1725L25.3023 62.0556ZM25.4814 62.327C25.4008 62.2466 25.3383 62.1499 25.2981 62.0434L24.9239 62.1847C24.9842 62.3444 25.0779 62.4895 25.1988 62.6101L25.4814 62.327ZM25.7653 62.5098C25.6587 62.4698 25.5619 62.4075 25.4814 62.327L25.1988 62.6101C25.3196 62.7308 25.4648 62.8242 25.6247 62.8843L25.7653 62.5098ZM34.1416 63.7621C31.2971 63.796 28.4657 63.372 25.7559 62.5065L25.6342 62.8876C28.3849 63.7661 31.259 64.1964 34.1464 64.162L34.1416 63.7621ZM45.4337 61.4655C41.8638 62.9844 38.0237 63.7656 34.1442 63.762L34.1438 64.162C38.0773 64.1656 41.9708 63.3736 45.5903 61.8335L45.4337 61.4655ZM54.9168 54.9235C52.2292 57.7213 49.0035 59.9465 45.4337 61.4655L45.5903 61.8335C49.2097 60.2935 52.4803 58.0373 55.2052 55.2006L54.9168 54.9235ZM62.8388 41.4066C61.4996 46.5555 58.7594 51.2324 54.9225 54.9178L55.1996 55.2063C59.0898 51.4696 61.8681 46.7277 63.226 41.5073L62.8388 41.4066ZM62.5087 25.7505C64.0638 30.8384 64.178 36.2577 62.8388 41.4066L63.226 41.5073C64.5838 36.2868 64.4679 30.7922 62.8913 25.6336L62.5087 25.7505ZM26.7775 61.1657C29.3705 61.9889 42.2808 65.289 53.7854 53.7855L53.5026 53.5026C42.1572 64.847 29.4395 61.5912 26.8985 60.7844L26.7775 61.1657ZM25.8961 49.8174C25.3529 53.5659 25.6084 57.3869 26.6456 61.0298L27.0304 60.9203C26.0085 57.3316 25.7569 53.5675 26.2919 49.8747L25.8961 49.8174ZM31.678 56.1262C29.6918 54.1528 27.8782 52.013 26.2571 49.7302L25.9309 49.9619C27.5653 52.2632 29.3937 54.4204 31.396 56.4099L31.678 56.1262ZM36.1928 60.143C34.6096 58.8951 33.1022 57.554 31.6786 56.1268L31.3954 56.4093C32.8303 57.8477 34.3495 59.1994 35.9452 60.4571L36.1928 60.143ZM36.4743 60.2919C36.3725 60.2619 36.2776 60.2119 36.1952 60.1449L35.9428 60.4552C36.0663 60.5557 36.2086 60.6306 36.3614 60.6756L36.4743 60.2919ZM36.7886 60.3195C36.683 60.3312 36.5762 60.3218 36.4743 60.2919L36.3614 60.6756C36.5142 60.7205 36.6744 60.7346 36.8328 60.717L36.7886 60.3195ZM37.089 60.2235C36.9962 60.2751 36.8941 60.3078 36.7886 60.3195L36.8328 60.717C36.9911 60.6994 37.1443 60.6505 37.2835 60.5731L37.089 60.2235ZM37.329 60.0189C37.2634 60.1023 37.1818 60.1719 37.089 60.2235L37.2835 60.5731C37.4227 60.4957 37.545 60.3913 37.6435 60.2661L37.329 60.0189ZM37.4713 59.7373C37.443 59.8397 37.3947 59.9354 37.329 60.0189L37.6435 60.2661C37.7419 60.1409 37.8145 59.9973 37.8569 59.8438L37.4713 59.7373ZM37.4937 59.4227C37.5072 59.528 37.4996 59.635 37.4713 59.7373L37.8569 59.8438C37.8993 59.6903 37.9107 59.5298 37.8904 59.3718L37.4937 59.4227ZM37.3927 59.1239C37.4458 59.2158 37.4802 59.3174 37.4937 59.4227L37.8904 59.3718C37.8702 59.2139 37.8187 59.0615 37.7389 58.9236L37.3927 59.1239ZM37.184 58.8873C37.2686 58.9515 37.3395 59.032 37.3927 59.1239L37.7389 58.9236C37.6592 58.7857 37.5528 58.6651 37.426 58.5688L37.184 58.8873ZM32.8094 54.9923C34.1886 56.3749 35.6484 57.6747 37.1811 58.885L37.4289 58.5711C35.9087 57.3706 34.4607 56.0812 33.0926 54.7098L32.8094 54.9923ZM26.4823 47.1585C28.2915 49.9989 30.4142 52.6271 32.8105 54.9934L33.0915 54.7087C30.7166 52.3635 28.6128 49.7588 26.8197 46.9436L26.4823 47.1585ZM34.0267 34.0175C30.3643 37.5719 27.7463 42.0623 26.4575 47.0005L26.8445 47.1015C28.1149 42.2341 30.6953 37.808 34.3053 34.3046L34.0267 34.0175ZM61.0325 26.6404C58.4405 25.8172 45.5282 22.518 34.0246 34.0196L34.3074 34.3025C45.6518 22.96 58.3715 26.2149 60.9115 27.0217L61.0325 26.6404ZM61.919 37.9595C62.4572 34.2202 62.2 30.4094 61.1643 26.7762L60.7797 26.8859C61.7999 30.4649 62.0532 34.2189 61.523 37.9026L61.919 37.9595ZM56.15 31.6669C58.1315 33.6353 59.9407 35.7698 61.5579 38.0469L61.8841 37.8152C60.2536 35.5195 58.4296 33.3676 56.432 31.3832L56.15 31.6669ZM51.4678 27.5186C53.1121 28.8037 54.6756 30.1889 56.1494 31.6663L56.4326 31.3838C54.9471 29.8948 53.3713 28.4987 51.7142 27.2035L51.4678 27.5186ZM50.8778 27.3561C51.0884 27.3299 51.3007 27.3885 51.4681 27.5188L51.7139 27.2033C51.4628 27.0077 51.1443 26.9199 50.8284 26.9591L50.8778 27.3561ZM50.3453 27.6584C50.4757 27.491 50.6672 27.3823 50.8778 27.3561L50.8284 26.9591C50.5126 26.9984 50.2253 27.1615 50.0297 27.4127L50.3453 27.6584ZM50.1825 28.2488C50.1564 28.0382 50.2149 27.8258 50.3453 27.6584L50.0297 27.4127C49.8341 27.6638 49.7463 27.9823 49.7856 28.2981L50.1825 28.2488ZM50.4849 28.7813C50.3175 28.6509 50.2087 28.4593 50.1825 28.2488L49.7856 28.2981C49.8249 28.614 49.988 28.9013 50.2391 29.0968L50.4849 28.7813ZM55.0146 32.7978C53.5884 31.3677 52.0757 30.0265 50.4853 28.7816L50.2387 29.0965C51.8163 30.3314 53.3167 31.6618 54.7314 33.0803L55.0146 32.7978ZM61.3416 40.6184C59.5308 37.7831 57.4082 35.1595 55.0135 32.7967L54.7325 33.0814C57.106 35.4233 59.2097 38.0236 61.0044 40.8337L61.3416 40.6184ZM53.7832 53.7876C57.4554 50.2273 60.0787 45.7264 61.3666 40.7764L60.9794 40.6757C59.71 45.5547 57.1243 49.9911 53.5048 53.5005L53.7832 53.7876ZM51.7266 34.3826L49.8716 36.2366L50.1544 36.5195L52.0094 34.6655L51.7266 34.3826ZM52.1137 34.1162C51.9673 34.1791 51.8349 34.2705 51.7241 34.3851L52.0119 34.663C52.0857 34.5866 52.1739 34.5256 52.2715 34.4837L52.1137 34.1162ZM52.5769 34.0188C52.4175 34.0202 52.2601 34.0533 52.1137 34.1162L52.2715 34.4837C52.3691 34.4418 52.4741 34.4197 52.5803 34.4188L52.5769 34.0188ZM53.0417 34.1081C52.8942 34.0478 52.7362 34.0174 52.5769 34.0188L52.5803 34.4188C52.6866 34.4179 52.7919 34.4381 52.8902 34.4783L53.0417 34.1081ZM53.4358 34.3702C53.3232 34.2575 53.1892 34.1684 53.0417 34.1081L52.8902 34.4783C52.9886 34.5186 53.0779 34.5779 53.153 34.6531L53.4358 34.3702ZM53.6979 34.7644C53.6376 34.6169 53.5485 34.4829 53.4358 34.3702L53.153 34.6531C53.2281 34.7282 53.2875 34.8175 53.3277 34.9158L53.6979 34.7644ZM53.7873 35.2292C53.7886 35.0698 53.7583 34.9118 53.6979 34.7644L53.3277 34.9158C53.3679 35.0141 53.3882 35.1195 53.3873 35.2257L53.7873 35.2292ZM53.6899 35.6924C53.7528 35.546 53.7859 35.3885 53.7873 35.2292L53.3873 35.2257C53.3863 35.3319 53.3643 35.4369 53.3223 35.5345L53.6899 35.6924ZM53.421 36.0819C53.5356 35.9712 53.627 35.8388 53.6899 35.6924L53.3223 35.5345C53.2804 35.6321 53.2195 35.7204 53.1431 35.7942L53.421 36.0819ZM51.5684 37.9335L53.4234 36.0795L53.1406 35.7966L51.2856 37.6506L51.5684 37.9335ZM52.8834 38.9656L51.5684 37.6506L51.2856 37.9335L52.6006 39.2485L52.8834 38.9656ZM53.2227 39.8122C53.2254 39.4975 53.1045 39.1944 52.8859 38.9681L52.5982 39.246C52.7439 39.3969 52.8245 39.5989 52.8227 39.8087L53.2227 39.8122ZM52.8713 40.6503C53.0937 40.4278 53.2199 40.1268 53.2227 39.8122L52.8227 39.8087C52.8209 40.0185 52.7367 40.2191 52.5884 40.3674L52.8713 40.6503ZM52.0331 41.0017C52.3478 40.999 52.6488 40.8728 52.8713 40.6503L52.5884 40.3674C52.4401 40.5158 52.2394 40.5999 52.0297 40.6017L52.0331 41.0017ZM51.1891 40.6649C51.4154 40.8835 51.7185 41.0044 52.0331 41.0017L52.0297 40.6017C51.8199 40.6035 51.6178 40.5229 51.4669 40.3772L51.1891 40.6649ZM49.8716 39.3475L51.1866 40.6625L51.4694 40.3796L50.1544 39.0646L49.8716 39.3475ZM47.4205 42.0824L50.1545 39.3474L49.8716 39.0646L47.1376 41.7996L47.4205 42.0824ZM48.7344 43.1136L47.4204 41.7996L47.1376 42.0825L48.4516 43.3965L48.7344 43.1136ZM49.0009 43.5007C48.938 43.3543 48.8466 43.2219 48.7319 43.1112L48.4541 43.3989C48.5305 43.4727 48.5914 43.561 48.6333 43.6586L49.0009 43.5007ZM49.0983 43.9639C49.0969 43.8046 49.0638 43.6471 49.0009 43.5007L48.6333 43.6586C48.6753 43.7562 48.6973 43.8612 48.6983 43.9674L49.0983 43.9639ZM49.0089 44.4287C49.0693 44.2812 49.0996 44.1232 49.0983 43.9639L48.6983 43.9674C48.6992 44.0736 48.6789 44.1789 48.6387 44.2773L49.0089 44.4287ZM48.7468 44.8229C48.8595 44.7102 48.9486 44.5762 49.0089 44.4287L48.6387 44.2773C48.5985 44.3756 48.5391 44.4649 48.464 44.54L48.7468 44.8229ZM48.3527 45.085C48.5002 45.0246 48.6342 44.9355 48.7468 44.8229L48.464 44.54C48.3889 44.6151 48.2995 44.6745 48.2012 44.7148L48.3527 45.085ZM47.8879 45.1743C48.0472 45.1757 48.2052 45.1453 48.3527 45.085L48.2012 44.7148C48.1029 44.755 47.9976 44.7752 47.8913 44.7743L47.8879 45.1743ZM47.4247 45.0769C47.5711 45.1398 47.7285 45.1729 47.8879 45.1743L47.8913 44.7743C47.7851 44.7734 47.6801 44.7513 47.5825 44.7094L47.4247 45.0769ZM47.0352 44.808C47.1458 44.9226 47.2783 45.014 47.4247 45.0769L47.5825 44.7094C47.4849 44.6674 47.3967 44.6065 47.3229 44.5301L47.0352 44.808ZM45.7236 43.4965L47.0376 44.8105L47.3204 44.5276L46.0064 43.2136L45.7236 43.4965ZM43.2714 46.2305L46.0064 43.4965L45.7236 43.2136L42.9886 45.9476L43.2714 46.2305ZM44.5862 47.2584L43.2712 45.9474L42.9888 46.2307L44.3038 47.5417L44.5862 47.2584ZM44.8467 47.6478C44.7863 47.5023 44.6979 47.37 44.5864 47.2586L44.3036 47.5415C44.378 47.6158 44.4369 47.704 44.4772 47.8011L44.8467 47.6478ZM44.9382 48.1071C44.9382 47.9495 44.9071 47.7934 44.8467 47.6478L44.4772 47.8011C44.5174 47.8981 44.5382 48.0022 44.5382 48.1073L44.9382 48.1071ZM44.847 48.5664C44.9073 48.4208 44.9383 48.2647 44.9382 48.1071L44.5382 48.1073C44.5382 48.2123 44.5176 48.3164 44.4774 48.4135L44.847 48.5664ZM44.587 48.9559C44.6984 48.8444 44.7868 48.7121 44.847 48.5664L44.4774 48.4135C44.4372 48.5106 44.3783 48.5988 44.304 48.6732L44.587 48.9559ZM44.1977 49.2162C44.3433 49.1558 44.4756 49.0674 44.587 48.9559L44.304 48.6732C44.2298 48.7475 44.1416 48.8065 44.0445 48.8467L44.1977 49.2162ZM43.7384 49.3077C43.896 49.3077 44.0521 49.2766 44.1977 49.2162L44.0445 48.8467C43.9474 48.887 43.8434 48.9077 43.7383 48.9077L43.7384 49.3077ZM43.2791 49.2165C43.4247 49.2768 43.5808 49.3078 43.7384 49.3077L43.7383 48.9077C43.6332 48.9078 43.5291 48.8871 43.432 48.8469L43.2791 49.2165ZM42.8896 48.9565C43.0011 49.0679 43.1335 49.1563 43.2791 49.2165L43.432 48.8469C43.3349 48.8068 43.2467 48.7478 43.1724 48.6736L42.8896 48.9565ZM41.5746 47.6415L42.8896 48.9565L43.1724 48.6736L41.8574 47.3586L41.5746 47.6415ZM39.1266 50.3793L41.8576 47.6413L41.5744 47.3588L38.8434 50.0968L39.1266 50.3793ZM40.4414 51.4116L39.1264 50.0966L38.8436 50.3795L40.1586 51.6945L40.4414 51.4116ZM40.7924 52.2613C40.7928 51.9428 40.6666 51.6372 40.4416 51.4118L40.1584 51.6943C40.3085 51.8447 40.3926 52.0485 40.3924 52.2609L40.7924 52.2613ZM40.4398 53.1101C40.6652 52.8851 40.7921 52.5798 40.7924 52.2613L40.3924 52.2609C40.3922 52.4733 40.3076 52.6769 40.1572 52.827L40.4398 53.1101ZM39.5902 53.4609C39.9087 53.4613 40.2143 53.3351 40.4398 53.1101L40.1572 52.827C40.0069 52.977 39.8031 53.0612 39.5907 53.0609L39.5902 53.4609ZM38.7414 53.1083C38.9664 53.3338 39.2717 53.4606 39.5902 53.4609L39.5907 53.0609C39.3782 53.0607 39.1746 52.9761 39.0246 52.8258L38.7414 53.1083ZM37.4266 51.7935L38.7416 53.1085L39.0244 52.8256L37.7094 51.5106L37.4266 51.7935ZM35.8554 53.6475L37.7094 51.7935L37.4266 51.5106L35.5726 53.3646L35.8554 53.6475ZM35.4683 53.9139C35.6148 53.851 35.7472 53.7596 35.8579 53.645L35.5702 53.3671C35.4964 53.4435 35.4081 53.5045 35.3105 53.5464L35.4683 53.9139ZM35.0051 54.0113C35.1645 54.0099 35.3219 53.9768 35.4683 53.9139L35.3105 53.5464C35.2129 53.5883 35.1079 53.6104 35.0017 53.6113L35.0051 54.0113ZM34.5403 53.922C34.6878 53.9823 34.8458 54.0127 35.0051 54.0113L35.0017 53.6113C34.8954 53.6122 34.7901 53.592 34.6918 53.5518L34.5403 53.922ZM34.1462 53.6599C34.2589 53.7725 34.3928 53.8616 34.5403 53.922L34.6918 53.5518C34.5935 53.5115 34.5041 53.4521 34.429 53.377L34.1462 53.6599ZM33.8841 53.2657C33.9444 53.4132 34.0335 53.5472 34.1462 53.6599L34.429 53.377C34.3539 53.3019 34.2945 53.2126 34.2543 53.1143L33.8841 53.2657ZM33.7948 52.8009C33.7934 52.9602 33.8237 53.1182 33.8841 53.2657L34.2543 53.1143C34.2141 53.0159 34.1938 52.9106 34.1948 52.8044L33.7948 52.8009ZM33.8921 52.3377C33.8293 52.4841 33.7962 52.6416 33.7948 52.8009L34.1948 52.8044C34.1957 52.6981 34.2177 52.5932 34.2597 52.4956L33.8921 52.3377ZM34.1611 51.9482C34.0464 52.0589 33.955 52.1913 33.8921 52.3377L34.2597 52.4956C34.3016 52.398 34.3625 52.3097 34.4389 52.2359L34.1611 51.9482ZM36.0116 50.0976L34.1586 51.9506L34.4414 52.2335L36.2944 50.3805L36.0116 50.0976ZM34.5875 48.9554L36.0115 50.3804L36.2945 50.0977L34.8705 48.6727L34.5875 48.9554ZM34.2483 48.1089C34.2456 48.4235 34.3666 48.7267 34.5852 48.953L34.8729 48.6751C34.7271 48.5242 34.6465 48.3221 34.6483 48.1124L34.2483 48.1089ZM34.5998 47.2708C34.3773 47.4933 34.2511 47.7943 34.2483 48.1089L34.6483 48.1124C34.6501 47.9026 34.7343 47.702 34.8826 47.5536L34.5998 47.2708ZM35.4379 46.9194C35.1232 46.9221 34.8223 47.0483 34.5998 47.2708L34.8826 47.5536C35.0309 47.4053 35.2316 47.3212 35.4413 47.3194L35.4379 46.9194ZM36.282 47.2562C36.0556 47.0376 35.7525 46.9166 35.4379 46.9194L35.4413 47.3194C35.6511 47.3175 35.8532 47.3982 36.0041 47.5439L36.282 47.2562ZM37.7065 48.6827L36.2845 47.2587L36.0015 47.5414L37.4235 48.9654L37.7065 48.6827ZM40.1586 45.9476L37.4236 48.6826L37.7064 48.9655L40.4414 46.2305L40.1586 45.9476ZM38.7355 44.8054L40.1585 46.2304L40.4415 45.9477L39.0185 44.5227L38.7355 44.8054ZM38.3963 43.9589C38.3936 44.2735 38.5146 44.5767 38.7332 44.803L39.0209 44.5251C38.8751 44.3742 38.7945 44.1721 38.7963 43.9624L38.3963 43.9589ZM38.7478 43.1208C38.5253 43.3433 38.3991 43.6443 38.3963 43.9589L38.7963 43.9624C38.7981 43.7526 38.8823 43.552 39.0306 43.4036L38.7478 43.1208ZM39.5859 42.7694C39.2712 42.7721 38.9703 42.8983 38.7478 43.1208L39.0306 43.4036C39.1789 43.2553 39.3796 43.1712 39.5893 43.1694L39.5859 42.7694ZM40.43 43.1062C40.2036 42.8876 39.9005 42.7666 39.5859 42.7694L39.5893 43.1694C39.7991 43.1675 40.0012 43.2482 40.1521 43.3939L40.43 43.1062ZM41.8573 44.5315L40.4323 43.1085L40.1497 43.3916L41.5747 44.8146L41.8573 44.5315ZM44.3096 41.7976L41.5746 44.5316L41.8574 44.8145L44.5924 42.0805L44.3096 41.7976ZM42.8846 40.6555L44.3096 42.0805L44.5924 41.7976L43.1674 40.3726L42.8846 40.6555ZM42.5453 39.8089C42.5426 40.1235 42.6636 40.4267 42.8822 40.653L43.1699 40.3751C43.0241 40.2242 42.9435 40.0221 42.9453 39.8124L42.5453 39.8089ZM42.8968 38.9708C42.6743 39.1933 42.5481 39.4943 42.5453 39.8089L42.9453 39.8124C42.9471 39.6026 43.0313 39.402 43.1796 39.2536L42.8968 38.9708ZM43.7349 38.6194C43.4202 38.6221 43.1193 38.7483 42.8968 38.9708L43.1796 39.2536C43.3279 39.1053 43.5286 39.0212 43.7383 39.0194L43.7349 38.6194ZM44.5789 38.9562C44.3526 38.7376 44.0495 38.6166 43.7349 38.6194L43.7383 39.0194C43.9481 39.0175 44.1502 39.0982 44.3011 39.2439L44.5789 38.9562ZM46.0075 40.3857L44.5815 38.9587L44.2985 39.2414L45.7245 40.6684L46.0075 40.3857ZM48.4586 37.6506L45.7246 40.3856L46.0075 40.6684L48.7415 37.9334L48.4586 37.6506ZM47.0326 36.5085L48.4586 37.9335L48.7414 37.6506L47.3154 36.2256L47.0326 36.5085ZM46.7661 36.1214C46.829 36.2678 46.9205 36.4002 47.0351 36.5109L47.313 36.2232C47.2365 36.1494 47.1756 36.0611 47.1337 35.9635L46.7661 36.1214ZM46.6688 35.6582C46.6701 35.8175 46.7033 35.975 46.7661 36.1214L47.1337 35.9635C47.0917 35.8659 47.0697 35.7609 47.0687 35.6547L46.6688 35.6582ZM46.7581 35.1934C46.6977 35.3408 46.6674 35.4988 46.6688 35.6582L47.0687 35.6547C47.0678 35.5485 47.0881 35.4431 47.1283 35.3448L46.7581 35.1934ZM47.0202 34.7992C46.9075 34.9119 46.8184 35.0459 46.7581 35.1934L47.1283 35.3448C47.1685 35.2465 47.2279 35.1572 47.303 35.0821L47.0202 34.7992ZM47.4143 34.5371C47.2668 34.5974 47.1329 34.6865 47.0202 34.7992L47.303 35.0821C47.3781 35.007 47.4675 34.9476 47.5658 34.9073L47.4143 34.5371ZM47.8791 34.4478C47.7198 34.4464 47.5618 34.4768 47.4143 34.5371L47.5658 34.9073C47.6641 34.8671 47.7694 34.8469 47.8757 34.8478L47.8791 34.4478ZM48.3424 34.5452C48.1959 34.4823 48.0385 34.4492 47.8791 34.4478L47.8757 34.8478C47.9819 34.8487 48.0869 34.8708 48.1845 34.9127L48.3424 34.5452ZM48.7319 34.8141C48.6212 34.6995 48.4888 34.6081 48.3424 34.5452L48.1845 34.9127C48.2821 34.9546 48.3704 35.0156 48.4441 35.092L48.7319 34.8141ZM50.1544 36.2366L48.7294 34.8116L48.4466 35.0945L49.8716 36.5195L50.1544 36.2366Z" fill="#FEF3F1" mask="url(#path-1-inside-1_342_50105)"/>
</g>
<defs>
<clipPath id="clip0_342_50105">
<rect width="64" height="64" fill="white"/>
</clipPath>
</defs>
</svg>
