<svg width="18" height="18" viewBox="0 0 18 18" fill="none" xmlns="http://www.w3.org/2000/svg">
<path fill-rule="evenodd" clip-rule="evenodd" d="M3 1.5C2.17157 1.5 1.5 2.17157 1.5 3V15C1.5 15.8284 2.17157 16.5 3 16.5H15C15.8284 16.5 16.5 15.8284 16.5 15V3C16.5 2.17157 15.8284 1.5 15 1.5H3ZM0.5 3C0.5 1.61929 1.61929 0.5 3 0.5H15C16.3807 0.5 17.5 1.61929 17.5 3V15C17.5 16.3807 16.3807 17.5 15 17.5H3C1.61929 17.5 0.5 16.3807 0.5 15V3Z" fill="black"/>
<path fill-rule="evenodd" clip-rule="evenodd" d="M6.99997 7.5C7.27612 7.5 7.49997 7.72387 7.49997 8.00001L7.49988 14C7.49987 14.2761 7.27601 14.5 6.99987 14.5C6.72373 14.5 6.49987 14.2761 6.49988 14L6.49997 7.99999C6.49997 7.72385 6.72383 7.5 6.99997 7.5Z" fill="black"/>
<path fill-rule="evenodd" clip-rule="evenodd" d="M11 4.5C11.2761 4.5 11.5 4.72386 11.5 5L11.4999 14C11.4999 14.2761 11.276 14.5 10.9999 14.5C10.7237 14.5 10.4999 14.2761 10.4999 14L10.5 5C10.5 4.72385 10.7238 4.5 11 4.5Z" fill="black"/>
</svg>
