<svg width="22" height="22" viewBox="0 0 22 22" fill="none" xmlns="http://www.w3.org/2000/svg">
<path d="M20.1425 10.97C19.6887 6.74751 16.4075 3.48126 12.545 3.48126C8.68621 3.48126 5.40496 6.74751 4.95121 10.97C3.98746 11.1875 3.26746 12.0463 3.26746 13.0738V17.2625C3.26746 18.4513 4.23121 19.4188 5.41996 19.4188C6.61246 19.4188 7.57996 18.4513 7.57996 17.2625V13.0738C7.57996 11.9825 6.76246 11.0821 5.70871 10.94C6.16996 7.14914 9.10246 4.23126 12.545 4.23126C15.9912 4.23126 18.9237 7.14876 19.385 10.94C18.3312 11.0825 17.5175 11.9825 17.5175 13.0738V17.2625C17.5175 17.2925 17.5175 17.3225 17.5212 17.3525C16.6362 18.3796 15.5412 19.1038 14.33 19.4638C14.1162 19.1263 13.7412 18.8934 13.31 18.8934H12.5112C11.8475 18.8934 11.3037 19.4371 11.3037 20.1009C11.3037 20.7684 11.8475 21.3088 12.5112 21.3088H13.31C13.9437 21.3088 14.4575 20.8171 14.5062 20.1946C15.7175 19.8425 16.82 19.1713 17.7425 18.2221C18.0987 18.9313 18.8262 19.4184 19.67 19.4184C20.8625 19.4184 21.83 18.4509 21.83 17.2621V13.0738C21.83 12.0463 21.1062 11.1875 20.1425 10.97ZM6.82996 13.0738V17.2625C6.82996 18.0384 6.19621 18.6688 5.41996 18.6688C4.64746 18.6688 4.01746 18.0384 4.01746 17.2625V13.0738C4.01746 12.3009 4.64746 11.6675 5.41996 11.6675C6.19621 11.6675 6.82996 12.3013 6.82996 13.0738ZM13.31 20.5588H12.5112C12.26 20.5588 12.0537 20.3525 12.0537 20.1009C12.0537 19.8496 12.26 19.6434 12.5112 19.6434H13.31C13.5612 19.6434 13.7675 19.8496 13.7675 20.1009C13.7675 20.3525 13.5612 20.5588 13.31 20.5588ZM21.08 17.2625C21.08 18.0384 20.4462 18.6688 19.67 18.6688C18.8975 18.6688 18.2675 18.0384 18.2675 17.2625V13.0738C18.2675 12.3009 18.8975 11.6675 19.67 11.6675C20.4462 11.6675 21.08 12.3009 21.08 13.0738V17.2625Z" fill="black"/>
<path d="M6.11748 0.691254H0.544983C0.338733 0.691254 0.169983 0.860004 0.169983 1.06625V4.2725C0.169983 4.48288 0.338733 4.6475 0.544983 4.6475H3.97998L5.91123 5.9375C5.97498 5.97875 6.04623 6.00125 6.11748 6.00125C6.18123 6.00125 6.24123 5.98625 6.29748 5.95625C6.41748 5.8925 6.49248 5.765 6.49248 5.62625V1.06625C6.49248 0.860004 6.32748 0.691254 6.11748 0.691254ZM5.74248 4.925L4.30248 3.96163C4.23873 3.92038 4.16748 3.8975 4.09248 3.8975H0.919983V1.44125H5.74248V4.925Z" fill="black"/>
</svg>
