<svg width="14" height="16" viewBox="0 0 14 16" fill="none" xmlns="http://www.w3.org/2000/svg">
<path fill-rule="evenodd" clip-rule="evenodd" d="M4 3.5C4 1.84315 5.34315 0.5 7 0.5C8.65685 0.5 10 1.84315 10 3.5C10 5.15685 8.65685 6.5 7 6.5C5.34315 6.5 4 5.15685 4 3.5ZM7 1.5C5.89543 1.5 5 2.39543 5 3.5C5 4.60457 5.89543 5.5 7 5.5C8.10457 5.5 9 4.60457 9 3.5C9 2.39543 8.10457 1.5 7 1.5Z" fill="black"/>
<path fill-rule="evenodd" clip-rule="evenodd" d="M7 9.5C3.96243 9.5 1.5 11.9624 1.5 15C1.5 15.2761 1.27614 15.5 1 15.5C0.723858 15.5 0.5 15.2761 0.5 15C0.5 11.4101 3.41015 8.5 7 8.5C10.5899 8.5 13.5 11.4101 13.5 15C13.5 15.2761 13.2761 15.5 13 15.5C12.7239 15.5 12.5 15.2761 12.5 15C12.5 11.9624 10.0376 9.5 7 9.5Z" fill="black"/>
</svg>
